%FSLAX45Y45*%
G04 Gerber Fmt 4.5, Leading zero omitted, Abs format (unit mm)*
G04 Created by KiCad (PCBNEW 4.0.6) date 12/25/17 19:59:06*
%MOMM*%
%LPD*%
G01*
G04 APERTURE LIST*
%ADD10C,0.127000*%
%ADD11C,0.150000*%
%ADD12C,0.200000*%
%ADD13C,0.300000*%
G04 APERTURE END LIST*
D10*
D11*
X200000Y4000000D02*
X200000Y1000000D01*
X200000Y5700000D02*
X200000Y4300000D01*
X200000Y9000000D02*
X200000Y6000000D01*
X200000Y10000000D02*
X200000Y9300000D01*
X0Y10000000D02*
X200000Y10000000D01*
X0Y0D02*
X0Y10000000D01*
X200000Y0D02*
X0Y0D01*
X200000Y700000D02*
X200000Y0D01*
X9800000Y0D02*
X9800000Y700000D01*
X10000000Y0D02*
X9800000Y0D01*
X10000000Y10000000D02*
X10000000Y0D01*
X9800000Y10000000D02*
X10000000Y10000000D01*
X9800000Y9300000D02*
X9800000Y10000000D01*
X9800000Y6000000D02*
X9800000Y9000000D01*
X9800000Y5700000D02*
X9800000Y4300000D01*
X9800000Y4000000D02*
X9800000Y1000000D01*
X2600057Y5100048D02*
X2600057Y5000048D01*
X3300057Y5100048D02*
X2600057Y5100048D01*
X3300057Y5700048D02*
X3400057Y5700048D01*
X3400057Y5700048D02*
X3500057Y5700048D01*
X3300057Y5100048D02*
X3300057Y5700048D01*
X3400057Y9300048D02*
X3300057Y9300048D01*
X3500057Y10000048D02*
X6500057Y10000048D01*
X3500057Y9300048D02*
X3500057Y10000048D01*
X3500057Y9000048D02*
X3400057Y9000048D01*
X3400057Y9300048D02*
X3500057Y9300048D01*
X3300057Y9000048D02*
X3400057Y9000048D01*
X4500057Y5100048D02*
X4500057Y5000048D01*
X4200057Y5100048D02*
X4200057Y5000048D01*
X3500057Y5100048D02*
X4200057Y5100048D01*
X3500057Y5700048D02*
X3500057Y5100048D01*
X3300057Y9000048D02*
X3300057Y6000048D01*
X3400057Y6000048D02*
X3500057Y6000048D01*
X300057Y6000048D02*
X300057Y9000048D01*
X3500057Y6000048D02*
X3500057Y9000048D01*
X3400057Y6000048D02*
X3300057Y6000048D01*
X300057Y9300048D02*
X300057Y10000048D01*
X200057Y9300048D02*
X300057Y9300048D01*
X300057Y10000048D02*
X3300057Y10000048D01*
X300057Y9000048D02*
X200057Y9000048D01*
X3300057Y9300048D02*
X3300057Y10000048D01*
X6500057Y5100048D02*
X5800057Y5100048D01*
X5500057Y5100048D02*
X4500057Y5100048D01*
X5800057Y5100048D02*
X5800057Y5000048D01*
X5500057Y5000048D02*
X5500057Y5100048D01*
X200057Y6000048D02*
X300057Y6000048D01*
X1300057Y5100048D02*
X1300057Y5000048D01*
X2300057Y5100048D02*
X1300057Y5100048D01*
X200057Y5700048D02*
X300057Y5700048D01*
X2300057Y5000048D02*
X2300057Y5100048D01*
X300057Y5700048D02*
X300057Y5100048D01*
X300057Y5100048D02*
X1000057Y5100048D01*
X1000057Y5100048D02*
X1000057Y5000048D01*
X6600057Y9300048D02*
X6700057Y9300048D01*
X6700057Y9300048D02*
X6700057Y10000048D01*
X6500057Y9300048D02*
X6500057Y10000048D01*
X6500057Y9000048D02*
X6600057Y9000048D01*
X6600057Y9300048D02*
X6500057Y9300048D01*
X6700057Y5700048D02*
X6700057Y5100048D01*
X6600057Y5700048D02*
X6700057Y5700048D01*
X6500057Y5700048D02*
X6600057Y5700048D01*
X6700057Y5100048D02*
X7400057Y5100048D01*
X7400057Y5100048D02*
X7400057Y5000048D01*
X6500057Y5100048D02*
X6500057Y5700048D01*
X9700057Y9000048D02*
X9800057Y9000048D01*
X9800057Y9300048D02*
X9700057Y9300048D01*
X9700057Y9300048D02*
X9700057Y10000048D01*
X6700057Y10000048D02*
X9700057Y10000048D01*
X6600057Y6000048D02*
X6500057Y6000048D01*
X6500057Y9000048D02*
X6500057Y6000048D01*
X6700057Y9000048D02*
X6600057Y9000048D01*
X6600057Y6000048D02*
X6700057Y6000048D01*
X6700057Y6000048D02*
X6700057Y9000048D01*
X9700057Y9000048D02*
X9700057Y6000048D01*
X9700057Y5100048D02*
X9000057Y5100048D01*
X9700057Y5700048D02*
X9800057Y5700048D01*
X9800057Y6000048D02*
X9700057Y6000048D01*
X9700057Y5100048D02*
X9700057Y5700048D01*
X7700057Y5100048D02*
X7700057Y5000048D01*
X8700057Y5000048D02*
X8700057Y5100048D01*
X8700057Y5100048D02*
X7700057Y5100048D01*
X9000057Y5100048D02*
X9000057Y5000048D01*
X9700000Y700000D02*
X9700000Y0D01*
X9700000Y1000000D02*
X9800000Y1000000D01*
X9800000Y4000000D02*
X9700000Y4000000D01*
X9800000Y700000D02*
X9700000Y700000D01*
X9000000Y4900000D02*
X9000000Y5000000D01*
X9700000Y4900000D02*
X9000000Y4900000D01*
X9700000Y4300000D02*
X9700000Y4900000D01*
X9800000Y4300000D02*
X9700000Y4300000D01*
X6700000Y4900000D02*
X6700000Y4300000D01*
X6700000Y4300000D02*
X6600000Y4300000D01*
X6700000Y4900000D02*
X7400000Y4900000D01*
X6600000Y4000000D02*
X6700000Y4000000D01*
X7400000Y4900000D02*
X7400000Y5000000D01*
X7700000Y4900000D02*
X8700000Y4900000D01*
X8700000Y4900000D02*
X8700000Y5000000D01*
X7700000Y5000000D02*
X7700000Y4900000D01*
X6700000Y700000D02*
X6700000Y0D01*
X9700000Y0D02*
X6700000Y0D01*
X9700000Y4000000D02*
X9700000Y1000000D01*
X6700000Y1000000D02*
X6600000Y1000000D01*
X6600000Y700000D02*
X6700000Y700000D01*
X6700000Y1000000D02*
X6700000Y4000000D01*
X6500000Y700000D02*
X6500000Y0D01*
X6500000Y1000000D02*
X6600000Y1000000D01*
X6600000Y4000000D02*
X6500000Y4000000D01*
X6600000Y700000D02*
X6500000Y700000D01*
X5800000Y4900000D02*
X5800000Y5000000D01*
X6500000Y4900000D02*
X5800000Y4900000D01*
X6500000Y4300000D02*
X6500000Y4900000D01*
X6600000Y4300000D02*
X6500000Y4300000D01*
X3500000Y4900000D02*
X3500000Y4300000D01*
X3500000Y4300000D02*
X3400000Y4300000D01*
X3500000Y4900000D02*
X4200000Y4900000D01*
X3400000Y4000000D02*
X3500000Y4000000D01*
X4200000Y4900000D02*
X4200000Y5000000D01*
X4500000Y4900000D02*
X5500000Y4900000D01*
X5500000Y4900000D02*
X5500000Y5000000D01*
X4500000Y5000000D02*
X4500000Y4900000D01*
X3500000Y700000D02*
X3500000Y0D01*
X6500000Y0D02*
X3500000Y0D01*
X6500000Y4000000D02*
X6500000Y1000000D01*
X3500000Y1000000D02*
X3400000Y1000000D01*
X3400000Y700000D02*
X3500000Y700000D01*
X3500000Y1000000D02*
X3500000Y4000000D01*
X200000Y4000000D02*
X300000Y4000000D01*
X300000Y4300000D02*
X200000Y4300000D01*
X300000Y4900000D02*
X300000Y4300000D01*
X3300000Y4300000D02*
X3300000Y4900000D01*
X3400000Y4300000D02*
X3300000Y4300000D01*
X3400000Y4000000D02*
X3300000Y4000000D01*
X300000Y700000D02*
X300000Y0D01*
X200000Y700000D02*
X300000Y700000D01*
X300000Y1000000D02*
X200000Y1000000D01*
X3300000Y700000D02*
X3300000Y0D01*
X3400000Y700000D02*
X3300000Y700000D01*
X3300000Y1000000D02*
X3400000Y1000000D01*
X2300000Y4900000D02*
X2300000Y5000000D01*
X1300000Y4900000D02*
X2300000Y4900000D01*
X1300000Y5000000D02*
X1300000Y4900000D01*
X1000000Y4900000D02*
X1000000Y5000000D01*
X2600000Y4900000D02*
X2600000Y5000000D01*
X3300000Y4900000D02*
X2600000Y4900000D01*
X3300000Y0D02*
X300000Y0D01*
X3300000Y4000000D02*
X3300000Y1000000D01*
X300000Y4900000D02*
X1000000Y4900000D01*
X300000Y1000000D02*
X300000Y4000000D01*
D12*
X346040Y4825680D02*
X386040Y4785680D01*
X386040Y4825680D02*
X346040Y4785680D01*
X401920Y1315400D02*
X441920Y1275400D01*
X441920Y1315400D02*
X401920Y1275400D01*
X417160Y4175440D02*
X457160Y4135440D01*
X457160Y4175440D02*
X417160Y4135440D01*
X442560Y3697920D02*
X482560Y3657920D01*
X482560Y3697920D02*
X442560Y3657920D01*
X447640Y929320D02*
X487640Y889320D01*
X487640Y929320D02*
X447640Y889320D01*
X452720Y1117280D02*
X492720Y1077280D01*
X492720Y1117280D02*
X452720Y1077280D01*
X511140Y1856420D02*
X551140Y1816420D01*
X551140Y1856420D02*
X511140Y1816420D01*
X513680Y3393120D02*
X553680Y3353120D01*
X553680Y3393120D02*
X513680Y3353120D01*
X553200Y1307000D02*
X593200Y1267000D01*
X593200Y1307000D02*
X553200Y1267000D01*
X562257Y6154168D02*
X602257Y6114168D01*
X602257Y6154168D02*
X562257Y6114168D01*
X638457Y6540248D02*
X678457Y6500248D01*
X678457Y6540248D02*
X638457Y6500248D01*
X704180Y1545400D02*
X744180Y1505400D01*
X744180Y1545400D02*
X704180Y1505400D01*
X731301Y3310387D02*
X771301Y3270387D01*
X771301Y3310387D02*
X731301Y3270387D01*
X752440Y1955480D02*
X792440Y1915480D01*
X792440Y1955480D02*
X752440Y1915480D01*
X769060Y1705400D02*
X809060Y1665400D01*
X809060Y1705400D02*
X769060Y1665400D01*
X777840Y4840920D02*
X817840Y4800920D01*
X817840Y4840920D02*
X777840Y4800920D01*
X851500Y2712400D02*
X891500Y2672400D01*
X891500Y2712400D02*
X851500Y2672400D01*
X865640Y3109072D02*
X905640Y3069072D01*
X905640Y3109072D02*
X865640Y3069072D01*
X865640Y2984072D02*
X905640Y2944072D01*
X905640Y2984072D02*
X865640Y2944072D01*
X894680Y1157920D02*
X934680Y1117920D01*
X934680Y1157920D02*
X894680Y1117920D01*
X909920Y919160D02*
X949920Y879160D01*
X949920Y919160D02*
X909920Y879160D01*
X910271Y3674717D02*
X950271Y3634717D01*
X950271Y3674717D02*
X910271Y3634717D01*
X924640Y3450200D02*
X964640Y3410200D01*
X964640Y3450200D02*
X924640Y3410200D01*
X925160Y2194240D02*
X965160Y2154240D01*
X965160Y2194240D02*
X925160Y2154240D01*
X928140Y3372800D02*
X968140Y3332800D01*
X968140Y3372800D02*
X928140Y3332800D01*
X948337Y6616448D02*
X988337Y6576448D01*
X988337Y6616448D02*
X948337Y6576448D01*
X990640Y3109072D02*
X1030640Y3069072D01*
X1030640Y3109072D02*
X990640Y3069072D01*
X990640Y2984072D02*
X1030640Y2944072D01*
X1030640Y2984072D02*
X990640Y2944072D01*
X1001677Y9174228D02*
X1041677Y9134228D01*
X1041677Y9174228D02*
X1001677Y9134228D01*
X1019457Y8694168D02*
X1059457Y8654168D01*
X1059457Y8694168D02*
X1019457Y8654168D01*
X1024537Y7784848D02*
X1064537Y7744848D01*
X1064537Y7784848D02*
X1024537Y7744848D01*
X1024537Y7510528D02*
X1064537Y7470528D01*
X1064537Y7510528D02*
X1024537Y7470528D01*
X1034697Y8363968D02*
X1074697Y8323968D01*
X1074697Y8363968D02*
X1034697Y8323968D01*
X1034697Y7246368D02*
X1074697Y7206368D01*
X1074697Y7246368D02*
X1034697Y7206368D01*
X1034697Y6037328D02*
X1074697Y5997328D01*
X1074697Y6037328D02*
X1034697Y5997328D01*
X1039777Y6977128D02*
X1079777Y6937128D01*
X1079777Y6977128D02*
X1039777Y6937128D01*
X1049937Y8084568D02*
X1089937Y8044568D01*
X1089937Y8084568D02*
X1049937Y8044568D01*
X1052477Y5704588D02*
X1092477Y5664588D01*
X1092477Y5704588D02*
X1052477Y5664588D01*
X1060097Y8211568D02*
X1100097Y8171568D01*
X1100097Y8211568D02*
X1060097Y8171568D01*
X1060097Y7358128D02*
X1100097Y7318128D01*
X1100097Y7358128D02*
X1060097Y7318128D01*
X1065177Y7916928D02*
X1105177Y7876928D01*
X1105177Y7916928D02*
X1065177Y7876928D01*
X1065177Y7642608D02*
X1105177Y7602608D01*
X1105177Y7642608D02*
X1065177Y7602608D01*
X1065177Y7078728D02*
X1105177Y7038728D01*
X1105177Y7078728D02*
X1065177Y7038728D01*
X1080417Y6799328D02*
X1120417Y6759328D01*
X1120417Y6799328D02*
X1080417Y6759328D01*
X1080488Y3316920D02*
X1120488Y3276920D01*
X1120488Y3316920D02*
X1080488Y3276920D01*
X1108040Y1630360D02*
X1148040Y1590360D01*
X1148040Y1630360D02*
X1108040Y1590360D01*
X1133757Y6034788D02*
X1173757Y5994788D01*
X1173757Y6034788D02*
X1133757Y5994788D01*
X1136297Y5366768D02*
X1176297Y5326768D01*
X1176297Y5366768D02*
X1136297Y5326768D01*
X1143917Y5705382D02*
X1183917Y5665382D01*
X1183917Y5705382D02*
X1143917Y5665382D01*
X1146140Y1135060D02*
X1186140Y1095060D01*
X1186140Y1135060D02*
X1146140Y1095060D01*
X1148680Y898840D02*
X1188680Y858840D01*
X1188680Y898840D02*
X1148680Y858840D01*
X1152469Y1949963D02*
X1192469Y1909963D01*
X1192469Y1949963D02*
X1152469Y1909963D01*
X1240120Y3995100D02*
X1280120Y3955100D01*
X1280120Y3995100D02*
X1240120Y3955100D01*
X1250280Y4531040D02*
X1290280Y4491040D01*
X1290280Y4531040D02*
X1250280Y4491040D01*
X1260757Y8432548D02*
X1300757Y8392548D01*
X1300757Y8432548D02*
X1260757Y8392548D01*
X1260757Y6037328D02*
X1300757Y5997328D01*
X1300757Y6037328D02*
X1260757Y5997328D01*
X1260757Y5705382D02*
X1300757Y5665382D01*
X1300757Y5705382D02*
X1260757Y5665382D01*
X1280760Y3215320D02*
X1320760Y3175320D01*
X1320760Y3215320D02*
X1280760Y3175320D01*
X1329020Y3824920D02*
X1369020Y3784920D01*
X1369020Y3824920D02*
X1329020Y3784920D01*
X1344577Y5705382D02*
X1384577Y5665382D01*
X1384577Y5705382D02*
X1344577Y5665382D01*
X1349657Y6784088D02*
X1389657Y6744088D01*
X1389657Y6784088D02*
X1349657Y6744088D01*
X1350961Y788899D02*
X1390961Y748899D01*
X1390961Y788899D02*
X1350961Y748899D01*
X1354737Y6037328D02*
X1394737Y5997328D01*
X1394737Y6037328D02*
X1354737Y5997328D01*
X1367120Y4825680D02*
X1407120Y4785680D01*
X1407120Y4825680D02*
X1367120Y4785680D01*
X1367120Y3220400D02*
X1407120Y3180400D01*
X1407120Y3220400D02*
X1367120Y3180400D01*
X1377280Y1711640D02*
X1417280Y1671640D01*
X1417280Y1711640D02*
X1377280Y1671640D01*
X1393561Y5501181D02*
X1433560Y5461181D01*
X1433560Y5501181D02*
X1393561Y5461181D01*
X1395377Y6596128D02*
X1435377Y6556128D01*
X1435377Y6596128D02*
X1395377Y6556128D01*
X1395377Y6367528D02*
X1435377Y6327528D01*
X1435377Y6367528D02*
X1395377Y6327528D01*
X1415697Y9349488D02*
X1455697Y9309488D01*
X1455697Y9349488D02*
X1415697Y9309488D01*
X1425540Y825180D02*
X1465540Y785180D01*
X1465540Y825180D02*
X1425540Y785180D01*
X1456337Y7850888D02*
X1496337Y7810888D01*
X1496337Y7850888D02*
X1456337Y7810888D01*
X1485196Y8686328D02*
X1525196Y8646328D01*
X1525196Y8686328D02*
X1485196Y8646328D01*
X1496977Y8084568D02*
X1536977Y8044568D01*
X1536977Y8084568D02*
X1496977Y8044568D01*
X1509360Y3550600D02*
X1549360Y3510600D01*
X1549360Y3550600D02*
X1509360Y3510600D01*
X1529680Y705800D02*
X1569680Y665800D01*
X1569680Y705800D02*
X1529680Y665800D01*
X1532220Y4439600D02*
X1572220Y4399600D01*
X1572220Y4439600D02*
X1532220Y4399600D01*
X1555080Y1782760D02*
X1595080Y1742760D01*
X1595080Y1782760D02*
X1555080Y1742760D01*
X1578257Y8308088D02*
X1618257Y8268088D01*
X1618257Y8308088D02*
X1578257Y8268088D01*
X1618580Y4127180D02*
X1658580Y4087180D01*
X1658580Y4127180D02*
X1618580Y4087180D01*
X1633839Y3918881D02*
X1673839Y3878881D01*
X1673839Y3918881D02*
X1633839Y3878881D01*
X1636360Y4241480D02*
X1676360Y4201480D01*
X1676360Y4241480D02*
X1636360Y4201480D01*
X1638900Y4183060D02*
X1678900Y4143060D01*
X1678900Y4183060D02*
X1638900Y4143060D01*
X1639217Y7855968D02*
X1679217Y7815968D01*
X1679217Y7855968D02*
X1639217Y7815968D01*
X1684620Y3217860D02*
X1724620Y3177860D01*
X1724620Y3217860D02*
X1684620Y3177860D01*
X1692240Y3426140D02*
X1732240Y3386140D01*
X1732240Y3426140D02*
X1692240Y3386140D01*
X1699796Y4122287D02*
X1739796Y4082287D01*
X1739796Y4122287D02*
X1699796Y4082287D01*
X1702400Y4818060D02*
X1742400Y4778060D01*
X1742400Y4818060D02*
X1702400Y4778060D01*
X1702400Y4713920D02*
X1742400Y4673920D01*
X1742400Y4713920D02*
X1702400Y4673920D01*
X1707480Y4602160D02*
X1747480Y4562160D01*
X1747480Y4602160D02*
X1707480Y4562160D01*
X1712560Y4244766D02*
X1752560Y4204766D01*
X1752560Y4244766D02*
X1712560Y4204766D01*
X1725577Y9105648D02*
X1765577Y9065648D01*
X1765577Y9105648D02*
X1725577Y9065648D01*
X1748120Y2951160D02*
X1788120Y2911160D01*
X1788120Y2951160D02*
X1748120Y2911160D01*
X1748423Y4119760D02*
X1788423Y4079760D01*
X1788423Y4119760D02*
X1748423Y4079760D01*
X1748437Y5796028D02*
X1788437Y5756028D01*
X1788437Y5796028D02*
X1748437Y5756028D01*
X1755740Y4244020D02*
X1795740Y4204020D01*
X1795740Y4244020D02*
X1755740Y4204020D01*
X1756057Y5923028D02*
X1796057Y5883028D01*
X1796057Y5923028D02*
X1756057Y5883028D01*
X1778600Y2209480D02*
X1818600Y2169480D01*
X1818600Y2209480D02*
X1778600Y2169480D01*
X1781457Y7830568D02*
X1821457Y7790568D01*
X1821457Y7830568D02*
X1781457Y7790568D01*
X1804000Y4117020D02*
X1844000Y4077020D01*
X1844000Y4117020D02*
X1804000Y4077020D01*
X1804317Y5796028D02*
X1844317Y5756028D01*
X1844317Y5796028D02*
X1804317Y5756028D01*
X1811620Y4244020D02*
X1851620Y4204020D01*
X1851620Y4244020D02*
X1811620Y4204020D01*
X1811633Y5920287D02*
X1851633Y5880287D01*
X1851633Y5920287D02*
X1811633Y5880287D01*
X1811937Y7088888D02*
X1851937Y7048888D01*
X1851937Y7088888D02*
X1811937Y7048888D01*
X1834480Y934400D02*
X1874480Y894400D01*
X1874480Y934400D02*
X1834480Y894400D01*
X1847497Y5795282D02*
X1887497Y5755282D01*
X1887497Y5795282D02*
X1847497Y5755282D01*
X1852577Y5437888D02*
X1892577Y5397888D01*
X1892577Y5437888D02*
X1852577Y5397888D01*
X1857657Y5326128D02*
X1897657Y5286128D01*
X1897657Y5326128D02*
X1857657Y5286128D01*
X1857657Y5221988D02*
X1897657Y5181988D01*
X1897657Y5221988D02*
X1857657Y5181988D01*
X1860261Y5917761D02*
X1900261Y5877761D01*
X1900261Y5917761D02*
X1860261Y5877761D01*
X1867817Y6613908D02*
X1907817Y6573908D01*
X1907817Y6613908D02*
X1867817Y6573908D01*
X1875437Y6822188D02*
X1915437Y6782188D01*
X1915437Y6822188D02*
X1875437Y6782188D01*
X1920840Y2184080D02*
X1960840Y2144080D01*
X1960840Y2184080D02*
X1920840Y2144080D01*
X1921157Y5856988D02*
X1961157Y5816988D01*
X1961157Y5856988D02*
X1921157Y5816988D01*
X1923697Y5798568D02*
X1963697Y5758568D01*
X1963697Y5798568D02*
X1923697Y5758568D01*
X1926217Y6121167D02*
X1966217Y6081167D01*
X1966217Y6121167D02*
X1926217Y6081167D01*
X1941477Y5912868D02*
X1981477Y5872868D01*
X1981477Y5912868D02*
X1941477Y5872868D01*
X1981800Y1731960D02*
X2021800Y1691960D01*
X2021800Y1731960D02*
X1981800Y1691960D01*
X2004977Y8257288D02*
X2044977Y8217288D01*
X2044977Y8257288D02*
X2004977Y8217288D01*
X2027837Y5600448D02*
X2067837Y5560448D01*
X2067837Y5600448D02*
X2027837Y5560448D01*
X2030377Y9334248D02*
X2070377Y9294248D01*
X2070377Y9334248D02*
X2030377Y9294248D01*
X2050697Y6489448D02*
X2090697Y6449448D01*
X2090697Y6489448D02*
X2050697Y6449448D01*
X2063080Y1955480D02*
X2103080Y1915480D01*
X2103080Y1955480D02*
X2063080Y1915480D01*
X2074861Y1353719D02*
X2114861Y1313719D01*
X2114861Y1353719D02*
X2074861Y1313719D01*
X2103720Y2189160D02*
X2143720Y2149160D01*
X2143720Y2189160D02*
X2103720Y2149160D01*
X2134517Y9214868D02*
X2174517Y9174868D01*
X2174517Y9214868D02*
X2134517Y9174868D01*
X2144360Y690560D02*
X2184360Y650560D01*
X2184360Y690560D02*
X2144360Y650560D01*
X2164680Y3672520D02*
X2204680Y3632520D01*
X2204680Y3672520D02*
X2164680Y3632520D01*
X2164680Y3443920D02*
X2204680Y3403920D01*
X2204680Y3443920D02*
X2164680Y3403920D01*
X2166496Y4538867D02*
X2206496Y4498867D01*
X2206496Y4538867D02*
X2166496Y4498867D01*
X2182777Y8328408D02*
X2222777Y8288408D01*
X2222777Y8328408D02*
X2182777Y8288408D01*
X2192937Y6819648D02*
X2232937Y6779648D01*
X2232937Y6819648D02*
X2192937Y6779648D01*
X2192937Y5214368D02*
X2232937Y5174368D01*
X2232937Y5214368D02*
X2192937Y5174368D01*
X2205320Y4002720D02*
X2245320Y3962720D01*
X2245320Y4002720D02*
X2205320Y3962720D01*
X2209096Y9251149D02*
X2249096Y9211149D01*
X2249096Y9251149D02*
X2209096Y9211149D01*
X2210400Y3255960D02*
X2250400Y3215960D01*
X2250400Y3255960D02*
X2210400Y3215960D01*
X2215480Y4334666D02*
X2255480Y4294666D01*
X2255480Y4334666D02*
X2215480Y4294666D01*
X2231037Y6215128D02*
X2271037Y6175128D01*
X2271037Y6215128D02*
X2231037Y6175128D01*
X2279297Y6824728D02*
X2319297Y6784728D01*
X2319297Y6824728D02*
X2279297Y6784728D01*
X2299300Y4334666D02*
X2339300Y4294666D01*
X2339300Y4334666D02*
X2299300Y4294666D01*
X2299300Y4002720D02*
X2339300Y3962720D01*
X2339300Y4002720D02*
X2299300Y3962720D01*
X2299300Y1607500D02*
X2339300Y1567500D01*
X2339300Y1607500D02*
X2299300Y1567500D01*
X2309777Y5509008D02*
X2349777Y5469008D01*
X2349777Y5509008D02*
X2309777Y5469008D01*
X2319937Y6044948D02*
X2359937Y6004948D01*
X2359937Y6044948D02*
X2319937Y6004948D01*
X2407587Y8090085D02*
X2447587Y8050085D01*
X2447587Y8090085D02*
X2407587Y8050085D01*
X2411377Y9141208D02*
X2451377Y9101208D01*
X2451377Y9141208D02*
X2411377Y9101208D01*
X2413917Y8904988D02*
X2453917Y8864988D01*
X2453917Y8904988D02*
X2413917Y8864988D01*
X2416140Y4334666D02*
X2456140Y4294666D01*
X2456140Y4334666D02*
X2416140Y4294666D01*
X2423760Y4673280D02*
X2463760Y4633280D01*
X2463760Y4673280D02*
X2423760Y4633280D01*
X2426300Y4005260D02*
X2466300Y3965260D01*
X2466300Y4005260D02*
X2426300Y3965260D01*
X2452017Y8409688D02*
X2492017Y8369688D01*
X2492017Y8409688D02*
X2452017Y8369688D01*
X2479569Y6723128D02*
X2519569Y6683128D01*
X2519569Y6723128D02*
X2479569Y6683128D01*
X2479640Y3240720D02*
X2519640Y3200720D01*
X2519640Y3240720D02*
X2479640Y3200720D01*
X2494880Y2961320D02*
X2534880Y2921320D01*
X2534880Y2961320D02*
X2494880Y2921320D01*
X2494880Y2397440D02*
X2534880Y2357440D01*
X2534880Y2397440D02*
X2494880Y2357440D01*
X2494880Y2123120D02*
X2534880Y2083120D01*
X2534880Y2123120D02*
X2494880Y2083120D01*
X2499960Y2681920D02*
X2539960Y2641920D01*
X2539960Y2681920D02*
X2499960Y2641920D01*
X2499960Y1828480D02*
X2539960Y1788480D01*
X2539960Y1828480D02*
X2499960Y1788480D01*
X2507580Y4335460D02*
X2547580Y4295460D01*
X2547580Y4335460D02*
X2507580Y4295460D01*
X2510120Y1955480D02*
X2550120Y1915480D01*
X2550120Y1955480D02*
X2510120Y1915480D01*
X2520280Y3062920D02*
X2560280Y3022920D01*
X2560280Y3062920D02*
X2520280Y3022920D01*
X2525360Y4002720D02*
X2565360Y3962720D01*
X2565360Y4002720D02*
X2525360Y3962720D01*
X2525360Y2793680D02*
X2565360Y2753680D01*
X2565360Y2793680D02*
X2525360Y2753680D01*
X2525360Y1676080D02*
X2565360Y1636080D01*
X2565360Y1676080D02*
X2525360Y1636080D01*
X2535520Y2529520D02*
X2575520Y2489520D01*
X2575520Y2529520D02*
X2535520Y2489520D01*
X2535520Y2255200D02*
X2575520Y2215200D01*
X2575520Y2255200D02*
X2535520Y2215200D01*
X2540600Y1345880D02*
X2580600Y1305880D01*
X2580600Y1345880D02*
X2540600Y1305880D01*
X2558380Y865820D02*
X2598380Y825820D01*
X2598380Y865820D02*
X2558380Y825820D01*
X2569417Y7055975D02*
X2609417Y7015975D01*
X2609417Y7055975D02*
X2569417Y7015975D01*
X2569417Y6930975D02*
X2609417Y6890975D01*
X2609417Y6930975D02*
X2569417Y6890975D01*
X2611720Y3423600D02*
X2651720Y3383600D01*
X2651720Y3423600D02*
X2611720Y3383600D01*
X2631917Y6667248D02*
X2671917Y6627248D01*
X2671917Y6667248D02*
X2631917Y6627248D01*
X2634897Y7845808D02*
X2674897Y7805808D01*
X2674897Y7845808D02*
X2634897Y7805808D01*
X2635417Y6589848D02*
X2675417Y6549848D01*
X2675417Y6589848D02*
X2635417Y6549848D01*
X2649785Y6365330D02*
X2689785Y6325330D01*
X2689785Y6365330D02*
X2649785Y6325330D01*
X2650137Y9120888D02*
X2690137Y9080888D01*
X2690137Y9120888D02*
X2650137Y9080888D01*
X2665377Y8882128D02*
X2705377Y8842128D01*
X2705377Y8882128D02*
X2665377Y8842128D01*
X2694417Y7055975D02*
X2734417Y7015975D01*
X2734417Y7055975D02*
X2694417Y7015975D01*
X2694417Y6930975D02*
X2734417Y6890975D01*
X2734417Y6930975D02*
X2694417Y6890975D01*
X2708557Y7327648D02*
X2748557Y7287648D01*
X2748557Y7327648D02*
X2708557Y7287648D01*
X2782217Y5199128D02*
X2822217Y5159128D01*
X2822217Y5199128D02*
X2782217Y5159128D01*
X2790997Y8334648D02*
X2830997Y8294648D01*
X2830997Y8334648D02*
X2790997Y8294648D01*
X2807617Y8084568D02*
X2847617Y8044568D01*
X2847617Y8084568D02*
X2807617Y8044568D01*
X2828755Y6729661D02*
X2868755Y6689661D01*
X2868755Y6729661D02*
X2828755Y6689661D01*
X2855877Y8494648D02*
X2895877Y8454648D01*
X2895877Y8494648D02*
X2855877Y8454648D01*
X2921600Y3499800D02*
X2961600Y3459800D01*
X2961600Y3499800D02*
X2921600Y3459800D01*
X2997800Y3885880D02*
X3037800Y3845880D01*
X3037800Y3885880D02*
X2997800Y3845880D01*
X3006856Y8733048D02*
X3046856Y8693048D01*
X3046856Y8733048D02*
X3006856Y8693048D01*
X3046377Y6646928D02*
X3086377Y6606928D01*
X3086377Y6646928D02*
X3046377Y6606928D01*
X3048917Y8183628D02*
X3088917Y8143628D01*
X3088917Y8183628D02*
X3048917Y8143628D01*
X3107337Y8922768D02*
X3147337Y8882768D01*
X3147337Y8922768D02*
X3107337Y8882768D01*
X3112417Y9110728D02*
X3152417Y9070728D01*
X3152417Y9110728D02*
X3112417Y9070728D01*
X3117497Y6342128D02*
X3157497Y6302128D01*
X3157497Y6342128D02*
X3117497Y6302128D01*
X3142897Y5864608D02*
X3182897Y5824608D01*
X3182897Y5864608D02*
X3142897Y5824608D01*
X3158137Y8724648D02*
X3198137Y8684648D01*
X3198137Y8724648D02*
X3158137Y8684648D01*
X3214017Y5214368D02*
X3254017Y5174368D01*
X3254017Y5214368D02*
X3214017Y5174368D01*
X3546040Y4825680D02*
X3586040Y4785680D01*
X3586040Y4825680D02*
X3546040Y4785680D01*
X3601920Y1315400D02*
X3641920Y1275400D01*
X3641920Y1315400D02*
X3601920Y1275400D01*
X3617160Y4175440D02*
X3657160Y4135440D01*
X3657160Y4175440D02*
X3617160Y4135440D01*
X3642560Y3697920D02*
X3682560Y3657920D01*
X3682560Y3697920D02*
X3642560Y3657920D01*
X3647640Y929320D02*
X3687640Y889320D01*
X3687640Y929320D02*
X3647640Y889320D01*
X3652720Y1117280D02*
X3692720Y1077280D01*
X3692720Y1117280D02*
X3652720Y1077280D01*
X3711140Y1856420D02*
X3751140Y1816420D01*
X3751140Y1856420D02*
X3711140Y1816420D01*
X3713680Y3393120D02*
X3753680Y3353120D01*
X3753680Y3393120D02*
X3713680Y3353120D01*
X3753200Y1307000D02*
X3793200Y1267000D01*
X3793200Y1307000D02*
X3753200Y1267000D01*
X3762257Y6154168D02*
X3802257Y6114168D01*
X3802257Y6154168D02*
X3762257Y6114168D01*
X3838457Y6540248D02*
X3878457Y6500248D01*
X3878457Y6540248D02*
X3838457Y6500248D01*
X3904180Y1545400D02*
X3944180Y1505400D01*
X3944180Y1545400D02*
X3904180Y1505400D01*
X3931301Y3310387D02*
X3971301Y3270387D01*
X3971301Y3310387D02*
X3931301Y3270387D01*
X3952440Y1955480D02*
X3992440Y1915480D01*
X3992440Y1955480D02*
X3952440Y1915480D01*
X3969060Y1705400D02*
X4009060Y1665400D01*
X4009060Y1705400D02*
X3969060Y1665400D01*
X3977840Y4840920D02*
X4017840Y4800920D01*
X4017840Y4840920D02*
X3977840Y4800920D01*
X4051500Y2712400D02*
X4091500Y2672400D01*
X4091500Y2712400D02*
X4051500Y2672400D01*
X4065640Y3109072D02*
X4105640Y3069072D01*
X4105640Y3109072D02*
X4065640Y3069072D01*
X4065640Y2984072D02*
X4105640Y2944072D01*
X4105640Y2984072D02*
X4065640Y2944072D01*
X4094680Y1157920D02*
X4134680Y1117920D01*
X4134680Y1157920D02*
X4094680Y1117920D01*
X4109920Y919160D02*
X4149920Y879160D01*
X4149920Y919160D02*
X4109920Y879160D01*
X4110271Y3674717D02*
X4150271Y3634717D01*
X4150271Y3674717D02*
X4110271Y3634717D01*
X4124640Y3450200D02*
X4164640Y3410200D01*
X4164640Y3450200D02*
X4124640Y3410200D01*
X4125160Y2194240D02*
X4165160Y2154240D01*
X4165160Y2194240D02*
X4125160Y2154240D01*
X4128140Y3372800D02*
X4168140Y3332800D01*
X4168140Y3372800D02*
X4128140Y3332800D01*
X4148337Y6616448D02*
X4188337Y6576448D01*
X4188337Y6616448D02*
X4148337Y6576448D01*
X4190640Y3109072D02*
X4230640Y3069072D01*
X4230640Y3109072D02*
X4190640Y3069072D01*
X4190640Y2984072D02*
X4230640Y2944072D01*
X4230640Y2984072D02*
X4190640Y2944072D01*
X4201677Y9174228D02*
X4241677Y9134228D01*
X4241677Y9174228D02*
X4201677Y9134228D01*
X4219457Y8694168D02*
X4259457Y8654168D01*
X4259457Y8694168D02*
X4219457Y8654168D01*
X4224537Y7784848D02*
X4264537Y7744848D01*
X4264537Y7784848D02*
X4224537Y7744848D01*
X4224537Y7510528D02*
X4264537Y7470528D01*
X4264537Y7510528D02*
X4224537Y7470528D01*
X4234697Y8363968D02*
X4274697Y8323968D01*
X4274697Y8363968D02*
X4234697Y8323968D01*
X4234697Y7246368D02*
X4274697Y7206368D01*
X4274697Y7246368D02*
X4234697Y7206368D01*
X4234697Y6037328D02*
X4274697Y5997328D01*
X4274697Y6037328D02*
X4234697Y5997328D01*
X4239777Y6977128D02*
X4279777Y6937128D01*
X4279777Y6977128D02*
X4239777Y6937128D01*
X4249937Y8084568D02*
X4289937Y8044568D01*
X4289937Y8084568D02*
X4249937Y8044568D01*
X4252477Y5704588D02*
X4292477Y5664588D01*
X4292477Y5704588D02*
X4252477Y5664588D01*
X4260097Y8211568D02*
X4300097Y8171568D01*
X4300097Y8211568D02*
X4260097Y8171568D01*
X4260097Y7358128D02*
X4300097Y7318128D01*
X4300097Y7358128D02*
X4260097Y7318128D01*
X4265177Y7916928D02*
X4305177Y7876928D01*
X4305177Y7916928D02*
X4265177Y7876928D01*
X4265177Y7642608D02*
X4305177Y7602608D01*
X4305177Y7642608D02*
X4265177Y7602608D01*
X4265177Y7078728D02*
X4305177Y7038728D01*
X4305177Y7078728D02*
X4265177Y7038728D01*
X4280417Y6799328D02*
X4320417Y6759328D01*
X4320417Y6799328D02*
X4280417Y6759328D01*
X4280488Y3316920D02*
X4320488Y3276920D01*
X4320488Y3316920D02*
X4280488Y3276920D01*
X4308040Y1630360D02*
X4348040Y1590360D01*
X4348040Y1630360D02*
X4308040Y1590360D01*
X4333757Y6034788D02*
X4373757Y5994788D01*
X4373757Y6034788D02*
X4333757Y5994788D01*
X4336297Y5366768D02*
X4376297Y5326768D01*
X4376297Y5366768D02*
X4336297Y5326768D01*
X4343917Y5705382D02*
X4383917Y5665382D01*
X4383917Y5705382D02*
X4343917Y5665382D01*
X4346140Y1135060D02*
X4386140Y1095060D01*
X4386140Y1135060D02*
X4346140Y1095060D01*
X4348680Y898840D02*
X4388680Y858840D01*
X4388680Y898840D02*
X4348680Y858840D01*
X4352469Y1949963D02*
X4392469Y1909963D01*
X4392469Y1949963D02*
X4352469Y1909963D01*
X4440120Y3995100D02*
X4480120Y3955100D01*
X4480120Y3995100D02*
X4440120Y3955100D01*
X4450280Y4531040D02*
X4490280Y4491040D01*
X4490280Y4531040D02*
X4450280Y4491040D01*
X4460757Y8432548D02*
X4500757Y8392548D01*
X4500757Y8432548D02*
X4460757Y8392548D01*
X4460757Y6037328D02*
X4500757Y5997328D01*
X4500757Y6037328D02*
X4460757Y5997328D01*
X4460757Y5705382D02*
X4500757Y5665382D01*
X4500757Y5705382D02*
X4460757Y5665382D01*
X4480760Y3215320D02*
X4520760Y3175320D01*
X4520760Y3215320D02*
X4480760Y3175320D01*
X4529020Y3824920D02*
X4569020Y3784920D01*
X4569020Y3824920D02*
X4529020Y3784920D01*
X4544577Y5705382D02*
X4584577Y5665382D01*
X4584577Y5705382D02*
X4544577Y5665382D01*
X4549657Y6784088D02*
X4589657Y6744088D01*
X4589657Y6784088D02*
X4549657Y6744088D01*
X4550961Y788899D02*
X4590961Y748899D01*
X4590961Y788899D02*
X4550961Y748899D01*
X4554737Y6037328D02*
X4594737Y5997328D01*
X4594737Y6037328D02*
X4554737Y5997328D01*
X4567120Y4825680D02*
X4607120Y4785680D01*
X4607120Y4825680D02*
X4567120Y4785680D01*
X4567120Y3220400D02*
X4607120Y3180400D01*
X4607120Y3220400D02*
X4567120Y3180400D01*
X4577280Y1711640D02*
X4617280Y1671640D01*
X4617280Y1711640D02*
X4577280Y1671640D01*
X4593561Y5501181D02*
X4633561Y5461181D01*
X4633561Y5501181D02*
X4593561Y5461181D01*
X4595377Y6596128D02*
X4635377Y6556128D01*
X4635377Y6596128D02*
X4595377Y6556128D01*
X4595377Y6367528D02*
X4635377Y6327528D01*
X4635377Y6367528D02*
X4595377Y6327528D01*
X4615697Y9349488D02*
X4655697Y9309488D01*
X4655697Y9349488D02*
X4615697Y9309488D01*
X4625540Y825180D02*
X4665540Y785180D01*
X4665540Y825180D02*
X4625540Y785180D01*
X4656337Y7850888D02*
X4696337Y7810888D01*
X4696337Y7850888D02*
X4656337Y7810888D01*
X4685196Y8686328D02*
X4725196Y8646328D01*
X4725196Y8686328D02*
X4685196Y8646328D01*
X4696977Y8084568D02*
X4736977Y8044568D01*
X4736977Y8084568D02*
X4696977Y8044568D01*
X4709360Y3550600D02*
X4749360Y3510600D01*
X4749360Y3550600D02*
X4709360Y3510600D01*
X4729680Y705800D02*
X4769680Y665800D01*
X4769680Y705800D02*
X4729680Y665800D01*
X4732220Y4439600D02*
X4772220Y4399600D01*
X4772220Y4439600D02*
X4732220Y4399600D01*
X4755080Y1782760D02*
X4795080Y1742760D01*
X4795080Y1782760D02*
X4755080Y1742760D01*
X4778257Y8308088D02*
X4818257Y8268088D01*
X4818257Y8308088D02*
X4778257Y8268088D01*
X4818580Y4127180D02*
X4858580Y4087180D01*
X4858580Y4127180D02*
X4818580Y4087180D01*
X4833839Y3918881D02*
X4873839Y3878881D01*
X4873839Y3918881D02*
X4833839Y3878881D01*
X4836360Y4241480D02*
X4876360Y4201480D01*
X4876360Y4241480D02*
X4836360Y4201480D01*
X4838900Y4183060D02*
X4878900Y4143060D01*
X4878900Y4183060D02*
X4838900Y4143060D01*
X4839217Y7855968D02*
X4879217Y7815968D01*
X4879217Y7855968D02*
X4839217Y7815968D01*
X4884620Y3217860D02*
X4924620Y3177860D01*
X4924620Y3217860D02*
X4884620Y3177860D01*
X4892240Y3426140D02*
X4932240Y3386140D01*
X4932240Y3426140D02*
X4892240Y3386140D01*
X4899796Y4122287D02*
X4939796Y4082287D01*
X4939796Y4122287D02*
X4899796Y4082287D01*
X4902400Y4818060D02*
X4942400Y4778060D01*
X4942400Y4818060D02*
X4902400Y4778060D01*
X4902400Y4713920D02*
X4942400Y4673920D01*
X4942400Y4713920D02*
X4902400Y4673920D01*
X4907480Y4602160D02*
X4947480Y4562160D01*
X4947480Y4602160D02*
X4907480Y4562160D01*
X4912560Y4244766D02*
X4952560Y4204766D01*
X4952560Y4244766D02*
X4912560Y4204766D01*
X4925577Y9105648D02*
X4965577Y9065648D01*
X4965577Y9105648D02*
X4925577Y9065648D01*
X4948120Y2951160D02*
X4988120Y2911160D01*
X4988120Y2951160D02*
X4948120Y2911160D01*
X4948423Y4119760D02*
X4988423Y4079760D01*
X4988423Y4119760D02*
X4948423Y4079760D01*
X4948437Y5796028D02*
X4988437Y5756028D01*
X4988437Y5796028D02*
X4948437Y5756028D01*
X4955740Y4244020D02*
X4995740Y4204020D01*
X4995740Y4244020D02*
X4955740Y4204020D01*
X4956057Y5923028D02*
X4996057Y5883028D01*
X4996057Y5923028D02*
X4956057Y5883028D01*
X4978600Y2209480D02*
X5018600Y2169480D01*
X5018600Y2209480D02*
X4978600Y2169480D01*
X4981457Y7830568D02*
X5021457Y7790568D01*
X5021457Y7830568D02*
X4981457Y7790568D01*
X5004000Y4117020D02*
X5044000Y4077020D01*
X5044000Y4117020D02*
X5004000Y4077020D01*
X5004317Y5796028D02*
X5044317Y5756028D01*
X5044317Y5796028D02*
X5004317Y5756028D01*
X5011620Y4244020D02*
X5051620Y4204020D01*
X5051620Y4244020D02*
X5011620Y4204020D01*
X5011633Y5920287D02*
X5051633Y5880287D01*
X5051633Y5920287D02*
X5011633Y5880287D01*
X5011937Y7088888D02*
X5051937Y7048888D01*
X5051937Y7088888D02*
X5011937Y7048888D01*
X5034480Y934400D02*
X5074480Y894400D01*
X5074480Y934400D02*
X5034480Y894400D01*
X5047497Y5795282D02*
X5087497Y5755282D01*
X5087497Y5795282D02*
X5047497Y5755282D01*
X5052577Y5437888D02*
X5092577Y5397888D01*
X5092577Y5437888D02*
X5052577Y5397888D01*
X5057657Y5326128D02*
X5097657Y5286128D01*
X5097657Y5326128D02*
X5057657Y5286128D01*
X5057657Y5221988D02*
X5097657Y5181988D01*
X5097657Y5221988D02*
X5057657Y5181988D01*
X5060261Y5917761D02*
X5100261Y5877761D01*
X5100261Y5917761D02*
X5060261Y5877761D01*
X5067817Y6613908D02*
X5107817Y6573908D01*
X5107817Y6613908D02*
X5067817Y6573908D01*
X5075437Y6822188D02*
X5115437Y6782188D01*
X5115437Y6822188D02*
X5075437Y6782188D01*
X5120840Y2184080D02*
X5160840Y2144080D01*
X5160840Y2184080D02*
X5120840Y2144080D01*
X5121157Y5856988D02*
X5161157Y5816988D01*
X5161157Y5856988D02*
X5121157Y5816988D01*
X5123697Y5798568D02*
X5163697Y5758568D01*
X5163697Y5798568D02*
X5123697Y5758568D01*
X5126217Y6121167D02*
X5166217Y6081167D01*
X5166217Y6121167D02*
X5126217Y6081167D01*
X5141477Y5912868D02*
X5181477Y5872868D01*
X5181477Y5912868D02*
X5141477Y5872868D01*
X5181800Y1731960D02*
X5221800Y1691960D01*
X5221800Y1731960D02*
X5181800Y1691960D01*
X5204977Y8257288D02*
X5244977Y8217288D01*
X5244977Y8257288D02*
X5204977Y8217288D01*
X5227837Y5600448D02*
X5267837Y5560448D01*
X5267837Y5600448D02*
X5227837Y5560448D01*
X5230377Y9334248D02*
X5270377Y9294248D01*
X5270377Y9334248D02*
X5230377Y9294248D01*
X5250697Y6489448D02*
X5290697Y6449448D01*
X5290697Y6489448D02*
X5250697Y6449448D01*
X5263080Y1955480D02*
X5303080Y1915480D01*
X5303080Y1955480D02*
X5263080Y1915480D01*
X5274861Y1353719D02*
X5314861Y1313719D01*
X5314861Y1353719D02*
X5274861Y1313719D01*
X5303720Y2189160D02*
X5343720Y2149160D01*
X5343720Y2189160D02*
X5303720Y2149160D01*
X5334517Y9214868D02*
X5374517Y9174868D01*
X5374517Y9214868D02*
X5334517Y9174868D01*
X5344360Y690560D02*
X5384360Y650560D01*
X5384360Y690560D02*
X5344360Y650560D01*
X5364680Y3672520D02*
X5404680Y3632520D01*
X5404680Y3672520D02*
X5364680Y3632520D01*
X5364680Y3443920D02*
X5404680Y3403920D01*
X5404680Y3443920D02*
X5364680Y3403920D01*
X5366496Y4538867D02*
X5406496Y4498867D01*
X5406496Y4538867D02*
X5366496Y4498867D01*
X5382777Y8328408D02*
X5422777Y8288408D01*
X5422777Y8328408D02*
X5382777Y8288408D01*
X5392937Y6819648D02*
X5432937Y6779648D01*
X5432937Y6819648D02*
X5392937Y6779648D01*
X5392937Y5214368D02*
X5432937Y5174368D01*
X5432937Y5214368D02*
X5392937Y5174368D01*
X5405320Y4002720D02*
X5445320Y3962720D01*
X5445320Y4002720D02*
X5405320Y3962720D01*
X5409096Y9251149D02*
X5449096Y9211149D01*
X5449096Y9251149D02*
X5409096Y9211149D01*
X5410400Y3255960D02*
X5450400Y3215960D01*
X5450400Y3255960D02*
X5410400Y3215960D01*
X5415480Y4334666D02*
X5455480Y4294666D01*
X5455480Y4334666D02*
X5415480Y4294666D01*
X5431037Y6215128D02*
X5471037Y6175128D01*
X5471037Y6215128D02*
X5431037Y6175128D01*
X5479297Y6824728D02*
X5519297Y6784728D01*
X5519297Y6824728D02*
X5479297Y6784728D01*
X5499300Y4334666D02*
X5539300Y4294666D01*
X5539300Y4334666D02*
X5499300Y4294666D01*
X5499300Y4002720D02*
X5539300Y3962720D01*
X5539300Y4002720D02*
X5499300Y3962720D01*
X5499300Y1607500D02*
X5539300Y1567500D01*
X5539300Y1607500D02*
X5499300Y1567500D01*
X5509777Y5509008D02*
X5549777Y5469008D01*
X5549777Y5509008D02*
X5509777Y5469008D01*
X5519937Y6044948D02*
X5559937Y6004948D01*
X5559937Y6044948D02*
X5519937Y6004948D01*
X5607587Y8090085D02*
X5647587Y8050085D01*
X5647587Y8090085D02*
X5607587Y8050085D01*
X5611377Y9141208D02*
X5651377Y9101208D01*
X5651377Y9141208D02*
X5611377Y9101208D01*
X5613917Y8904988D02*
X5653917Y8864988D01*
X5653917Y8904988D02*
X5613917Y8864988D01*
X5616140Y4334666D02*
X5656140Y4294666D01*
X5656140Y4334666D02*
X5616140Y4294666D01*
X5623760Y4673280D02*
X5663760Y4633280D01*
X5663760Y4673280D02*
X5623760Y4633280D01*
X5626300Y4005260D02*
X5666300Y3965260D01*
X5666300Y4005260D02*
X5626300Y3965260D01*
X5652017Y8409688D02*
X5692017Y8369688D01*
X5692017Y8409688D02*
X5652017Y8369688D01*
X5679569Y6723128D02*
X5719569Y6683128D01*
X5719569Y6723128D02*
X5679569Y6683128D01*
X5679640Y3240720D02*
X5719640Y3200720D01*
X5719640Y3240720D02*
X5679640Y3200720D01*
X5694880Y2961320D02*
X5734880Y2921320D01*
X5734880Y2961320D02*
X5694880Y2921320D01*
X5694880Y2397440D02*
X5734880Y2357440D01*
X5734880Y2397440D02*
X5694880Y2357440D01*
X5694880Y2123120D02*
X5734880Y2083120D01*
X5734880Y2123120D02*
X5694880Y2083120D01*
X5699960Y2681920D02*
X5739960Y2641920D01*
X5739960Y2681920D02*
X5699960Y2641920D01*
X5699960Y1828480D02*
X5739960Y1788480D01*
X5739960Y1828480D02*
X5699960Y1788480D01*
X5707580Y4335460D02*
X5747580Y4295460D01*
X5747580Y4335460D02*
X5707580Y4295460D01*
X5710120Y1955480D02*
X5750120Y1915480D01*
X5750120Y1955480D02*
X5710120Y1915480D01*
X5720280Y3062920D02*
X5760280Y3022920D01*
X5760280Y3062920D02*
X5720280Y3022920D01*
X5725360Y4002720D02*
X5765360Y3962720D01*
X5765360Y4002720D02*
X5725360Y3962720D01*
X5725360Y2793680D02*
X5765360Y2753680D01*
X5765360Y2793680D02*
X5725360Y2753680D01*
X5725360Y1676080D02*
X5765360Y1636080D01*
X5765360Y1676080D02*
X5725360Y1636080D01*
X5735520Y2529520D02*
X5775520Y2489520D01*
X5775520Y2529520D02*
X5735520Y2489520D01*
X5735520Y2255200D02*
X5775520Y2215200D01*
X5775520Y2255200D02*
X5735520Y2215200D01*
X5740600Y1345880D02*
X5780600Y1305880D01*
X5780600Y1345880D02*
X5740600Y1305880D01*
X5758380Y865820D02*
X5798380Y825820D01*
X5798380Y865820D02*
X5758380Y825820D01*
X5769417Y7055975D02*
X5809417Y7015975D01*
X5809417Y7055975D02*
X5769417Y7015975D01*
X5769417Y6930975D02*
X5809417Y6890975D01*
X5809417Y6930975D02*
X5769417Y6890975D01*
X5811720Y3423600D02*
X5851720Y3383600D01*
X5851720Y3423600D02*
X5811720Y3383600D01*
X5831917Y6667248D02*
X5871917Y6627248D01*
X5871917Y6667248D02*
X5831917Y6627248D01*
X5834897Y7845808D02*
X5874897Y7805808D01*
X5874897Y7845808D02*
X5834897Y7805808D01*
X5835417Y6589848D02*
X5875417Y6549848D01*
X5875417Y6589848D02*
X5835417Y6549848D01*
X5849785Y6365330D02*
X5889785Y6325330D01*
X5889785Y6365330D02*
X5849785Y6325330D01*
X5850137Y9120888D02*
X5890137Y9080888D01*
X5890137Y9120888D02*
X5850137Y9080888D01*
X5865377Y8882128D02*
X5905377Y8842128D01*
X5905377Y8882128D02*
X5865377Y8842128D01*
X5894417Y7055975D02*
X5934417Y7015975D01*
X5934417Y7055975D02*
X5894417Y7015975D01*
X5894417Y6930975D02*
X5934417Y6890975D01*
X5934417Y6930975D02*
X5894417Y6890975D01*
X5908557Y7327648D02*
X5948557Y7287648D01*
X5948557Y7327648D02*
X5908557Y7287648D01*
X5982217Y5199128D02*
X6022217Y5159128D01*
X6022217Y5199128D02*
X5982217Y5159128D01*
X5990997Y8334648D02*
X6030997Y8294648D01*
X6030997Y8334648D02*
X5990997Y8294648D01*
X6007617Y8084568D02*
X6047617Y8044568D01*
X6047617Y8084568D02*
X6007617Y8044568D01*
X6028755Y6729661D02*
X6068755Y6689661D01*
X6068755Y6729661D02*
X6028755Y6689661D01*
X6055877Y8494648D02*
X6095877Y8454648D01*
X6095877Y8494648D02*
X6055877Y8454648D01*
X6121600Y3499800D02*
X6161600Y3459800D01*
X6161600Y3499800D02*
X6121600Y3459800D01*
X6197800Y3885880D02*
X6237800Y3845880D01*
X6237800Y3885880D02*
X6197800Y3845880D01*
X6206856Y8733048D02*
X6246856Y8693048D01*
X6246856Y8733048D02*
X6206856Y8693048D01*
X6246377Y6646928D02*
X6286377Y6606928D01*
X6286377Y6646928D02*
X6246377Y6606928D01*
X6248917Y8183628D02*
X6288917Y8143628D01*
X6288917Y8183628D02*
X6248917Y8143628D01*
X6307337Y8922768D02*
X6347337Y8882768D01*
X6347337Y8922768D02*
X6307337Y8882768D01*
X6312417Y9110728D02*
X6352417Y9070728D01*
X6352417Y9110728D02*
X6312417Y9070728D01*
X6317497Y6342128D02*
X6357497Y6302128D01*
X6357497Y6342128D02*
X6317497Y6302128D01*
X6342897Y5864608D02*
X6382897Y5824608D01*
X6382897Y5864608D02*
X6342897Y5824608D01*
X6358137Y8724648D02*
X6398137Y8684648D01*
X6398137Y8724648D02*
X6358137Y8684648D01*
X6414017Y5214368D02*
X6454017Y5174368D01*
X6454017Y5214368D02*
X6414017Y5174368D01*
X6746040Y4825680D02*
X6786040Y4785680D01*
X6786040Y4825680D02*
X6746040Y4785680D01*
X6801920Y1315400D02*
X6841920Y1275400D01*
X6841920Y1315400D02*
X6801920Y1275400D01*
X6817160Y4175440D02*
X6857160Y4135440D01*
X6857160Y4175440D02*
X6817160Y4135440D01*
X6842560Y3697920D02*
X6882560Y3657920D01*
X6882560Y3697920D02*
X6842560Y3657920D01*
X6847640Y929320D02*
X6887640Y889320D01*
X6887640Y929320D02*
X6847640Y889320D01*
X6852720Y1117280D02*
X6892720Y1077280D01*
X6892720Y1117280D02*
X6852720Y1077280D01*
X6911140Y1856420D02*
X6951140Y1816420D01*
X6951140Y1856420D02*
X6911140Y1816420D01*
X6913680Y3393120D02*
X6953680Y3353120D01*
X6953680Y3393120D02*
X6913680Y3353120D01*
X6953200Y1307000D02*
X6993200Y1267000D01*
X6993200Y1307000D02*
X6953200Y1267000D01*
X6962257Y6154168D02*
X7002257Y6114168D01*
X7002257Y6154168D02*
X6962257Y6114168D01*
X7038457Y6540248D02*
X7078457Y6500248D01*
X7078457Y6540248D02*
X7038457Y6500248D01*
X7104180Y1545400D02*
X7144180Y1505400D01*
X7144180Y1545400D02*
X7104180Y1505400D01*
X7131301Y3310387D02*
X7171301Y3270387D01*
X7171301Y3310387D02*
X7131301Y3270387D01*
X7152440Y1955480D02*
X7192440Y1915480D01*
X7192440Y1955480D02*
X7152440Y1915480D01*
X7169060Y1705400D02*
X7209060Y1665400D01*
X7209060Y1705400D02*
X7169060Y1665400D01*
X7177840Y4840920D02*
X7217840Y4800920D01*
X7217840Y4840920D02*
X7177840Y4800920D01*
X7251500Y2712400D02*
X7291500Y2672400D01*
X7291500Y2712400D02*
X7251500Y2672400D01*
X7265640Y3109072D02*
X7305640Y3069072D01*
X7305640Y3109072D02*
X7265640Y3069072D01*
X7265640Y2984072D02*
X7305640Y2944072D01*
X7305640Y2984072D02*
X7265640Y2944072D01*
X7294680Y1157920D02*
X7334680Y1117920D01*
X7334680Y1157920D02*
X7294680Y1117920D01*
X7309920Y919160D02*
X7349920Y879160D01*
X7349920Y919160D02*
X7309920Y879160D01*
X7310271Y3674717D02*
X7350271Y3634717D01*
X7350271Y3674717D02*
X7310271Y3634717D01*
X7324640Y3450200D02*
X7364640Y3410200D01*
X7364640Y3450200D02*
X7324640Y3410200D01*
X7325160Y2194240D02*
X7365160Y2154240D01*
X7365160Y2194240D02*
X7325160Y2154240D01*
X7328140Y3372800D02*
X7368140Y3332800D01*
X7368140Y3372800D02*
X7328140Y3332800D01*
X7348337Y6616448D02*
X7388337Y6576448D01*
X7388337Y6616448D02*
X7348337Y6576448D01*
X7390640Y3109072D02*
X7430640Y3069072D01*
X7430640Y3109072D02*
X7390640Y3069072D01*
X7390640Y2984072D02*
X7430640Y2944072D01*
X7430640Y2984072D02*
X7390640Y2944072D01*
X7401677Y9174228D02*
X7441677Y9134228D01*
X7441677Y9174228D02*
X7401677Y9134228D01*
X7419457Y8694168D02*
X7459457Y8654168D01*
X7459457Y8694168D02*
X7419457Y8654168D01*
X7424537Y7784848D02*
X7464537Y7744848D01*
X7464537Y7784848D02*
X7424537Y7744848D01*
X7424537Y7510528D02*
X7464537Y7470528D01*
X7464537Y7510528D02*
X7424537Y7470528D01*
X7434697Y8363968D02*
X7474697Y8323968D01*
X7474697Y8363968D02*
X7434697Y8323968D01*
X7434697Y7246368D02*
X7474697Y7206368D01*
X7474697Y7246368D02*
X7434697Y7206368D01*
X7434697Y6037328D02*
X7474697Y5997328D01*
X7474697Y6037328D02*
X7434697Y5997328D01*
X7439777Y6977128D02*
X7479777Y6937128D01*
X7479777Y6977128D02*
X7439777Y6937128D01*
X7449937Y8084568D02*
X7489937Y8044568D01*
X7489937Y8084568D02*
X7449937Y8044568D01*
X7452477Y5704588D02*
X7492477Y5664588D01*
X7492477Y5704588D02*
X7452477Y5664588D01*
X7460097Y8211568D02*
X7500097Y8171568D01*
X7500097Y8211568D02*
X7460097Y8171568D01*
X7460097Y7358128D02*
X7500097Y7318128D01*
X7500097Y7358128D02*
X7460097Y7318128D01*
X7465177Y7916928D02*
X7505177Y7876928D01*
X7505177Y7916928D02*
X7465177Y7876928D01*
X7465177Y7642608D02*
X7505177Y7602608D01*
X7505177Y7642608D02*
X7465177Y7602608D01*
X7465177Y7078728D02*
X7505177Y7038728D01*
X7505177Y7078728D02*
X7465177Y7038728D01*
X7480417Y6799328D02*
X7520417Y6759328D01*
X7520417Y6799328D02*
X7480417Y6759328D01*
X7480488Y3316920D02*
X7520488Y3276920D01*
X7520488Y3316920D02*
X7480488Y3276920D01*
X7508040Y1630360D02*
X7548040Y1590360D01*
X7548040Y1630360D02*
X7508040Y1590360D01*
X7533757Y6034788D02*
X7573757Y5994788D01*
X7573757Y6034788D02*
X7533757Y5994788D01*
X7536297Y5366768D02*
X7576297Y5326768D01*
X7576297Y5366768D02*
X7536297Y5326768D01*
X7543917Y5705382D02*
X7583917Y5665382D01*
X7583917Y5705382D02*
X7543917Y5665382D01*
X7546140Y1135060D02*
X7586140Y1095060D01*
X7586140Y1135060D02*
X7546140Y1095060D01*
X7548680Y898840D02*
X7588680Y858840D01*
X7588680Y898840D02*
X7548680Y858840D01*
X7552469Y1949963D02*
X7592469Y1909963D01*
X7592469Y1949963D02*
X7552469Y1909963D01*
X7640120Y3995100D02*
X7680120Y3955100D01*
X7680120Y3995100D02*
X7640120Y3955100D01*
X7650280Y4531040D02*
X7690280Y4491040D01*
X7690280Y4531040D02*
X7650280Y4491040D01*
X7660757Y8432548D02*
X7700757Y8392548D01*
X7700757Y8432548D02*
X7660757Y8392548D01*
X7660757Y6037328D02*
X7700757Y5997328D01*
X7700757Y6037328D02*
X7660757Y5997328D01*
X7660757Y5705382D02*
X7700757Y5665382D01*
X7700757Y5705382D02*
X7660757Y5665382D01*
X7680760Y3215320D02*
X7720760Y3175320D01*
X7720760Y3215320D02*
X7680760Y3175320D01*
X7729020Y3824920D02*
X7769020Y3784920D01*
X7769020Y3824920D02*
X7729020Y3784920D01*
X7744577Y5705382D02*
X7784577Y5665382D01*
X7784577Y5705382D02*
X7744577Y5665382D01*
X7749657Y6784088D02*
X7789657Y6744088D01*
X7789657Y6784088D02*
X7749657Y6744088D01*
X7750961Y788899D02*
X7790961Y748899D01*
X7790961Y788899D02*
X7750961Y748899D01*
X7754737Y6037328D02*
X7794737Y5997328D01*
X7794737Y6037328D02*
X7754737Y5997328D01*
X7767120Y4825680D02*
X7807120Y4785680D01*
X7807120Y4825680D02*
X7767120Y4785680D01*
X7767120Y3220400D02*
X7807120Y3180400D01*
X7807120Y3220400D02*
X7767120Y3180400D01*
X7777280Y1711640D02*
X7817280Y1671640D01*
X7817280Y1711640D02*
X7777280Y1671640D01*
X7793560Y5501181D02*
X7833560Y5461181D01*
X7833560Y5501181D02*
X7793560Y5461181D01*
X7795377Y6596128D02*
X7835377Y6556128D01*
X7835377Y6596128D02*
X7795377Y6556128D01*
X7795377Y6367528D02*
X7835377Y6327528D01*
X7835377Y6367528D02*
X7795377Y6327528D01*
X7815697Y9349488D02*
X7855697Y9309488D01*
X7855697Y9349488D02*
X7815697Y9309488D01*
X7825540Y825180D02*
X7865540Y785180D01*
X7865540Y825180D02*
X7825540Y785180D01*
X7856337Y7850888D02*
X7896337Y7810888D01*
X7896337Y7850888D02*
X7856337Y7810888D01*
X7885196Y8686328D02*
X7925196Y8646328D01*
X7925196Y8686328D02*
X7885196Y8646328D01*
X7896977Y8084568D02*
X7936977Y8044568D01*
X7936977Y8084568D02*
X7896977Y8044568D01*
X7909360Y3550600D02*
X7949360Y3510600D01*
X7949360Y3550600D02*
X7909360Y3510600D01*
X7929680Y705800D02*
X7969680Y665800D01*
X7969680Y705800D02*
X7929680Y665800D01*
X7932220Y4439600D02*
X7972220Y4399600D01*
X7972220Y4439600D02*
X7932220Y4399600D01*
X7955080Y1782760D02*
X7995080Y1742760D01*
X7995080Y1782760D02*
X7955080Y1742760D01*
X7978257Y8308088D02*
X8018257Y8268088D01*
X8018257Y8308088D02*
X7978257Y8268088D01*
X8018580Y4127180D02*
X8058580Y4087180D01*
X8058580Y4127180D02*
X8018580Y4087180D01*
X8033839Y3918881D02*
X8073839Y3878881D01*
X8073839Y3918881D02*
X8033839Y3878881D01*
X8036360Y4241480D02*
X8076360Y4201480D01*
X8076360Y4241480D02*
X8036360Y4201480D01*
X8038900Y4183060D02*
X8078900Y4143060D01*
X8078900Y4183060D02*
X8038900Y4143060D01*
X8039217Y7855968D02*
X8079217Y7815968D01*
X8079217Y7855968D02*
X8039217Y7815968D01*
X8084620Y3217860D02*
X8124620Y3177860D01*
X8124620Y3217860D02*
X8084620Y3177860D01*
X8092240Y3426140D02*
X8132240Y3386140D01*
X8132240Y3426140D02*
X8092240Y3386140D01*
X8099796Y4122287D02*
X8139796Y4082287D01*
X8139796Y4122287D02*
X8099796Y4082287D01*
X8102400Y4818060D02*
X8142400Y4778060D01*
X8142400Y4818060D02*
X8102400Y4778060D01*
X8102400Y4713920D02*
X8142400Y4673920D01*
X8142400Y4713920D02*
X8102400Y4673920D01*
X8107480Y4602160D02*
X8147480Y4562160D01*
X8147480Y4602160D02*
X8107480Y4562160D01*
X8112560Y4244766D02*
X8152560Y4204766D01*
X8152560Y4244766D02*
X8112560Y4204766D01*
X8125577Y9105648D02*
X8165577Y9065648D01*
X8165577Y9105648D02*
X8125577Y9065648D01*
X8148120Y2951160D02*
X8188120Y2911160D01*
X8188120Y2951160D02*
X8148120Y2911160D01*
X8148423Y4119760D02*
X8188423Y4079760D01*
X8188423Y4119760D02*
X8148423Y4079760D01*
X8148437Y5796028D02*
X8188437Y5756028D01*
X8188437Y5796028D02*
X8148437Y5756028D01*
X8155740Y4244020D02*
X8195740Y4204020D01*
X8195740Y4244020D02*
X8155740Y4204020D01*
X8156057Y5923028D02*
X8196057Y5883028D01*
X8196057Y5923028D02*
X8156057Y5883028D01*
X8178600Y2209480D02*
X8218600Y2169480D01*
X8218600Y2209480D02*
X8178600Y2169480D01*
X8181457Y7830568D02*
X8221457Y7790568D01*
X8221457Y7830568D02*
X8181457Y7790568D01*
X8204000Y4117020D02*
X8244000Y4077020D01*
X8244000Y4117020D02*
X8204000Y4077020D01*
X8204317Y5796028D02*
X8244317Y5756028D01*
X8244317Y5796028D02*
X8204317Y5756028D01*
X8211620Y4244020D02*
X8251620Y4204020D01*
X8251620Y4244020D02*
X8211620Y4204020D01*
X8211633Y5920287D02*
X8251633Y5880287D01*
X8251633Y5920287D02*
X8211633Y5880287D01*
X8211937Y7088888D02*
X8251937Y7048888D01*
X8251937Y7088888D02*
X8211937Y7048888D01*
X8234480Y934400D02*
X8274480Y894400D01*
X8274480Y934400D02*
X8234480Y894400D01*
X8247497Y5795282D02*
X8287497Y5755282D01*
X8287497Y5795282D02*
X8247497Y5755282D01*
X8252577Y5437888D02*
X8292577Y5397888D01*
X8292577Y5437888D02*
X8252577Y5397888D01*
X8257657Y5326128D02*
X8297657Y5286128D01*
X8297657Y5326128D02*
X8257657Y5286128D01*
X8257657Y5221988D02*
X8297657Y5181988D01*
X8297657Y5221988D02*
X8257657Y5181988D01*
X8260261Y5917761D02*
X8300261Y5877761D01*
X8300261Y5917761D02*
X8260261Y5877761D01*
X8267817Y6613908D02*
X8307817Y6573908D01*
X8307817Y6613908D02*
X8267817Y6573908D01*
X8275437Y6822188D02*
X8315437Y6782188D01*
X8315437Y6822188D02*
X8275437Y6782188D01*
X8320840Y2184080D02*
X8360840Y2144080D01*
X8360840Y2184080D02*
X8320840Y2144080D01*
X8321157Y5856988D02*
X8361157Y5816988D01*
X8361157Y5856988D02*
X8321157Y5816988D01*
X8323697Y5798568D02*
X8363697Y5758568D01*
X8363697Y5798568D02*
X8323697Y5758568D01*
X8326217Y6121167D02*
X8366217Y6081167D01*
X8366217Y6121167D02*
X8326217Y6081167D01*
X8341477Y5912868D02*
X8381477Y5872868D01*
X8381477Y5912868D02*
X8341477Y5872868D01*
X8381800Y1731960D02*
X8421800Y1691960D01*
X8421800Y1731960D02*
X8381800Y1691960D01*
X8404977Y8257288D02*
X8444977Y8217288D01*
X8444977Y8257288D02*
X8404977Y8217288D01*
X8427837Y5600448D02*
X8467837Y5560448D01*
X8467837Y5600448D02*
X8427837Y5560448D01*
X8430377Y9334248D02*
X8470377Y9294248D01*
X8470377Y9334248D02*
X8430377Y9294248D01*
X8450697Y6489448D02*
X8490697Y6449448D01*
X8490697Y6489448D02*
X8450697Y6449448D01*
X8463080Y1955480D02*
X8503080Y1915480D01*
X8503080Y1955480D02*
X8463080Y1915480D01*
X8474861Y1353719D02*
X8514861Y1313719D01*
X8514861Y1353719D02*
X8474861Y1313719D01*
X8503720Y2189160D02*
X8543720Y2149160D01*
X8543720Y2189160D02*
X8503720Y2149160D01*
X8534517Y9214868D02*
X8574517Y9174868D01*
X8574517Y9214868D02*
X8534517Y9174868D01*
X8544360Y690560D02*
X8584360Y650560D01*
X8584360Y690560D02*
X8544360Y650560D01*
X8564680Y3672520D02*
X8604680Y3632520D01*
X8604680Y3672520D02*
X8564680Y3632520D01*
X8564680Y3443920D02*
X8604680Y3403920D01*
X8604680Y3443920D02*
X8564680Y3403920D01*
X8566496Y4538867D02*
X8606496Y4498867D01*
X8606496Y4538867D02*
X8566496Y4498867D01*
X8582777Y8328408D02*
X8622777Y8288408D01*
X8622777Y8328408D02*
X8582777Y8288408D01*
X8592937Y6819648D02*
X8632937Y6779648D01*
X8632937Y6819648D02*
X8592937Y6779648D01*
X8592937Y5214368D02*
X8632937Y5174368D01*
X8632937Y5214368D02*
X8592937Y5174368D01*
X8605320Y4002720D02*
X8645320Y3962720D01*
X8645320Y4002720D02*
X8605320Y3962720D01*
X8609096Y9251149D02*
X8649096Y9211149D01*
X8649096Y9251149D02*
X8609096Y9211149D01*
X8610400Y3255960D02*
X8650400Y3215960D01*
X8650400Y3255960D02*
X8610400Y3215960D01*
X8615480Y4334666D02*
X8655480Y4294666D01*
X8655480Y4334666D02*
X8615480Y4294666D01*
X8631037Y6215128D02*
X8671037Y6175128D01*
X8671037Y6215128D02*
X8631037Y6175128D01*
X8679297Y6824728D02*
X8719297Y6784728D01*
X8719297Y6824728D02*
X8679297Y6784728D01*
X8699300Y4334666D02*
X8739300Y4294666D01*
X8739300Y4334666D02*
X8699300Y4294666D01*
X8699300Y4002720D02*
X8739300Y3962720D01*
X8739300Y4002720D02*
X8699300Y3962720D01*
X8699300Y1607500D02*
X8739300Y1567500D01*
X8739300Y1607500D02*
X8699300Y1567500D01*
X8709777Y5509008D02*
X8749777Y5469008D01*
X8749777Y5509008D02*
X8709777Y5469008D01*
X8719937Y6044948D02*
X8759937Y6004948D01*
X8759937Y6044948D02*
X8719937Y6004948D01*
X8807587Y8090085D02*
X8847587Y8050085D01*
X8847587Y8090085D02*
X8807587Y8050085D01*
X8811377Y9141208D02*
X8851377Y9101208D01*
X8851377Y9141208D02*
X8811377Y9101208D01*
X8813917Y8904988D02*
X8853917Y8864988D01*
X8853917Y8904988D02*
X8813917Y8864988D01*
X8816140Y4334666D02*
X8856140Y4294666D01*
X8856140Y4334666D02*
X8816140Y4294666D01*
X8823760Y4673280D02*
X8863760Y4633280D01*
X8863760Y4673280D02*
X8823760Y4633280D01*
X8826300Y4005260D02*
X8866300Y3965260D01*
X8866300Y4005260D02*
X8826300Y3965260D01*
X8852017Y8409688D02*
X8892017Y8369688D01*
X8892017Y8409688D02*
X8852017Y8369688D01*
X8879569Y6723128D02*
X8919569Y6683128D01*
X8919569Y6723128D02*
X8879569Y6683128D01*
X8879640Y3240720D02*
X8919640Y3200720D01*
X8919640Y3240720D02*
X8879640Y3200720D01*
X8894880Y2961320D02*
X8934880Y2921320D01*
X8934880Y2961320D02*
X8894880Y2921320D01*
X8894880Y2397440D02*
X8934880Y2357440D01*
X8934880Y2397440D02*
X8894880Y2357440D01*
X8894880Y2123120D02*
X8934880Y2083120D01*
X8934880Y2123120D02*
X8894880Y2083120D01*
X8899960Y2681920D02*
X8939960Y2641920D01*
X8939960Y2681920D02*
X8899960Y2641920D01*
X8899960Y1828480D02*
X8939960Y1788480D01*
X8939960Y1828480D02*
X8899960Y1788480D01*
X8907580Y4335460D02*
X8947580Y4295460D01*
X8947580Y4335460D02*
X8907580Y4295460D01*
X8910120Y1955480D02*
X8950120Y1915480D01*
X8950120Y1955480D02*
X8910120Y1915480D01*
X8920280Y3062920D02*
X8960280Y3022920D01*
X8960280Y3062920D02*
X8920280Y3022920D01*
X8925360Y4002720D02*
X8965360Y3962720D01*
X8965360Y4002720D02*
X8925360Y3962720D01*
X8925360Y2793680D02*
X8965360Y2753680D01*
X8965360Y2793680D02*
X8925360Y2753680D01*
X8925360Y1676080D02*
X8965360Y1636080D01*
X8965360Y1676080D02*
X8925360Y1636080D01*
X8935520Y2529520D02*
X8975520Y2489520D01*
X8975520Y2529520D02*
X8935520Y2489520D01*
X8935520Y2255200D02*
X8975520Y2215200D01*
X8975520Y2255200D02*
X8935520Y2215200D01*
X8940600Y1345880D02*
X8980600Y1305880D01*
X8980600Y1345880D02*
X8940600Y1305880D01*
X8958380Y865820D02*
X8998380Y825820D01*
X8998380Y865820D02*
X8958380Y825820D01*
X8969417Y7055975D02*
X9009417Y7015975D01*
X9009417Y7055975D02*
X8969417Y7015975D01*
X8969417Y6930975D02*
X9009417Y6890975D01*
X9009417Y6930975D02*
X8969417Y6890975D01*
X9011720Y3423600D02*
X9051720Y3383600D01*
X9051720Y3423600D02*
X9011720Y3383600D01*
X9031917Y6667248D02*
X9071917Y6627248D01*
X9071917Y6667248D02*
X9031917Y6627248D01*
X9034897Y7845808D02*
X9074897Y7805808D01*
X9074897Y7845808D02*
X9034897Y7805808D01*
X9035417Y6589848D02*
X9075417Y6549848D01*
X9075417Y6589848D02*
X9035417Y6549848D01*
X9049785Y6365330D02*
X9089785Y6325330D01*
X9089785Y6365330D02*
X9049785Y6325330D01*
X9050137Y9120888D02*
X9090137Y9080888D01*
X9090137Y9120888D02*
X9050137Y9080888D01*
X9065377Y8882128D02*
X9105377Y8842128D01*
X9105377Y8882128D02*
X9065377Y8842128D01*
X9094417Y7055975D02*
X9134417Y7015975D01*
X9134417Y7055975D02*
X9094417Y7015975D01*
X9094417Y6930975D02*
X9134417Y6890975D01*
X9134417Y6930975D02*
X9094417Y6890975D01*
X9108557Y7327648D02*
X9148557Y7287648D01*
X9148557Y7327648D02*
X9108557Y7287648D01*
X9182217Y5199128D02*
X9222217Y5159128D01*
X9222217Y5199128D02*
X9182217Y5159128D01*
X9190997Y8334648D02*
X9230997Y8294648D01*
X9230997Y8334648D02*
X9190997Y8294648D01*
X9207617Y8084568D02*
X9247617Y8044568D01*
X9247617Y8084568D02*
X9207617Y8044568D01*
X9228755Y6729661D02*
X9268755Y6689661D01*
X9268755Y6729661D02*
X9228755Y6689661D01*
X9255877Y8494648D02*
X9295877Y8454648D01*
X9295877Y8494648D02*
X9255877Y8454648D01*
X9321600Y3499800D02*
X9361600Y3459800D01*
X9361600Y3499800D02*
X9321600Y3459800D01*
X9397800Y3885880D02*
X9437800Y3845880D01*
X9437800Y3885880D02*
X9397800Y3845880D01*
X9406856Y8733048D02*
X9446856Y8693048D01*
X9446856Y8733048D02*
X9406856Y8693048D01*
X9446377Y6646928D02*
X9486377Y6606928D01*
X9486377Y6646928D02*
X9446377Y6606928D01*
X9448917Y8183628D02*
X9488917Y8143628D01*
X9488917Y8183628D02*
X9448917Y8143628D01*
X9507337Y8922768D02*
X9547337Y8882768D01*
X9547337Y8922768D02*
X9507337Y8882768D01*
X9512417Y9110728D02*
X9552417Y9070728D01*
X9552417Y9110728D02*
X9512417Y9070728D01*
X9517497Y6342128D02*
X9557497Y6302128D01*
X9557497Y6342128D02*
X9517497Y6302128D01*
X9542897Y5864608D02*
X9582897Y5824608D01*
X9582897Y5864608D02*
X9542897Y5824608D01*
X9558137Y8724648D02*
X9598137Y8684648D01*
X9598137Y8724648D02*
X9558137Y8684648D01*
X9614017Y5214368D02*
X9654017Y5174368D01*
X9654017Y5214368D02*
X9614017Y5174368D01*
X1095700Y500400D02*
G75*
G03X1095700Y500400I-38100J0D01*
G01*
X1095700Y246400D02*
G75*
G03X1095700Y246400I-38100J0D01*
G01*
X1349700Y500400D02*
G75*
G03X1349700Y500400I-38100J0D01*
G01*
X1349700Y246400D02*
G75*
G03X1349700Y246400I-38100J0D01*
G01*
X1603700Y500400D02*
G75*
G03X1603700Y500400I-38100J0D01*
G01*
X1603700Y246400D02*
G75*
G03X1603700Y246400I-38100J0D01*
G01*
X1818557Y9753648D02*
G75*
G03X1818557Y9753648I-38100J0D01*
G01*
X1818557Y9499648D02*
G75*
G03X1818557Y9499648I-38100J0D01*
G01*
X1857700Y500400D02*
G75*
G03X1857700Y500400I-38100J0D01*
G01*
X1857700Y246400D02*
G75*
G03X1857700Y246400I-38100J0D01*
G01*
X2072557Y9753648D02*
G75*
G03X2072557Y9753648I-38100J0D01*
G01*
X2072557Y9499648D02*
G75*
G03X2072557Y9499648I-38100J0D01*
G01*
X2326557Y9753648D02*
G75*
G03X2326557Y9753648I-38100J0D01*
G01*
X2326557Y9499648D02*
G75*
G03X2326557Y9499648I-38100J0D01*
G01*
X2580557Y9753648D02*
G75*
G03X2580557Y9753648I-38100J0D01*
G01*
X2580557Y9499648D02*
G75*
G03X2580557Y9499648I-38100J0D01*
G01*
X4295700Y500400D02*
G75*
G03X4295700Y500400I-38100J0D01*
G01*
X4295700Y246400D02*
G75*
G03X4295700Y246400I-38100J0D01*
G01*
X4549700Y500400D02*
G75*
G03X4549700Y500400I-38100J0D01*
G01*
X4549700Y246400D02*
G75*
G03X4549700Y246400I-38100J0D01*
G01*
X4803700Y500400D02*
G75*
G03X4803700Y500400I-38100J0D01*
G01*
X4803700Y246400D02*
G75*
G03X4803700Y246400I-38100J0D01*
G01*
X5018557Y9753648D02*
G75*
G03X5018557Y9753648I-38100J0D01*
G01*
X5018557Y9499648D02*
G75*
G03X5018557Y9499648I-38100J0D01*
G01*
X5057700Y500400D02*
G75*
G03X5057700Y500400I-38100J0D01*
G01*
X5057700Y246400D02*
G75*
G03X5057700Y246400I-38100J0D01*
G01*
X5272557Y9753648D02*
G75*
G03X5272557Y9753648I-38100J0D01*
G01*
X5272557Y9499648D02*
G75*
G03X5272557Y9499648I-38100J0D01*
G01*
X5526557Y9753648D02*
G75*
G03X5526557Y9753648I-38100J0D01*
G01*
X5526557Y9499648D02*
G75*
G03X5526557Y9499648I-38100J0D01*
G01*
X5780557Y9753648D02*
G75*
G03X5780557Y9753648I-38100J0D01*
G01*
X5780557Y9499648D02*
G75*
G03X5780557Y9499648I-38100J0D01*
G01*
X7495700Y500400D02*
G75*
G03X7495700Y500400I-38100J0D01*
G01*
X7495700Y246400D02*
G75*
G03X7495700Y246400I-38100J0D01*
G01*
X7749700Y500400D02*
G75*
G03X7749700Y500400I-38100J0D01*
G01*
X7749700Y246400D02*
G75*
G03X7749700Y246400I-38100J0D01*
G01*
X8003700Y500400D02*
G75*
G03X8003700Y500400I-38100J0D01*
G01*
X8003700Y246400D02*
G75*
G03X8003700Y246400I-38100J0D01*
G01*
X8218557Y9753648D02*
G75*
G03X8218557Y9753648I-38100J0D01*
G01*
X8218557Y9499648D02*
G75*
G03X8218557Y9499648I-38100J0D01*
G01*
X8257700Y500400D02*
G75*
G03X8257700Y500400I-38100J0D01*
G01*
X8257700Y246400D02*
G75*
G03X8257700Y246400I-38100J0D01*
G01*
X8472557Y9753648D02*
G75*
G03X8472557Y9753648I-38100J0D01*
G01*
X8472557Y9499648D02*
G75*
G03X8472557Y9499648I-38100J0D01*
G01*
X8726557Y9753648D02*
G75*
G03X8726557Y9753648I-38100J0D01*
G01*
X8726557Y9499648D02*
G75*
G03X8726557Y9499648I-38100J0D01*
G01*
X8980557Y9753648D02*
G75*
G03X8980557Y9753648I-38100J0D01*
G01*
X8980557Y9499648D02*
G75*
G03X8980557Y9499648I-38100J0D01*
G01*
X443457Y8180048D02*
X443457Y8078448D01*
X392657Y8129248D02*
X494257Y8129248D01*
X443457Y7926048D02*
X443457Y7824448D01*
X392657Y7875248D02*
X494257Y7875248D01*
X443457Y7672048D02*
X443457Y7570448D01*
X392657Y7621248D02*
X494257Y7621248D01*
X443457Y7418048D02*
X443457Y7316448D01*
X392657Y7367248D02*
X494257Y7367248D01*
X443457Y7164048D02*
X443457Y7062448D01*
X392657Y7113248D02*
X494257Y7113248D01*
X443457Y6910048D02*
X443457Y6808448D01*
X392657Y6859248D02*
X494257Y6859248D01*
X455257Y9822248D02*
X455257Y9720648D01*
X404457Y9771448D02*
X506057Y9771448D01*
X455257Y9568248D02*
X455257Y9466648D01*
X404457Y9517448D02*
X506057Y9517448D01*
X455257Y9314248D02*
X455257Y9212648D01*
X404457Y9263448D02*
X506057Y9263448D01*
X455457Y8841848D02*
X455457Y8740248D01*
X404657Y8791048D02*
X506257Y8791048D01*
X455457Y8587848D02*
X455457Y8486248D01*
X404657Y8537048D02*
X506257Y8537048D01*
X564160Y4765040D02*
X564160Y4663440D01*
X513360Y4714240D02*
X614960Y4714240D01*
X564160Y4511040D02*
X564160Y4409440D01*
X513360Y4460240D02*
X614960Y4460240D01*
X581257Y5847008D02*
X581257Y5745408D01*
X530457Y5796208D02*
X632057Y5796208D01*
X581257Y5593008D02*
X581257Y5491408D01*
X530457Y5542208D02*
X632057Y5542208D01*
X599800Y2667000D02*
X599800Y2565400D01*
X549000Y2616200D02*
X650600Y2616200D01*
X599800Y2413000D02*
X599800Y2311400D01*
X549000Y2362200D02*
X650600Y2362200D01*
X599800Y2159000D02*
X599800Y2057400D01*
X549000Y2108200D02*
X650600Y2108200D01*
X604800Y809200D02*
X604800Y707600D01*
X554000Y758400D02*
X655600Y758400D01*
X604800Y555200D02*
X604800Y453600D01*
X554000Y504400D02*
X655600Y504400D01*
X604800Y301200D02*
X604800Y199600D01*
X554000Y250400D02*
X655600Y250400D01*
X697457Y8180048D02*
X697457Y8078448D01*
X646657Y8129248D02*
X748257Y8129248D01*
X697457Y7926048D02*
X697457Y7824448D01*
X646657Y7875248D02*
X748257Y7875248D01*
X697457Y7672048D02*
X697457Y7570448D01*
X646657Y7621248D02*
X748257Y7621248D01*
X697457Y7418048D02*
X697457Y7316448D01*
X646657Y7367248D02*
X748257Y7367248D01*
X697457Y7164048D02*
X697457Y7062448D01*
X646657Y7113248D02*
X748257Y7113248D01*
X697457Y6910048D02*
X697457Y6808448D01*
X646657Y6859248D02*
X748257Y6859248D01*
X709257Y9822248D02*
X709257Y9720648D01*
X658457Y9771448D02*
X760057Y9771448D01*
X709257Y9568248D02*
X709257Y9466648D01*
X658457Y9517448D02*
X760057Y9517448D01*
X709257Y9314248D02*
X709257Y9212648D01*
X658457Y9263448D02*
X760057Y9263448D01*
X1046760Y4765040D02*
X1046760Y4663440D01*
X995960Y4714240D02*
X1097560Y4714240D01*
X1046760Y4511040D02*
X1046760Y4409440D01*
X995960Y4460240D02*
X1097560Y4460240D01*
X2553297Y5590608D02*
X2553297Y5489008D01*
X2502497Y5539808D02*
X2604097Y5539808D01*
X2553297Y5336608D02*
X2553297Y5235008D01*
X2502497Y5285808D02*
X2604097Y5285808D01*
X2890800Y787400D02*
X2890800Y685800D01*
X2840000Y736600D02*
X2941600Y736600D01*
X2890800Y533400D02*
X2890800Y431800D01*
X2840000Y482600D02*
X2941600Y482600D01*
X2890800Y279400D02*
X2890800Y177800D01*
X2840000Y228600D02*
X2941600Y228600D01*
X2902600Y3191600D02*
X2902600Y3090000D01*
X2851800Y3140800D02*
X2953400Y3140800D01*
X2902600Y2937600D02*
X2902600Y2836000D01*
X2851800Y2886800D02*
X2953400Y2886800D01*
X2902600Y2683600D02*
X2902600Y2582000D01*
X2851800Y2632800D02*
X2953400Y2632800D01*
X2902600Y2429600D02*
X2902600Y2328000D01*
X2851800Y2378800D02*
X2953400Y2378800D01*
X2902600Y2175600D02*
X2902600Y2074000D01*
X2851800Y2124800D02*
X2953400Y2124800D01*
X2902600Y1921600D02*
X2902600Y1820000D01*
X2851800Y1870800D02*
X2953400Y1870800D01*
X2995257Y9800448D02*
X2995257Y9698848D01*
X2944457Y9749648D02*
X3046057Y9749648D01*
X2995257Y9546448D02*
X2995257Y9444848D01*
X2944457Y9495648D02*
X3046057Y9495648D01*
X2995257Y9292448D02*
X2995257Y9190848D01*
X2944457Y9241648D02*
X3046057Y9241648D01*
X3000257Y7942648D02*
X3000257Y7841048D01*
X2949457Y7891848D02*
X3051057Y7891848D01*
X3000257Y7688648D02*
X3000257Y7587048D01*
X2949457Y7637848D02*
X3051057Y7637848D01*
X3000257Y7434648D02*
X3000257Y7333048D01*
X2949457Y7383848D02*
X3051057Y7383848D01*
X3018800Y4508640D02*
X3018800Y4407040D01*
X2968000Y4457840D02*
X3069600Y4457840D01*
X3018800Y4254640D02*
X3018800Y4153040D01*
X2968000Y4203840D02*
X3069600Y4203840D01*
X3035897Y5590608D02*
X3035897Y5489008D01*
X2985097Y5539808D02*
X3086697Y5539808D01*
X3035897Y5336608D02*
X3035897Y5235008D01*
X2985097Y5285808D02*
X3086697Y5285808D01*
X3144600Y1513800D02*
X3144600Y1412200D01*
X3093800Y1463000D02*
X3195400Y1463000D01*
X3144600Y1259800D02*
X3144600Y1158200D01*
X3093800Y1209000D02*
X3195400Y1209000D01*
X3144800Y787400D02*
X3144800Y685800D01*
X3094000Y736600D02*
X3195600Y736600D01*
X3144800Y533400D02*
X3144800Y431800D01*
X3094000Y482600D02*
X3195600Y482600D01*
X3144800Y279400D02*
X3144800Y177800D01*
X3094000Y228600D02*
X3195600Y228600D01*
X3156600Y3191600D02*
X3156600Y3090000D01*
X3105800Y3140800D02*
X3207400Y3140800D01*
X3156600Y2937600D02*
X3156600Y2836000D01*
X3105800Y2886800D02*
X3207400Y2886800D01*
X3156600Y2683600D02*
X3156600Y2582000D01*
X3105800Y2632800D02*
X3207400Y2632800D01*
X3156600Y2429600D02*
X3156600Y2328000D01*
X3105800Y2378800D02*
X3207400Y2378800D01*
X3156600Y2175600D02*
X3156600Y2074000D01*
X3105800Y2124800D02*
X3207400Y2124800D01*
X3156600Y1921600D02*
X3156600Y1820000D01*
X3105800Y1870800D02*
X3207400Y1870800D01*
X3643457Y8180048D02*
X3643457Y8078448D01*
X3592657Y8129248D02*
X3694257Y8129248D01*
X3643457Y7926048D02*
X3643457Y7824448D01*
X3592657Y7875248D02*
X3694257Y7875248D01*
X3643457Y7672048D02*
X3643457Y7570448D01*
X3592657Y7621248D02*
X3694257Y7621248D01*
X3643457Y7418048D02*
X3643457Y7316448D01*
X3592657Y7367248D02*
X3694257Y7367248D01*
X3643457Y7164048D02*
X3643457Y7062448D01*
X3592657Y7113248D02*
X3694257Y7113248D01*
X3643457Y6910048D02*
X3643457Y6808448D01*
X3592657Y6859248D02*
X3694257Y6859248D01*
X3655257Y9822248D02*
X3655257Y9720648D01*
X3604457Y9771448D02*
X3706057Y9771448D01*
X3655257Y9568248D02*
X3655257Y9466648D01*
X3604457Y9517448D02*
X3706057Y9517448D01*
X3655257Y9314248D02*
X3655257Y9212648D01*
X3604457Y9263448D02*
X3706057Y9263448D01*
X3655457Y8841848D02*
X3655457Y8740248D01*
X3604657Y8791048D02*
X3706257Y8791048D01*
X3655457Y8587848D02*
X3655457Y8486248D01*
X3604657Y8537048D02*
X3706257Y8537048D01*
X3764160Y4765040D02*
X3764160Y4663440D01*
X3713360Y4714240D02*
X3814960Y4714240D01*
X3764160Y4511040D02*
X3764160Y4409440D01*
X3713360Y4460240D02*
X3814960Y4460240D01*
X3781257Y5847008D02*
X3781257Y5745408D01*
X3730457Y5796208D02*
X3832057Y5796208D01*
X3781257Y5593008D02*
X3781257Y5491408D01*
X3730457Y5542208D02*
X3832057Y5542208D01*
X3799800Y2667000D02*
X3799800Y2565400D01*
X3749000Y2616200D02*
X3850600Y2616200D01*
X3799800Y2413000D02*
X3799800Y2311400D01*
X3749000Y2362200D02*
X3850600Y2362200D01*
X3799800Y2159000D02*
X3799800Y2057400D01*
X3749000Y2108200D02*
X3850600Y2108200D01*
X3804800Y809200D02*
X3804800Y707600D01*
X3754000Y758400D02*
X3855600Y758400D01*
X3804800Y555200D02*
X3804800Y453600D01*
X3754000Y504400D02*
X3855600Y504400D01*
X3804800Y301200D02*
X3804800Y199600D01*
X3754000Y250400D02*
X3855600Y250400D01*
X3897457Y8180048D02*
X3897457Y8078448D01*
X3846657Y8129248D02*
X3948257Y8129248D01*
X3897457Y7926048D02*
X3897457Y7824448D01*
X3846657Y7875248D02*
X3948257Y7875248D01*
X3897457Y7672048D02*
X3897457Y7570448D01*
X3846657Y7621248D02*
X3948257Y7621248D01*
X3897457Y7418048D02*
X3897457Y7316448D01*
X3846657Y7367248D02*
X3948257Y7367248D01*
X3897457Y7164048D02*
X3897457Y7062448D01*
X3846657Y7113248D02*
X3948257Y7113248D01*
X3897457Y6910048D02*
X3897457Y6808448D01*
X3846657Y6859248D02*
X3948257Y6859248D01*
X3909257Y9822248D02*
X3909257Y9720648D01*
X3858457Y9771448D02*
X3960057Y9771448D01*
X3909257Y9568248D02*
X3909257Y9466648D01*
X3858457Y9517448D02*
X3960057Y9517448D01*
X3909257Y9314248D02*
X3909257Y9212648D01*
X3858457Y9263448D02*
X3960057Y9263448D01*
X4246760Y4765040D02*
X4246760Y4663440D01*
X4195960Y4714240D02*
X4297560Y4714240D01*
X4246760Y4511040D02*
X4246760Y4409440D01*
X4195960Y4460240D02*
X4297560Y4460240D01*
X5753297Y5590608D02*
X5753297Y5489008D01*
X5702497Y5539808D02*
X5804097Y5539808D01*
X5753297Y5336608D02*
X5753297Y5235008D01*
X5702497Y5285808D02*
X5804097Y5285808D01*
X6090800Y787400D02*
X6090800Y685800D01*
X6040000Y736600D02*
X6141600Y736600D01*
X6090800Y533400D02*
X6090800Y431800D01*
X6040000Y482600D02*
X6141600Y482600D01*
X6090800Y279400D02*
X6090800Y177800D01*
X6040000Y228600D02*
X6141600Y228600D01*
X6102600Y3191600D02*
X6102600Y3090000D01*
X6051800Y3140800D02*
X6153400Y3140800D01*
X6102600Y2937600D02*
X6102600Y2836000D01*
X6051800Y2886800D02*
X6153400Y2886800D01*
X6102600Y2683600D02*
X6102600Y2582000D01*
X6051800Y2632800D02*
X6153400Y2632800D01*
X6102600Y2429600D02*
X6102600Y2328000D01*
X6051800Y2378800D02*
X6153400Y2378800D01*
X6102600Y2175600D02*
X6102600Y2074000D01*
X6051800Y2124800D02*
X6153400Y2124800D01*
X6102600Y1921600D02*
X6102600Y1820000D01*
X6051800Y1870800D02*
X6153400Y1870800D01*
X6195257Y9800448D02*
X6195257Y9698848D01*
X6144457Y9749648D02*
X6246057Y9749648D01*
X6195257Y9546448D02*
X6195257Y9444848D01*
X6144457Y9495648D02*
X6246057Y9495648D01*
X6195257Y9292448D02*
X6195257Y9190848D01*
X6144457Y9241648D02*
X6246057Y9241648D01*
X6200257Y7942648D02*
X6200257Y7841048D01*
X6149457Y7891848D02*
X6251057Y7891848D01*
X6200257Y7688648D02*
X6200257Y7587048D01*
X6149457Y7637848D02*
X6251057Y7637848D01*
X6200257Y7434648D02*
X6200257Y7333048D01*
X6149457Y7383848D02*
X6251057Y7383848D01*
X6218800Y4508640D02*
X6218800Y4407040D01*
X6168000Y4457840D02*
X6269600Y4457840D01*
X6218800Y4254640D02*
X6218800Y4153040D01*
X6168000Y4203840D02*
X6269600Y4203840D01*
X6235897Y5590608D02*
X6235897Y5489008D01*
X6185097Y5539808D02*
X6286697Y5539808D01*
X6235897Y5336608D02*
X6235897Y5235008D01*
X6185097Y5285808D02*
X6286697Y5285808D01*
X6344600Y1513800D02*
X6344600Y1412200D01*
X6293800Y1463000D02*
X6395400Y1463000D01*
X6344600Y1259800D02*
X6344600Y1158200D01*
X6293800Y1209000D02*
X6395400Y1209000D01*
X6344800Y787400D02*
X6344800Y685800D01*
X6294000Y736600D02*
X6395600Y736600D01*
X6344800Y533400D02*
X6344800Y431800D01*
X6294000Y482600D02*
X6395600Y482600D01*
X6344800Y279400D02*
X6344800Y177800D01*
X6294000Y228600D02*
X6395600Y228600D01*
X6356600Y3191600D02*
X6356600Y3090000D01*
X6305800Y3140800D02*
X6407400Y3140800D01*
X6356600Y2937600D02*
X6356600Y2836000D01*
X6305800Y2886800D02*
X6407400Y2886800D01*
X6356600Y2683600D02*
X6356600Y2582000D01*
X6305800Y2632800D02*
X6407400Y2632800D01*
X6356600Y2429600D02*
X6356600Y2328000D01*
X6305800Y2378800D02*
X6407400Y2378800D01*
X6356600Y2175600D02*
X6356600Y2074000D01*
X6305800Y2124800D02*
X6407400Y2124800D01*
X6356600Y1921600D02*
X6356600Y1820000D01*
X6305800Y1870800D02*
X6407400Y1870800D01*
X6843457Y8180048D02*
X6843457Y8078448D01*
X6792657Y8129248D02*
X6894257Y8129248D01*
X6843457Y7926048D02*
X6843457Y7824448D01*
X6792657Y7875248D02*
X6894257Y7875248D01*
X6843457Y7672048D02*
X6843457Y7570448D01*
X6792657Y7621248D02*
X6894257Y7621248D01*
X6843457Y7418048D02*
X6843457Y7316448D01*
X6792657Y7367248D02*
X6894257Y7367248D01*
X6843457Y7164048D02*
X6843457Y7062448D01*
X6792657Y7113248D02*
X6894257Y7113248D01*
X6843457Y6910048D02*
X6843457Y6808448D01*
X6792657Y6859248D02*
X6894257Y6859248D01*
X6855257Y9822248D02*
X6855257Y9720648D01*
X6804457Y9771448D02*
X6906057Y9771448D01*
X6855257Y9568248D02*
X6855257Y9466648D01*
X6804457Y9517448D02*
X6906057Y9517448D01*
X6855257Y9314248D02*
X6855257Y9212648D01*
X6804457Y9263448D02*
X6906057Y9263448D01*
X6855457Y8841848D02*
X6855457Y8740248D01*
X6804657Y8791048D02*
X6906257Y8791048D01*
X6855457Y8587848D02*
X6855457Y8486248D01*
X6804657Y8537048D02*
X6906257Y8537048D01*
X6964160Y4765040D02*
X6964160Y4663440D01*
X6913360Y4714240D02*
X7014960Y4714240D01*
X6964160Y4511040D02*
X6964160Y4409440D01*
X6913360Y4460240D02*
X7014960Y4460240D01*
X6981257Y5847008D02*
X6981257Y5745408D01*
X6930457Y5796208D02*
X7032057Y5796208D01*
X6981257Y5593008D02*
X6981257Y5491408D01*
X6930457Y5542208D02*
X7032057Y5542208D01*
X6999800Y2667000D02*
X6999800Y2565400D01*
X6949000Y2616200D02*
X7050600Y2616200D01*
X6999800Y2413000D02*
X6999800Y2311400D01*
X6949000Y2362200D02*
X7050600Y2362200D01*
X6999800Y2159000D02*
X6999800Y2057400D01*
X6949000Y2108200D02*
X7050600Y2108200D01*
X7004800Y809200D02*
X7004800Y707600D01*
X6954000Y758400D02*
X7055600Y758400D01*
X7004800Y555200D02*
X7004800Y453600D01*
X6954000Y504400D02*
X7055600Y504400D01*
X7004800Y301200D02*
X7004800Y199600D01*
X6954000Y250400D02*
X7055600Y250400D01*
X7097457Y8180048D02*
X7097457Y8078448D01*
X7046657Y8129248D02*
X7148257Y8129248D01*
X7097457Y7926048D02*
X7097457Y7824448D01*
X7046657Y7875248D02*
X7148257Y7875248D01*
X7097457Y7672048D02*
X7097457Y7570448D01*
X7046657Y7621248D02*
X7148257Y7621248D01*
X7097457Y7418048D02*
X7097457Y7316448D01*
X7046657Y7367248D02*
X7148257Y7367248D01*
X7097457Y7164048D02*
X7097457Y7062448D01*
X7046657Y7113248D02*
X7148257Y7113248D01*
X7097457Y6910048D02*
X7097457Y6808448D01*
X7046657Y6859248D02*
X7148257Y6859248D01*
X7109257Y9822248D02*
X7109257Y9720648D01*
X7058457Y9771448D02*
X7160057Y9771448D01*
X7109257Y9568248D02*
X7109257Y9466648D01*
X7058457Y9517448D02*
X7160057Y9517448D01*
X7109257Y9314248D02*
X7109257Y9212648D01*
X7058457Y9263448D02*
X7160057Y9263448D01*
X7446760Y4765040D02*
X7446760Y4663440D01*
X7395960Y4714240D02*
X7497560Y4714240D01*
X7446760Y4511040D02*
X7446760Y4409440D01*
X7395960Y4460240D02*
X7497560Y4460240D01*
X8953297Y5590608D02*
X8953297Y5489008D01*
X8902497Y5539808D02*
X9004097Y5539808D01*
X8953297Y5336608D02*
X8953297Y5235008D01*
X8902497Y5285808D02*
X9004097Y5285808D01*
X9290800Y787400D02*
X9290800Y685800D01*
X9240000Y736600D02*
X9341600Y736600D01*
X9290800Y533400D02*
X9290800Y431800D01*
X9240000Y482600D02*
X9341600Y482600D01*
X9290800Y279400D02*
X9290800Y177800D01*
X9240000Y228600D02*
X9341600Y228600D01*
X9302600Y3191600D02*
X9302600Y3090000D01*
X9251800Y3140800D02*
X9353400Y3140800D01*
X9302600Y2937600D02*
X9302600Y2836000D01*
X9251800Y2886800D02*
X9353400Y2886800D01*
X9302600Y2683600D02*
X9302600Y2582000D01*
X9251800Y2632800D02*
X9353400Y2632800D01*
X9302600Y2429600D02*
X9302600Y2328000D01*
X9251800Y2378800D02*
X9353400Y2378800D01*
X9302600Y2175600D02*
X9302600Y2074000D01*
X9251800Y2124800D02*
X9353400Y2124800D01*
X9302600Y1921600D02*
X9302600Y1820000D01*
X9251800Y1870800D02*
X9353400Y1870800D01*
X9395257Y9800448D02*
X9395257Y9698848D01*
X9344457Y9749648D02*
X9446057Y9749648D01*
X9395257Y9546448D02*
X9395257Y9444848D01*
X9344457Y9495648D02*
X9446057Y9495648D01*
X9395257Y9292448D02*
X9395257Y9190848D01*
X9344457Y9241648D02*
X9446057Y9241648D01*
X9400257Y7942648D02*
X9400257Y7841048D01*
X9349457Y7891848D02*
X9451057Y7891848D01*
X9400257Y7688648D02*
X9400257Y7587048D01*
X9349457Y7637848D02*
X9451057Y7637848D01*
X9400257Y7434648D02*
X9400257Y7333048D01*
X9349457Y7383848D02*
X9451057Y7383848D01*
X9418800Y4508640D02*
X9418800Y4407040D01*
X9368000Y4457840D02*
X9469600Y4457840D01*
X9418800Y4254640D02*
X9418800Y4153040D01*
X9368000Y4203840D02*
X9469600Y4203840D01*
X9435897Y5590608D02*
X9435897Y5489008D01*
X9385097Y5539808D02*
X9486697Y5539808D01*
X9435897Y5336608D02*
X9435897Y5235008D01*
X9385097Y5285808D02*
X9486697Y5285808D01*
X9544600Y1513800D02*
X9544600Y1412200D01*
X9493800Y1463000D02*
X9595400Y1463000D01*
X9544600Y1259800D02*
X9544600Y1158200D01*
X9493800Y1209000D02*
X9595400Y1209000D01*
X9544800Y787400D02*
X9544800Y685800D01*
X9494000Y736600D02*
X9595600Y736600D01*
X9544800Y533400D02*
X9544800Y431800D01*
X9494000Y482600D02*
X9595600Y482600D01*
X9544800Y279400D02*
X9544800Y177800D01*
X9494000Y228600D02*
X9595600Y228600D01*
X9556600Y3191600D02*
X9556600Y3090000D01*
X9505800Y3140800D02*
X9607400Y3140800D01*
X9556600Y2937600D02*
X9556600Y2836000D01*
X9505800Y2886800D02*
X9607400Y2886800D01*
X9556600Y2683600D02*
X9556600Y2582000D01*
X9505800Y2632800D02*
X9607400Y2632800D01*
X9556600Y2429600D02*
X9556600Y2328000D01*
X9505800Y2378800D02*
X9607400Y2378800D01*
X9556600Y2175600D02*
X9556600Y2074000D01*
X9505800Y2124800D02*
X9607400Y2124800D01*
X9556600Y1921600D02*
X9556600Y1820000D01*
X9505800Y1870800D02*
X9607400Y1870800D01*
D13*
X263929Y-473214D02*
X263929Y-173214D01*
X335357Y-173214D01*
X378214Y-187500D01*
X406786Y-216071D01*
X421071Y-244643D01*
X435357Y-301786D01*
X435357Y-344643D01*
X421071Y-401786D01*
X406786Y-430357D01*
X378214Y-458929D01*
X335357Y-473214D01*
X263929Y-473214D01*
X563929Y-473214D02*
X563929Y-273214D01*
X563929Y-330357D02*
X578214Y-301786D01*
X592500Y-287500D01*
X621071Y-273214D01*
X649643Y-273214D01*
X749643Y-473214D02*
X749643Y-273214D01*
X749643Y-173214D02*
X735357Y-187500D01*
X749643Y-201786D01*
X763928Y-187500D01*
X749643Y-173214D01*
X749643Y-201786D01*
X935357Y-473214D02*
X906786Y-458929D01*
X892500Y-430357D01*
X892500Y-173214D01*
X1092500Y-473214D02*
X1063929Y-458929D01*
X1049643Y-430357D01*
X1049643Y-173214D01*
X1435357Y-473214D02*
X1435357Y-173214D01*
X1535357Y-387500D01*
X1635357Y-173214D01*
X1635357Y-473214D01*
X1906786Y-473214D02*
X1906786Y-316072D01*
X1892500Y-287500D01*
X1863928Y-273214D01*
X1806786Y-273214D01*
X1778214Y-287500D01*
X1906786Y-458929D02*
X1878214Y-473214D01*
X1806786Y-473214D01*
X1778214Y-458929D01*
X1763928Y-430357D01*
X1763928Y-401786D01*
X1778214Y-373214D01*
X1806786Y-358929D01*
X1878214Y-358929D01*
X1906786Y-344643D01*
X2049643Y-273214D02*
X2049643Y-573214D01*
X2049643Y-287500D02*
X2078214Y-273214D01*
X2135357Y-273214D01*
X2163929Y-287500D01*
X2178214Y-301786D01*
X2192500Y-330357D01*
X2192500Y-416071D01*
X2178214Y-444643D01*
X2163929Y-458929D01*
X2135357Y-473214D01*
X2078214Y-473214D01*
X2049643Y-458929D01*
X2321071Y-444643D02*
X2335357Y-458929D01*
X2321071Y-473214D01*
X2306786Y-458929D01*
X2321071Y-444643D01*
X2321071Y-473214D01*
X2321071Y-287500D02*
X2335357Y-301786D01*
X2321071Y-316072D01*
X2306786Y-301786D01*
X2321071Y-287500D01*
X2321071Y-316072D01*
X-47500Y-947500D02*
X-7500Y-987500D01*
X-7500Y-947500D02*
X-47500Y-987500D01*
X321071Y-803214D02*
X349643Y-803214D01*
X378214Y-817500D01*
X392500Y-831786D01*
X406786Y-860357D01*
X421071Y-917500D01*
X421071Y-988929D01*
X406786Y-1046071D01*
X392500Y-1074643D01*
X378214Y-1088929D01*
X349643Y-1103214D01*
X321071Y-1103214D01*
X292500Y-1088929D01*
X278214Y-1074643D01*
X263929Y-1046071D01*
X249643Y-988929D01*
X249643Y-917500D01*
X263929Y-860357D01*
X278214Y-831786D01*
X292500Y-817500D01*
X321071Y-803214D01*
X549643Y-1074643D02*
X563929Y-1088929D01*
X549643Y-1103214D01*
X535357Y-1088929D01*
X549643Y-1074643D01*
X549643Y-1103214D01*
X821071Y-903214D02*
X821071Y-1103214D01*
X749643Y-788929D02*
X678214Y-1003214D01*
X863928Y-1003214D01*
X1035357Y-803214D02*
X1063929Y-803214D01*
X1092500Y-817500D01*
X1106786Y-831786D01*
X1121071Y-860357D01*
X1135357Y-917500D01*
X1135357Y-988929D01*
X1121071Y-1046071D01*
X1106786Y-1074643D01*
X1092500Y-1088929D01*
X1063929Y-1103214D01*
X1035357Y-1103214D01*
X1006786Y-1088929D01*
X992500Y-1074643D01*
X978214Y-1046071D01*
X963928Y-988929D01*
X963928Y-917500D01*
X978214Y-860357D01*
X992500Y-831786D01*
X1006786Y-817500D01*
X1035357Y-803214D01*
X1263929Y-1103214D02*
X1263929Y-903214D01*
X1263929Y-931786D02*
X1278214Y-917500D01*
X1306786Y-903214D01*
X1349643Y-903214D01*
X1378214Y-917500D01*
X1392500Y-946071D01*
X1392500Y-1103214D01*
X1392500Y-946071D02*
X1406786Y-917500D01*
X1435357Y-903214D01*
X1478214Y-903214D01*
X1506786Y-917500D01*
X1521071Y-946071D01*
X1521071Y-1103214D01*
X1663928Y-1103214D02*
X1663928Y-903214D01*
X1663928Y-931786D02*
X1678214Y-917500D01*
X1706786Y-903214D01*
X1749643Y-903214D01*
X1778214Y-917500D01*
X1792500Y-946071D01*
X1792500Y-1103214D01*
X1792500Y-946071D02*
X1806786Y-917500D01*
X1835357Y-903214D01*
X1878214Y-903214D01*
X1906786Y-917500D01*
X1921071Y-946071D01*
X1921071Y-1103214D01*
X2506786Y-788929D02*
X2249643Y-1174643D01*
X2892500Y-803214D02*
X2921071Y-803214D01*
X2949643Y-817500D01*
X2963928Y-831786D01*
X2978214Y-860357D01*
X2992500Y-917500D01*
X2992500Y-988929D01*
X2978214Y-1046071D01*
X2963928Y-1074643D01*
X2949643Y-1088929D01*
X2921071Y-1103214D01*
X2892500Y-1103214D01*
X2863928Y-1088929D01*
X2849643Y-1074643D01*
X2835357Y-1046071D01*
X2821071Y-988929D01*
X2821071Y-917500D01*
X2835357Y-860357D01*
X2849643Y-831786D01*
X2863928Y-817500D01*
X2892500Y-803214D01*
X3121071Y-1074643D02*
X3135357Y-1088929D01*
X3121071Y-1103214D01*
X3106786Y-1088929D01*
X3121071Y-1074643D01*
X3121071Y-1103214D01*
X3321071Y-803214D02*
X3349643Y-803214D01*
X3378214Y-817500D01*
X3392500Y-831786D01*
X3406785Y-860357D01*
X3421071Y-917500D01*
X3421071Y-988929D01*
X3406785Y-1046071D01*
X3392500Y-1074643D01*
X3378214Y-1088929D01*
X3349643Y-1103214D01*
X3321071Y-1103214D01*
X3292500Y-1088929D01*
X3278214Y-1074643D01*
X3263928Y-1046071D01*
X3249643Y-988929D01*
X3249643Y-917500D01*
X3263928Y-860357D01*
X3278214Y-831786D01*
X3292500Y-817500D01*
X3321071Y-803214D01*
X3706785Y-1103214D02*
X3535357Y-1103214D01*
X3621071Y-1103214D02*
X3621071Y-803214D01*
X3592500Y-846071D01*
X3563928Y-874643D01*
X3535357Y-888929D01*
X3963928Y-803214D02*
X3906785Y-803214D01*
X3878214Y-817500D01*
X3863928Y-831786D01*
X3835357Y-874643D01*
X3821071Y-931786D01*
X3821071Y-1046071D01*
X3835357Y-1074643D01*
X3849643Y-1088929D01*
X3878214Y-1103214D01*
X3935357Y-1103214D01*
X3963928Y-1088929D01*
X3978214Y-1074643D01*
X3992500Y-1046071D01*
X3992500Y-974643D01*
X3978214Y-946071D01*
X3963928Y-931786D01*
X3935357Y-917500D01*
X3878214Y-917500D01*
X3849643Y-931786D01*
X3835357Y-946071D01*
X3821071Y-974643D01*
X4106786Y-803214D02*
X4106786Y-860357D01*
X4221071Y-803214D02*
X4221071Y-860357D01*
X4663928Y-1217500D02*
X4649643Y-1203214D01*
X4621071Y-1160357D01*
X4606786Y-1131786D01*
X4592500Y-1088929D01*
X4578214Y-1017500D01*
X4578214Y-960357D01*
X4592500Y-888929D01*
X4606786Y-846071D01*
X4621071Y-817500D01*
X4649643Y-774643D01*
X4663928Y-760357D01*
X4921071Y-803214D02*
X4778214Y-803214D01*
X4763928Y-946071D01*
X4778214Y-931786D01*
X4806786Y-917500D01*
X4878214Y-917500D01*
X4906786Y-931786D01*
X4921071Y-946071D01*
X4935357Y-974643D01*
X4935357Y-1046071D01*
X4921071Y-1074643D01*
X4906786Y-1088929D01*
X4878214Y-1103214D01*
X4806786Y-1103214D01*
X4778214Y-1088929D01*
X4763928Y-1074643D01*
X5106786Y-931786D02*
X5078214Y-917500D01*
X5063928Y-903214D01*
X5049643Y-874643D01*
X5049643Y-860357D01*
X5063928Y-831786D01*
X5078214Y-817500D01*
X5106786Y-803214D01*
X5163928Y-803214D01*
X5192500Y-817500D01*
X5206786Y-831786D01*
X5221071Y-860357D01*
X5221071Y-874643D01*
X5206786Y-903214D01*
X5192500Y-917500D01*
X5163928Y-931786D01*
X5106786Y-931786D01*
X5078214Y-946071D01*
X5063928Y-960357D01*
X5049643Y-988929D01*
X5049643Y-1046071D01*
X5063928Y-1074643D01*
X5078214Y-1088929D01*
X5106786Y-1103214D01*
X5163928Y-1103214D01*
X5192500Y-1088929D01*
X5206786Y-1074643D01*
X5221071Y-1046071D01*
X5221071Y-988929D01*
X5206786Y-960357D01*
X5192500Y-946071D01*
X5163928Y-931786D01*
X5392500Y-931786D02*
X5363928Y-917500D01*
X5349643Y-903214D01*
X5335357Y-874643D01*
X5335357Y-860357D01*
X5349643Y-831786D01*
X5363928Y-817500D01*
X5392500Y-803214D01*
X5449643Y-803214D01*
X5478214Y-817500D01*
X5492500Y-831786D01*
X5506786Y-860357D01*
X5506786Y-874643D01*
X5492500Y-903214D01*
X5478214Y-917500D01*
X5449643Y-931786D01*
X5392500Y-931786D01*
X5363928Y-946071D01*
X5349643Y-960357D01*
X5335357Y-988929D01*
X5335357Y-1046071D01*
X5349643Y-1074643D01*
X5363928Y-1088929D01*
X5392500Y-1103214D01*
X5449643Y-1103214D01*
X5478214Y-1088929D01*
X5492500Y-1074643D01*
X5506786Y-1046071D01*
X5506786Y-988929D01*
X5492500Y-960357D01*
X5478214Y-946071D01*
X5449643Y-931786D01*
X5863928Y-1103214D02*
X5863928Y-803214D01*
X5992500Y-1103214D02*
X5992500Y-946071D01*
X5978214Y-917500D01*
X5949643Y-903214D01*
X5906785Y-903214D01*
X5878214Y-917500D01*
X5863928Y-931786D01*
X6178214Y-1103214D02*
X6149643Y-1088929D01*
X6135357Y-1074643D01*
X6121071Y-1046071D01*
X6121071Y-960357D01*
X6135357Y-931786D01*
X6149643Y-917500D01*
X6178214Y-903214D01*
X6221071Y-903214D01*
X6249643Y-917500D01*
X6263928Y-931786D01*
X6278214Y-960357D01*
X6278214Y-1046071D01*
X6263928Y-1074643D01*
X6249643Y-1088929D01*
X6221071Y-1103214D01*
X6178214Y-1103214D01*
X6449643Y-1103214D02*
X6421071Y-1088929D01*
X6406786Y-1060357D01*
X6406786Y-803214D01*
X6678214Y-1088929D02*
X6649643Y-1103214D01*
X6592500Y-1103214D01*
X6563928Y-1088929D01*
X6549643Y-1060357D01*
X6549643Y-946071D01*
X6563928Y-917500D01*
X6592500Y-903214D01*
X6649643Y-903214D01*
X6678214Y-917500D01*
X6692500Y-946071D01*
X6692500Y-974643D01*
X6549643Y-1003214D01*
X6806786Y-1088929D02*
X6835357Y-1103214D01*
X6892500Y-1103214D01*
X6921071Y-1088929D01*
X6935357Y-1060357D01*
X6935357Y-1046071D01*
X6921071Y-1017500D01*
X6892500Y-1003214D01*
X6849643Y-1003214D01*
X6821071Y-988929D01*
X6806786Y-960357D01*
X6806786Y-946071D01*
X6821071Y-917500D01*
X6849643Y-903214D01*
X6892500Y-903214D01*
X6921071Y-917500D01*
X7035357Y-1217500D02*
X7049643Y-1203214D01*
X7078214Y-1160357D01*
X7092500Y-1131786D01*
X7106786Y-1088929D01*
X7121071Y-1017500D01*
X7121071Y-960357D01*
X7106786Y-888929D01*
X7092500Y-846071D01*
X7078214Y-817500D01*
X7049643Y-774643D01*
X7035357Y-760357D01*
X-7500Y-1363500D02*
G75*
G03X-7500Y-1363500I-38100J0D01*
G01*
X321071Y-1199214D02*
X349643Y-1199214D01*
X378214Y-1213500D01*
X392500Y-1227786D01*
X406786Y-1256357D01*
X421071Y-1313500D01*
X421071Y-1384929D01*
X406786Y-1442071D01*
X392500Y-1470643D01*
X378214Y-1484929D01*
X349643Y-1499214D01*
X321071Y-1499214D01*
X292500Y-1484929D01*
X278214Y-1470643D01*
X263929Y-1442071D01*
X249643Y-1384929D01*
X249643Y-1313500D01*
X263929Y-1256357D01*
X278214Y-1227786D01*
X292500Y-1213500D01*
X321071Y-1199214D01*
X549643Y-1470643D02*
X563929Y-1484929D01*
X549643Y-1499214D01*
X535357Y-1484929D01*
X549643Y-1470643D01*
X549643Y-1499214D01*
X663928Y-1199214D02*
X863928Y-1199214D01*
X735357Y-1499214D01*
X1106786Y-1199214D02*
X1049643Y-1199214D01*
X1021071Y-1213500D01*
X1006786Y-1227786D01*
X978214Y-1270643D01*
X963928Y-1327786D01*
X963928Y-1442071D01*
X978214Y-1470643D01*
X992500Y-1484929D01*
X1021071Y-1499214D01*
X1078214Y-1499214D01*
X1106786Y-1484929D01*
X1121071Y-1470643D01*
X1135357Y-1442071D01*
X1135357Y-1370643D01*
X1121071Y-1342072D01*
X1106786Y-1327786D01*
X1078214Y-1313500D01*
X1021071Y-1313500D01*
X992500Y-1327786D01*
X978214Y-1342072D01*
X963928Y-1370643D01*
X1263929Y-1499214D02*
X1263929Y-1299214D01*
X1263929Y-1327786D02*
X1278214Y-1313500D01*
X1306786Y-1299214D01*
X1349643Y-1299214D01*
X1378214Y-1313500D01*
X1392500Y-1342072D01*
X1392500Y-1499214D01*
X1392500Y-1342072D02*
X1406786Y-1313500D01*
X1435357Y-1299214D01*
X1478214Y-1299214D01*
X1506786Y-1313500D01*
X1521071Y-1342072D01*
X1521071Y-1499214D01*
X1663928Y-1499214D02*
X1663928Y-1299214D01*
X1663928Y-1327786D02*
X1678214Y-1313500D01*
X1706786Y-1299214D01*
X1749643Y-1299214D01*
X1778214Y-1313500D01*
X1792500Y-1342072D01*
X1792500Y-1499214D01*
X1792500Y-1342072D02*
X1806786Y-1313500D01*
X1835357Y-1299214D01*
X1878214Y-1299214D01*
X1906786Y-1313500D01*
X1921071Y-1342072D01*
X1921071Y-1499214D01*
X2506786Y-1184929D02*
X2249643Y-1570643D01*
X2892500Y-1199214D02*
X2921071Y-1199214D01*
X2949643Y-1213500D01*
X2963928Y-1227786D01*
X2978214Y-1256357D01*
X2992500Y-1313500D01*
X2992500Y-1384929D01*
X2978214Y-1442071D01*
X2963928Y-1470643D01*
X2949643Y-1484929D01*
X2921071Y-1499214D01*
X2892500Y-1499214D01*
X2863928Y-1484929D01*
X2849643Y-1470643D01*
X2835357Y-1442071D01*
X2821071Y-1384929D01*
X2821071Y-1313500D01*
X2835357Y-1256357D01*
X2849643Y-1227786D01*
X2863928Y-1213500D01*
X2892500Y-1199214D01*
X3121071Y-1470643D02*
X3135357Y-1484929D01*
X3121071Y-1499214D01*
X3106786Y-1484929D01*
X3121071Y-1470643D01*
X3121071Y-1499214D01*
X3321071Y-1199214D02*
X3349643Y-1199214D01*
X3378214Y-1213500D01*
X3392500Y-1227786D01*
X3406785Y-1256357D01*
X3421071Y-1313500D01*
X3421071Y-1384929D01*
X3406785Y-1442071D01*
X3392500Y-1470643D01*
X3378214Y-1484929D01*
X3349643Y-1499214D01*
X3321071Y-1499214D01*
X3292500Y-1484929D01*
X3278214Y-1470643D01*
X3263928Y-1442071D01*
X3249643Y-1384929D01*
X3249643Y-1313500D01*
X3263928Y-1256357D01*
X3278214Y-1227786D01*
X3292500Y-1213500D01*
X3321071Y-1199214D01*
X3521071Y-1199214D02*
X3706785Y-1199214D01*
X3606785Y-1313500D01*
X3649643Y-1313500D01*
X3678214Y-1327786D01*
X3692500Y-1342072D01*
X3706785Y-1370643D01*
X3706785Y-1442071D01*
X3692500Y-1470643D01*
X3678214Y-1484929D01*
X3649643Y-1499214D01*
X3563928Y-1499214D01*
X3535357Y-1484929D01*
X3521071Y-1470643D01*
X3892500Y-1199214D02*
X3921071Y-1199214D01*
X3949643Y-1213500D01*
X3963928Y-1227786D01*
X3978214Y-1256357D01*
X3992500Y-1313500D01*
X3992500Y-1384929D01*
X3978214Y-1442071D01*
X3963928Y-1470643D01*
X3949643Y-1484929D01*
X3921071Y-1499214D01*
X3892500Y-1499214D01*
X3863928Y-1484929D01*
X3849643Y-1470643D01*
X3835357Y-1442071D01*
X3821071Y-1384929D01*
X3821071Y-1313500D01*
X3835357Y-1256357D01*
X3849643Y-1227786D01*
X3863928Y-1213500D01*
X3892500Y-1199214D01*
X4106786Y-1199214D02*
X4106786Y-1256357D01*
X4221071Y-1199214D02*
X4221071Y-1256357D01*
X4663928Y-1613500D02*
X4649643Y-1599214D01*
X4621071Y-1556357D01*
X4606786Y-1527786D01*
X4592500Y-1484929D01*
X4578214Y-1413500D01*
X4578214Y-1356357D01*
X4592500Y-1284929D01*
X4606786Y-1242072D01*
X4621071Y-1213500D01*
X4649643Y-1170643D01*
X4663928Y-1156357D01*
X4906786Y-1299214D02*
X4906786Y-1499214D01*
X4835357Y-1184929D02*
X4763928Y-1399214D01*
X4949643Y-1399214D01*
X5106786Y-1327786D02*
X5078214Y-1313500D01*
X5063928Y-1299214D01*
X5049643Y-1270643D01*
X5049643Y-1256357D01*
X5063928Y-1227786D01*
X5078214Y-1213500D01*
X5106786Y-1199214D01*
X5163928Y-1199214D01*
X5192500Y-1213500D01*
X5206786Y-1227786D01*
X5221071Y-1256357D01*
X5221071Y-1270643D01*
X5206786Y-1299214D01*
X5192500Y-1313500D01*
X5163928Y-1327786D01*
X5106786Y-1327786D01*
X5078214Y-1342072D01*
X5063928Y-1356357D01*
X5049643Y-1384929D01*
X5049643Y-1442071D01*
X5063928Y-1470643D01*
X5078214Y-1484929D01*
X5106786Y-1499214D01*
X5163928Y-1499214D01*
X5192500Y-1484929D01*
X5206786Y-1470643D01*
X5221071Y-1442071D01*
X5221071Y-1384929D01*
X5206786Y-1356357D01*
X5192500Y-1342072D01*
X5163928Y-1327786D01*
X5578214Y-1499214D02*
X5578214Y-1199214D01*
X5706785Y-1499214D02*
X5706785Y-1342072D01*
X5692500Y-1313500D01*
X5663928Y-1299214D01*
X5621071Y-1299214D01*
X5592500Y-1313500D01*
X5578214Y-1327786D01*
X5892500Y-1499214D02*
X5863928Y-1484929D01*
X5849643Y-1470643D01*
X5835357Y-1442071D01*
X5835357Y-1356357D01*
X5849643Y-1327786D01*
X5863928Y-1313500D01*
X5892500Y-1299214D01*
X5935357Y-1299214D01*
X5963928Y-1313500D01*
X5978214Y-1327786D01*
X5992500Y-1356357D01*
X5992500Y-1442071D01*
X5978214Y-1470643D01*
X5963928Y-1484929D01*
X5935357Y-1499214D01*
X5892500Y-1499214D01*
X6163928Y-1499214D02*
X6135357Y-1484929D01*
X6121071Y-1456357D01*
X6121071Y-1199214D01*
X6392500Y-1484929D02*
X6363928Y-1499214D01*
X6306786Y-1499214D01*
X6278214Y-1484929D01*
X6263928Y-1456357D01*
X6263928Y-1342072D01*
X6278214Y-1313500D01*
X6306786Y-1299214D01*
X6363928Y-1299214D01*
X6392500Y-1313500D01*
X6406786Y-1342072D01*
X6406786Y-1370643D01*
X6263928Y-1399214D01*
X6521071Y-1484929D02*
X6549643Y-1499214D01*
X6606786Y-1499214D01*
X6635357Y-1484929D01*
X6649643Y-1456357D01*
X6649643Y-1442071D01*
X6635357Y-1413500D01*
X6606786Y-1399214D01*
X6563928Y-1399214D01*
X6535357Y-1384929D01*
X6521071Y-1356357D01*
X6521071Y-1342072D01*
X6535357Y-1313500D01*
X6563928Y-1299214D01*
X6606786Y-1299214D01*
X6635357Y-1313500D01*
X6749643Y-1613500D02*
X6763928Y-1599214D01*
X6792500Y-1556357D01*
X6806786Y-1527786D01*
X6821071Y-1484929D01*
X6835357Y-1413500D01*
X6835357Y-1356357D01*
X6821071Y-1284929D01*
X6806786Y-1242072D01*
X6792500Y-1213500D01*
X6763928Y-1170643D01*
X6749643Y-1156357D01*
X-58300Y-1708700D02*
X-58300Y-1810300D01*
X-109100Y-1759500D02*
X-7500Y-1759500D01*
X421071Y-1895214D02*
X249643Y-1895214D01*
X335357Y-1895214D02*
X335357Y-1595214D01*
X306786Y-1638071D01*
X278214Y-1666643D01*
X249643Y-1680929D01*
X549643Y-1866643D02*
X563929Y-1880929D01*
X549643Y-1895214D01*
X535357Y-1880929D01*
X549643Y-1866643D01*
X549643Y-1895214D01*
X749643Y-1595214D02*
X778214Y-1595214D01*
X806786Y-1609500D01*
X821071Y-1623786D01*
X835357Y-1652357D01*
X849643Y-1709500D01*
X849643Y-1780929D01*
X835357Y-1838071D01*
X821071Y-1866643D01*
X806786Y-1880929D01*
X778214Y-1895214D01*
X749643Y-1895214D01*
X721071Y-1880929D01*
X706786Y-1866643D01*
X692500Y-1838071D01*
X678214Y-1780929D01*
X678214Y-1709500D01*
X692500Y-1652357D01*
X706786Y-1623786D01*
X721071Y-1609500D01*
X749643Y-1595214D01*
X963928Y-1623786D02*
X978214Y-1609500D01*
X1006786Y-1595214D01*
X1078214Y-1595214D01*
X1106786Y-1609500D01*
X1121071Y-1623786D01*
X1135357Y-1652357D01*
X1135357Y-1680929D01*
X1121071Y-1723786D01*
X949643Y-1895214D01*
X1135357Y-1895214D01*
X1263929Y-1895214D02*
X1263929Y-1695214D01*
X1263929Y-1723786D02*
X1278214Y-1709500D01*
X1306786Y-1695214D01*
X1349643Y-1695214D01*
X1378214Y-1709500D01*
X1392500Y-1738071D01*
X1392500Y-1895214D01*
X1392500Y-1738071D02*
X1406786Y-1709500D01*
X1435357Y-1695214D01*
X1478214Y-1695214D01*
X1506786Y-1709500D01*
X1521071Y-1738071D01*
X1521071Y-1895214D01*
X1663928Y-1895214D02*
X1663928Y-1695214D01*
X1663928Y-1723786D02*
X1678214Y-1709500D01*
X1706786Y-1695214D01*
X1749643Y-1695214D01*
X1778214Y-1709500D01*
X1792500Y-1738071D01*
X1792500Y-1895214D01*
X1792500Y-1738071D02*
X1806786Y-1709500D01*
X1835357Y-1695214D01*
X1878214Y-1695214D01*
X1906786Y-1709500D01*
X1921071Y-1738071D01*
X1921071Y-1895214D01*
X2506786Y-1580929D02*
X2249643Y-1966643D01*
X2892500Y-1595214D02*
X2921071Y-1595214D01*
X2949643Y-1609500D01*
X2963928Y-1623786D01*
X2978214Y-1652357D01*
X2992500Y-1709500D01*
X2992500Y-1780929D01*
X2978214Y-1838071D01*
X2963928Y-1866643D01*
X2949643Y-1880929D01*
X2921071Y-1895214D01*
X2892500Y-1895214D01*
X2863928Y-1880929D01*
X2849643Y-1866643D01*
X2835357Y-1838071D01*
X2821071Y-1780929D01*
X2821071Y-1709500D01*
X2835357Y-1652357D01*
X2849643Y-1623786D01*
X2863928Y-1609500D01*
X2892500Y-1595214D01*
X3121071Y-1866643D02*
X3135357Y-1880929D01*
X3121071Y-1895214D01*
X3106786Y-1880929D01*
X3121071Y-1866643D01*
X3121071Y-1895214D01*
X3321071Y-1595214D02*
X3349643Y-1595214D01*
X3378214Y-1609500D01*
X3392500Y-1623786D01*
X3406785Y-1652357D01*
X3421071Y-1709500D01*
X3421071Y-1780929D01*
X3406785Y-1838071D01*
X3392500Y-1866643D01*
X3378214Y-1880929D01*
X3349643Y-1895214D01*
X3321071Y-1895214D01*
X3292500Y-1880929D01*
X3278214Y-1866643D01*
X3263928Y-1838071D01*
X3249643Y-1780929D01*
X3249643Y-1709500D01*
X3263928Y-1652357D01*
X3278214Y-1623786D01*
X3292500Y-1609500D01*
X3321071Y-1595214D01*
X3678214Y-1695214D02*
X3678214Y-1895214D01*
X3606785Y-1580929D02*
X3535357Y-1795214D01*
X3721071Y-1795214D01*
X3892500Y-1595214D02*
X3921071Y-1595214D01*
X3949643Y-1609500D01*
X3963928Y-1623786D01*
X3978214Y-1652357D01*
X3992500Y-1709500D01*
X3992500Y-1780929D01*
X3978214Y-1838071D01*
X3963928Y-1866643D01*
X3949643Y-1880929D01*
X3921071Y-1895214D01*
X3892500Y-1895214D01*
X3863928Y-1880929D01*
X3849643Y-1866643D01*
X3835357Y-1838071D01*
X3821071Y-1780929D01*
X3821071Y-1709500D01*
X3835357Y-1652357D01*
X3849643Y-1623786D01*
X3863928Y-1609500D01*
X3892500Y-1595214D01*
X4106786Y-1595214D02*
X4106786Y-1652357D01*
X4221071Y-1595214D02*
X4221071Y-1652357D01*
X4663928Y-2009500D02*
X4649643Y-1995214D01*
X4621071Y-1952357D01*
X4606786Y-1923786D01*
X4592500Y-1880929D01*
X4578214Y-1809500D01*
X4578214Y-1752357D01*
X4592500Y-1680929D01*
X4606786Y-1638071D01*
X4621071Y-1609500D01*
X4649643Y-1566643D01*
X4663928Y-1552357D01*
X4935357Y-1895214D02*
X4763928Y-1895214D01*
X4849643Y-1895214D02*
X4849643Y-1595214D01*
X4821071Y-1638071D01*
X4792500Y-1666643D01*
X4763928Y-1680929D01*
X5078214Y-1895214D02*
X5135357Y-1895214D01*
X5163928Y-1880929D01*
X5178214Y-1866643D01*
X5206786Y-1823786D01*
X5221071Y-1766643D01*
X5221071Y-1652357D01*
X5206786Y-1623786D01*
X5192500Y-1609500D01*
X5163928Y-1595214D01*
X5106786Y-1595214D01*
X5078214Y-1609500D01*
X5063928Y-1623786D01*
X5049643Y-1652357D01*
X5049643Y-1723786D01*
X5063928Y-1752357D01*
X5078214Y-1766643D01*
X5106786Y-1780929D01*
X5163928Y-1780929D01*
X5192500Y-1766643D01*
X5206786Y-1752357D01*
X5221071Y-1723786D01*
X5335357Y-1623786D02*
X5349643Y-1609500D01*
X5378214Y-1595214D01*
X5449643Y-1595214D01*
X5478214Y-1609500D01*
X5492500Y-1623786D01*
X5506786Y-1652357D01*
X5506786Y-1680929D01*
X5492500Y-1723786D01*
X5321071Y-1895214D01*
X5506786Y-1895214D01*
X5863928Y-1895214D02*
X5863928Y-1595214D01*
X5992500Y-1895214D02*
X5992500Y-1738071D01*
X5978214Y-1709500D01*
X5949643Y-1695214D01*
X5906785Y-1695214D01*
X5878214Y-1709500D01*
X5863928Y-1723786D01*
X6178214Y-1895214D02*
X6149643Y-1880929D01*
X6135357Y-1866643D01*
X6121071Y-1838071D01*
X6121071Y-1752357D01*
X6135357Y-1723786D01*
X6149643Y-1709500D01*
X6178214Y-1695214D01*
X6221071Y-1695214D01*
X6249643Y-1709500D01*
X6263928Y-1723786D01*
X6278214Y-1752357D01*
X6278214Y-1838071D01*
X6263928Y-1866643D01*
X6249643Y-1880929D01*
X6221071Y-1895214D01*
X6178214Y-1895214D01*
X6449643Y-1895214D02*
X6421071Y-1880929D01*
X6406786Y-1852357D01*
X6406786Y-1595214D01*
X6678214Y-1880929D02*
X6649643Y-1895214D01*
X6592500Y-1895214D01*
X6563928Y-1880929D01*
X6549643Y-1852357D01*
X6549643Y-1738071D01*
X6563928Y-1709500D01*
X6592500Y-1695214D01*
X6649643Y-1695214D01*
X6678214Y-1709500D01*
X6692500Y-1738071D01*
X6692500Y-1766643D01*
X6549643Y-1795214D01*
X6806786Y-1880929D02*
X6835357Y-1895214D01*
X6892500Y-1895214D01*
X6921071Y-1880929D01*
X6935357Y-1852357D01*
X6935357Y-1838071D01*
X6921071Y-1809500D01*
X6892500Y-1795214D01*
X6849643Y-1795214D01*
X6821071Y-1780929D01*
X6806786Y-1752357D01*
X6806786Y-1738071D01*
X6821071Y-1709500D01*
X6849643Y-1695214D01*
X6892500Y-1695214D01*
X6921071Y-1709500D01*
X7035357Y-2009500D02*
X7049643Y-1995214D01*
X7078214Y-1952357D01*
X7092500Y-1923786D01*
X7106786Y-1880929D01*
X7121071Y-1809500D01*
X7121071Y-1752357D01*
X7106786Y-1680929D01*
X7092500Y-1638071D01*
X7078214Y-1609500D01*
X7049643Y-1566643D01*
X7035357Y-1552357D01*
M02*
