G04 #@! TF.FileFunction,Legend,Top*
%FSLAX46Y46*%
G04 Gerber Fmt 4.6, Leading zero omitted, Abs format (unit mm)*
G04 Created by KiCad (PCBNEW 4.0.6) date 12/25/17 20:13:07*
%MOMM*%
%LPD*%
G01*
G04 APERTURE LIST*
%ADD10C,0.100000*%
%ADD11C,0.200000*%
%ADD12C,0.300000*%
%ADD13C,0.150000*%
%ADD14C,0.120000*%
%ADD15C,0.350000*%
G04 APERTURE END LIST*
D10*
D11*
X27048966Y78308876D02*
G75*
G03X27048966Y78308876I-500000J0D01*
G01*
D12*
X31379308Y59073847D02*
X31379308Y57573847D01*
X30879308Y58645276D01*
X30379308Y57573847D01*
X30379308Y59073847D01*
X28879308Y59073847D02*
X29736451Y59073847D01*
X29307879Y59073847D02*
X29307879Y57573847D01*
X29450736Y57788133D01*
X29593594Y57930990D01*
X29736451Y58002419D01*
X27093594Y59073847D02*
X27093594Y57573847D01*
X26593594Y58645276D01*
X26093594Y57573847D01*
X26093594Y59073847D01*
X25450737Y57716705D02*
X25379308Y57645276D01*
X25236451Y57573847D01*
X24879308Y57573847D01*
X24736451Y57645276D01*
X24665022Y57716705D01*
X24593594Y57859562D01*
X24593594Y58002419D01*
X24665022Y58216705D01*
X25522165Y59073847D01*
X24593594Y59073847D01*
X7107708Y52264933D02*
X6893422Y52336362D01*
X6821994Y52407790D01*
X6750565Y52550647D01*
X6750565Y52764933D01*
X6821994Y52907790D01*
X6893422Y52979219D01*
X7036280Y53050647D01*
X7607708Y53050647D01*
X7607708Y51550647D01*
X7107708Y51550647D01*
X6964851Y51622076D01*
X6893422Y51693505D01*
X6821994Y51836362D01*
X6821994Y51979219D01*
X6893422Y52122076D01*
X6964851Y52193505D01*
X7107708Y52264933D01*
X7607708Y52264933D01*
X6179137Y52622076D02*
X5464851Y52622076D01*
X6321994Y53050647D02*
X5821994Y51550647D01*
X5321994Y53050647D01*
X5036280Y51550647D02*
X4179137Y51550647D01*
X4607708Y53050647D02*
X4607708Y51550647D01*
X8571994Y55204219D02*
X7429137Y55204219D01*
X8000566Y55775647D02*
X8000566Y54632790D01*
X8571994Y57754219D02*
X7429137Y57754219D01*
X8071994Y66107619D02*
X6929137Y66107619D01*
X7500566Y66679047D02*
X7500566Y65536190D01*
X5071994Y66107619D02*
X3929137Y66107619D01*
X13095937Y63266533D02*
X13595937Y63266533D01*
X13595937Y64052247D02*
X13595937Y62552247D01*
X12881651Y62552247D01*
X12310223Y64052247D02*
X12310223Y62552247D01*
X11595937Y64052247D02*
X11595937Y62552247D01*
X10738794Y64052247D01*
X10738794Y62552247D01*
X10024508Y64052247D02*
X10024508Y62552247D01*
X9381651Y63980819D02*
X9167365Y64052247D01*
X8810222Y64052247D01*
X8667365Y63980819D01*
X8595936Y63909390D01*
X8524508Y63766533D01*
X8524508Y63623676D01*
X8595936Y63480819D01*
X8667365Y63409390D01*
X8810222Y63337962D01*
X9095936Y63266533D01*
X9238794Y63195105D01*
X9310222Y63123676D01*
X9381651Y62980819D01*
X9381651Y62837962D01*
X9310222Y62695105D01*
X9238794Y62623676D01*
X9095936Y62552247D01*
X8738794Y62552247D01*
X8524508Y62623676D01*
X8095937Y62552247D02*
X7238794Y62552247D01*
X7667365Y64052247D02*
X7667365Y62552247D01*
X6667366Y62552247D02*
X6810223Y62837962D01*
X5167365Y64052247D02*
X5667365Y63337962D01*
X6024508Y64052247D02*
X6024508Y62552247D01*
X5453080Y62552247D01*
X5310222Y62623676D01*
X5238794Y62695105D01*
X5167365Y62837962D01*
X5167365Y63052247D01*
X5238794Y63195105D01*
X5310222Y63266533D01*
X5453080Y63337962D01*
X6024508Y63337962D01*
X3667365Y63909390D02*
X3738794Y63980819D01*
X3953080Y64052247D01*
X4095937Y64052247D01*
X4310222Y63980819D01*
X4453080Y63837962D01*
X4524508Y63695105D01*
X4595937Y63409390D01*
X4595937Y63195105D01*
X4524508Y62909390D01*
X4453080Y62766533D01*
X4310222Y62623676D01*
X4095937Y62552247D01*
X3953080Y62552247D01*
X3738794Y62623676D01*
X3667365Y62695105D01*
X31298623Y90295219D02*
X31084337Y90366647D01*
X30727194Y90366647D01*
X30584337Y90295219D01*
X30512908Y90223790D01*
X30441480Y90080933D01*
X30441480Y89938076D01*
X30512908Y89795219D01*
X30584337Y89723790D01*
X30727194Y89652362D01*
X31012908Y89580933D01*
X31155766Y89509505D01*
X31227194Y89438076D01*
X31298623Y89295219D01*
X31298623Y89152362D01*
X31227194Y89009505D01*
X31155766Y88938076D01*
X31012908Y88866647D01*
X30655766Y88866647D01*
X30441480Y88938076D01*
X29870052Y89009505D02*
X29798623Y88938076D01*
X29655766Y88866647D01*
X29298623Y88866647D01*
X29155766Y88938076D01*
X29084337Y89009505D01*
X29012909Y89152362D01*
X29012909Y89295219D01*
X29084337Y89509505D01*
X29941480Y90366647D01*
X29012909Y90366647D01*
X9321995Y98464761D02*
X10821995Y98464761D01*
X9393423Y97821904D02*
X9321995Y97607618D01*
X9321995Y97250475D01*
X9393423Y97107618D01*
X9464852Y97036189D01*
X9607709Y96964761D01*
X9750566Y96964761D01*
X9893423Y97036189D01*
X9964852Y97107618D01*
X10036280Y97250475D01*
X10107709Y97536189D01*
X10179137Y97679047D01*
X10250566Y97750475D01*
X10393423Y97821904D01*
X10536280Y97821904D01*
X10679137Y97750475D01*
X10750566Y97679047D01*
X10821995Y97536189D01*
X10821995Y97179047D01*
X10750566Y96964761D01*
X9321995Y96321904D02*
X10821995Y96321904D01*
X10821995Y95750476D01*
X10750566Y95607618D01*
X10679137Y95536190D01*
X10536280Y95464761D01*
X10321995Y95464761D01*
X10179137Y95536190D01*
X10107709Y95607618D01*
X10036280Y95750476D01*
X10036280Y96321904D01*
X8571994Y69304047D02*
X9429137Y69304047D01*
X9000565Y69304047D02*
X9000565Y67804047D01*
X9143422Y68018333D01*
X9286280Y68161190D01*
X9429137Y68232619D01*
X9429137Y70496905D02*
X9357708Y70425476D01*
X9214851Y70354047D01*
X8857708Y70354047D01*
X8714851Y70425476D01*
X8643422Y70496905D01*
X8571994Y70639762D01*
X8571994Y70782619D01*
X8643422Y70996905D01*
X9500565Y71854047D01*
X8571994Y71854047D01*
X9500565Y72904047D02*
X8571994Y72904047D01*
X9071994Y73475476D01*
X8857708Y73475476D01*
X8714851Y73546905D01*
X8643422Y73618333D01*
X8571994Y73761190D01*
X8571994Y74118333D01*
X8643422Y74261190D01*
X8714851Y74332619D01*
X8857708Y74404047D01*
X9286280Y74404047D01*
X9429137Y74332619D01*
X9500565Y74261190D01*
X8714851Y75954047D02*
X8714851Y76954047D01*
X9071994Y75382619D02*
X9429137Y76454047D01*
X8500565Y76454047D01*
X8643422Y78004047D02*
X9357708Y78004047D01*
X9429137Y78718333D01*
X9357708Y78646905D01*
X9214851Y78575476D01*
X8857708Y78575476D01*
X8714851Y78646905D01*
X8643422Y78718333D01*
X8571994Y78861190D01*
X8571994Y79218333D01*
X8643422Y79361190D01*
X8714851Y79432619D01*
X8857708Y79504047D01*
X9214851Y79504047D01*
X9357708Y79432619D01*
X9429137Y79361190D01*
X8714851Y80554047D02*
X9000565Y80554047D01*
X9143422Y80625476D01*
X9214851Y80696905D01*
X9357708Y80911190D01*
X9429137Y81196905D01*
X9429137Y81768333D01*
X9357708Y81911190D01*
X9286280Y81982619D01*
X9143422Y82054047D01*
X8857708Y82054047D01*
X8714851Y81982619D01*
X8643422Y81911190D01*
X8571994Y81768333D01*
X8571994Y81411190D01*
X8643422Y81268333D01*
X8714851Y81196905D01*
X8857708Y81125476D01*
X9143422Y81125476D01*
X9286280Y81196905D01*
X9357708Y81268333D01*
X9429137Y81411190D01*
X41321995Y98464761D02*
X42821995Y98464761D01*
X41393423Y97821904D02*
X41321995Y97607618D01*
X41321995Y97250475D01*
X41393423Y97107618D01*
X41464852Y97036189D01*
X41607709Y96964761D01*
X41750566Y96964761D01*
X41893423Y97036189D01*
X41964852Y97107618D01*
X42036280Y97250475D01*
X42107709Y97536189D01*
X42179137Y97679047D01*
X42250566Y97750475D01*
X42393423Y97821904D01*
X42536280Y97821904D01*
X42679137Y97750475D01*
X42750566Y97679047D01*
X42821995Y97536189D01*
X42821995Y97179047D01*
X42750566Y96964761D01*
X41321995Y96321904D02*
X42821995Y96321904D01*
X42821995Y95750476D01*
X42750566Y95607618D01*
X42679137Y95536190D01*
X42536280Y95464761D01*
X42321995Y95464761D01*
X42179137Y95536190D01*
X42107709Y95607618D01*
X42036280Y95750476D01*
X42036280Y96321904D01*
X40571994Y69304047D02*
X41429137Y69304047D01*
X41000565Y69304047D02*
X41000565Y67804047D01*
X41143422Y68018333D01*
X41286280Y68161190D01*
X41429137Y68232619D01*
X41429137Y70496905D02*
X41357708Y70425476D01*
X41214851Y70354047D01*
X40857708Y70354047D01*
X40714851Y70425476D01*
X40643422Y70496905D01*
X40571994Y70639762D01*
X40571994Y70782619D01*
X40643422Y70996905D01*
X41500565Y71854047D01*
X40571994Y71854047D01*
X41500565Y72904047D02*
X40571994Y72904047D01*
X41071994Y73475476D01*
X40857708Y73475476D01*
X40714851Y73546905D01*
X40643422Y73618333D01*
X40571994Y73761190D01*
X40571994Y74118333D01*
X40643422Y74261190D01*
X40714851Y74332619D01*
X40857708Y74404047D01*
X41286280Y74404047D01*
X41429137Y74332619D01*
X41500565Y74261190D01*
X40714851Y75954047D02*
X40714851Y76954047D01*
X41071994Y75382619D02*
X41429137Y76454047D01*
X40500565Y76454047D01*
X40643422Y78004047D02*
X41357708Y78004047D01*
X41429137Y78718333D01*
X41357708Y78646905D01*
X41214851Y78575476D01*
X40857708Y78575476D01*
X40714851Y78646905D01*
X40643422Y78718333D01*
X40571994Y78861190D01*
X40571994Y79218333D01*
X40643422Y79361190D01*
X40714851Y79432619D01*
X40857708Y79504047D01*
X41214851Y79504047D01*
X41357708Y79432619D01*
X41429137Y79361190D01*
X40714851Y80554047D02*
X41000565Y80554047D01*
X41143422Y80625476D01*
X41214851Y80696905D01*
X41357708Y80911190D01*
X41429137Y81196905D01*
X41429137Y81768333D01*
X41357708Y81911190D01*
X41286280Y81982619D01*
X41143422Y82054047D01*
X40857708Y82054047D01*
X40714851Y81982619D01*
X40643422Y81911190D01*
X40571994Y81768333D01*
X40571994Y81411190D01*
X40643422Y81268333D01*
X40714851Y81196905D01*
X40857708Y81125476D01*
X41143422Y81125476D01*
X41286280Y81196905D01*
X41357708Y81268333D01*
X41429137Y81411190D01*
X32463937Y74638819D02*
X32249651Y74710247D01*
X31892508Y74710247D01*
X31749651Y74638819D01*
X31678222Y74567390D01*
X31606794Y74424533D01*
X31606794Y74281676D01*
X31678222Y74138819D01*
X31749651Y74067390D01*
X31892508Y73995962D01*
X32178222Y73924533D01*
X32321080Y73853105D01*
X32392508Y73781676D01*
X32463937Y73638819D01*
X32463937Y73495962D01*
X32392508Y73353105D01*
X32321080Y73281676D01*
X32178222Y73210247D01*
X31821080Y73210247D01*
X31606794Y73281676D01*
X32606794Y76688819D02*
X31463937Y76688819D01*
X32035366Y77260247D02*
X32035366Y76117390D01*
X32606794Y79238819D02*
X31463937Y79238819D01*
X32721023Y82116419D02*
X32506737Y82187847D01*
X32149594Y82187847D01*
X32006737Y82116419D01*
X31935308Y82044990D01*
X31863880Y81902133D01*
X31863880Y81759276D01*
X31935308Y81616419D01*
X32006737Y81544990D01*
X32149594Y81473562D01*
X32435308Y81402133D01*
X32578166Y81330705D01*
X32649594Y81259276D01*
X32721023Y81116419D01*
X32721023Y80973562D01*
X32649594Y80830705D01*
X32578166Y80759276D01*
X32435308Y80687847D01*
X32078166Y80687847D01*
X31863880Y80759276D01*
X30435309Y82187847D02*
X31292452Y82187847D01*
X30863880Y82187847D02*
X30863880Y80687847D01*
X31006737Y80902133D01*
X31149595Y81044990D01*
X31292452Y81116419D01*
X32667137Y93333219D02*
X32452851Y93404647D01*
X32095708Y93404647D01*
X31952851Y93333219D01*
X31881422Y93261790D01*
X31809994Y93118933D01*
X31809994Y92976076D01*
X31881422Y92833219D01*
X31952851Y92761790D01*
X32095708Y92690362D01*
X32381422Y92618933D01*
X32524280Y92547505D01*
X32595708Y92476076D01*
X32667137Y92333219D01*
X32667137Y92190362D01*
X32595708Y92047505D01*
X32524280Y91976076D01*
X32381422Y91904647D01*
X32024280Y91904647D01*
X31809994Y91976076D01*
X32809994Y95383219D02*
X31667137Y95383219D01*
X32238566Y95954647D02*
X32238566Y94811790D01*
X32809994Y97933219D02*
X31667137Y97933219D01*
X63298623Y90295219D02*
X63084337Y90366647D01*
X62727194Y90366647D01*
X62584337Y90295219D01*
X62512908Y90223790D01*
X62441480Y90080933D01*
X62441480Y89938076D01*
X62512908Y89795219D01*
X62584337Y89723790D01*
X62727194Y89652362D01*
X63012908Y89580933D01*
X63155766Y89509505D01*
X63227194Y89438076D01*
X63298623Y89295219D01*
X63298623Y89152362D01*
X63227194Y89009505D01*
X63155766Y88938076D01*
X63012908Y88866647D01*
X62655766Y88866647D01*
X62441480Y88938076D01*
X61870052Y89009505D02*
X61798623Y88938076D01*
X61655766Y88866647D01*
X61298623Y88866647D01*
X61155766Y88938076D01*
X61084337Y89009505D01*
X61012909Y89152362D01*
X61012909Y89295219D01*
X61084337Y89509505D01*
X61941480Y90366647D01*
X61012909Y90366647D01*
X72571994Y69304047D02*
X73429137Y69304047D01*
X73000565Y69304047D02*
X73000565Y67804047D01*
X73143422Y68018333D01*
X73286280Y68161190D01*
X73429137Y68232619D01*
X73429137Y70496905D02*
X73357708Y70425476D01*
X73214851Y70354047D01*
X72857708Y70354047D01*
X72714851Y70425476D01*
X72643422Y70496905D01*
X72571994Y70639762D01*
X72571994Y70782619D01*
X72643422Y70996905D01*
X73500565Y71854047D01*
X72571994Y71854047D01*
X73500565Y72904047D02*
X72571994Y72904047D01*
X73071994Y73475476D01*
X72857708Y73475476D01*
X72714851Y73546905D01*
X72643422Y73618333D01*
X72571994Y73761190D01*
X72571994Y74118333D01*
X72643422Y74261190D01*
X72714851Y74332619D01*
X72857708Y74404047D01*
X73286280Y74404047D01*
X73429137Y74332619D01*
X73500565Y74261190D01*
X72714851Y75954047D02*
X72714851Y76954047D01*
X73071994Y75382619D02*
X73429137Y76454047D01*
X72500565Y76454047D01*
X72643422Y78004047D02*
X73357708Y78004047D01*
X73429137Y78718333D01*
X73357708Y78646905D01*
X73214851Y78575476D01*
X72857708Y78575476D01*
X72714851Y78646905D01*
X72643422Y78718333D01*
X72571994Y78861190D01*
X72571994Y79218333D01*
X72643422Y79361190D01*
X72714851Y79432619D01*
X72857708Y79504047D01*
X73214851Y79504047D01*
X73357708Y79432619D01*
X73429137Y79361190D01*
X72714851Y80554047D02*
X73000565Y80554047D01*
X73143422Y80625476D01*
X73214851Y80696905D01*
X73357708Y80911190D01*
X73429137Y81196905D01*
X73429137Y81768333D01*
X73357708Y81911190D01*
X73286280Y81982619D01*
X73143422Y82054047D01*
X72857708Y82054047D01*
X72714851Y81982619D01*
X72643422Y81911190D01*
X72571994Y81768333D01*
X72571994Y81411190D01*
X72643422Y81268333D01*
X72714851Y81196905D01*
X72857708Y81125476D01*
X73143422Y81125476D01*
X73286280Y81196905D01*
X73357708Y81268333D01*
X73429137Y81411190D01*
X64463937Y74638819D02*
X64249651Y74710247D01*
X63892508Y74710247D01*
X63749651Y74638819D01*
X63678222Y74567390D01*
X63606794Y74424533D01*
X63606794Y74281676D01*
X63678222Y74138819D01*
X63749651Y74067390D01*
X63892508Y73995962D01*
X64178222Y73924533D01*
X64321080Y73853105D01*
X64392508Y73781676D01*
X64463937Y73638819D01*
X64463937Y73495962D01*
X64392508Y73353105D01*
X64321080Y73281676D01*
X64178222Y73210247D01*
X63821080Y73210247D01*
X63606794Y73281676D01*
X64606794Y76688819D02*
X63463937Y76688819D01*
X64035366Y77260247D02*
X64035366Y76117390D01*
X64606794Y79238819D02*
X63463937Y79238819D01*
X64721023Y82116419D02*
X64506737Y82187847D01*
X64149594Y82187847D01*
X64006737Y82116419D01*
X63935308Y82044990D01*
X63863880Y81902133D01*
X63863880Y81759276D01*
X63935308Y81616419D01*
X64006737Y81544990D01*
X64149594Y81473562D01*
X64435308Y81402133D01*
X64578166Y81330705D01*
X64649594Y81259276D01*
X64721023Y81116419D01*
X64721023Y80973562D01*
X64649594Y80830705D01*
X64578166Y80759276D01*
X64435308Y80687847D01*
X64078166Y80687847D01*
X63863880Y80759276D01*
X62435309Y82187847D02*
X63292452Y82187847D01*
X62863880Y82187847D02*
X62863880Y80687847D01*
X63006737Y80902133D01*
X63149595Y81044990D01*
X63292452Y81116419D01*
D11*
X59048966Y78308876D02*
G75*
G03X59048966Y78308876I-500000J0D01*
G01*
D12*
X64667137Y93333219D02*
X64452851Y93404647D01*
X64095708Y93404647D01*
X63952851Y93333219D01*
X63881422Y93261790D01*
X63809994Y93118933D01*
X63809994Y92976076D01*
X63881422Y92833219D01*
X63952851Y92761790D01*
X64095708Y92690362D01*
X64381422Y92618933D01*
X64524280Y92547505D01*
X64595708Y92476076D01*
X64667137Y92333219D01*
X64667137Y92190362D01*
X64595708Y92047505D01*
X64524280Y91976076D01*
X64381422Y91904647D01*
X64024280Y91904647D01*
X63809994Y91976076D01*
X64809994Y95383219D02*
X63667137Y95383219D01*
X64238566Y95954647D02*
X64238566Y94811790D01*
X64809994Y97933219D02*
X63667137Y97933219D01*
X95379308Y59073847D02*
X95379308Y57573847D01*
X94879308Y58645276D01*
X94379308Y57573847D01*
X94379308Y59073847D01*
X92879308Y59073847D02*
X93736451Y59073847D01*
X93307879Y59073847D02*
X93307879Y57573847D01*
X93450736Y57788133D01*
X93593594Y57930990D01*
X93736451Y58002419D01*
X91093594Y59073847D02*
X91093594Y57573847D01*
X90593594Y58645276D01*
X90093594Y57573847D01*
X90093594Y59073847D01*
X89450737Y57716705D02*
X89379308Y57645276D01*
X89236451Y57573847D01*
X88879308Y57573847D01*
X88736451Y57645276D01*
X88665022Y57716705D01*
X88593594Y57859562D01*
X88593594Y58002419D01*
X88665022Y58216705D01*
X89522165Y59073847D01*
X88593594Y59073847D01*
X73321995Y98464761D02*
X74821995Y98464761D01*
X73393423Y97821904D02*
X73321995Y97607618D01*
X73321995Y97250475D01*
X73393423Y97107618D01*
X73464852Y97036189D01*
X73607709Y96964761D01*
X73750566Y96964761D01*
X73893423Y97036189D01*
X73964852Y97107618D01*
X74036280Y97250475D01*
X74107709Y97536189D01*
X74179137Y97679047D01*
X74250566Y97750475D01*
X74393423Y97821904D01*
X74536280Y97821904D01*
X74679137Y97750475D01*
X74750566Y97679047D01*
X74821995Y97536189D01*
X74821995Y97179047D01*
X74750566Y96964761D01*
X73321995Y96321904D02*
X74821995Y96321904D01*
X74821995Y95750476D01*
X74750566Y95607618D01*
X74679137Y95536190D01*
X74536280Y95464761D01*
X74321995Y95464761D01*
X74179137Y95536190D01*
X74107709Y95607618D01*
X74036280Y95750476D01*
X74036280Y96321904D01*
X95298623Y90295219D02*
X95084337Y90366647D01*
X94727194Y90366647D01*
X94584337Y90295219D01*
X94512908Y90223790D01*
X94441480Y90080933D01*
X94441480Y89938076D01*
X94512908Y89795219D01*
X94584337Y89723790D01*
X94727194Y89652362D01*
X95012908Y89580933D01*
X95155766Y89509505D01*
X95227194Y89438076D01*
X95298623Y89295219D01*
X95298623Y89152362D01*
X95227194Y89009505D01*
X95155766Y88938076D01*
X95012908Y88866647D01*
X94655766Y88866647D01*
X94441480Y88938076D01*
X93870052Y89009505D02*
X93798623Y88938076D01*
X93655766Y88866647D01*
X93298623Y88866647D01*
X93155766Y88938076D01*
X93084337Y89009505D01*
X93012909Y89152362D01*
X93012909Y89295219D01*
X93084337Y89509505D01*
X93941480Y90366647D01*
X93012909Y90366647D01*
X96667137Y93333219D02*
X96452851Y93404647D01*
X96095708Y93404647D01*
X95952851Y93333219D01*
X95881422Y93261790D01*
X95809994Y93118933D01*
X95809994Y92976076D01*
X95881422Y92833219D01*
X95952851Y92761790D01*
X96095708Y92690362D01*
X96381422Y92618933D01*
X96524280Y92547505D01*
X96595708Y92476076D01*
X96667137Y92333219D01*
X96667137Y92190362D01*
X96595708Y92047505D01*
X96524280Y91976076D01*
X96381422Y91904647D01*
X96024280Y91904647D01*
X95809994Y91976076D01*
X96809994Y95383219D02*
X95667137Y95383219D01*
X96238566Y95954647D02*
X96238566Y94811790D01*
X96809994Y97933219D02*
X95667137Y97933219D01*
X96721023Y82116419D02*
X96506737Y82187847D01*
X96149594Y82187847D01*
X96006737Y82116419D01*
X95935308Y82044990D01*
X95863880Y81902133D01*
X95863880Y81759276D01*
X95935308Y81616419D01*
X96006737Y81544990D01*
X96149594Y81473562D01*
X96435308Y81402133D01*
X96578166Y81330705D01*
X96649594Y81259276D01*
X96721023Y81116419D01*
X96721023Y80973562D01*
X96649594Y80830705D01*
X96578166Y80759276D01*
X96435308Y80687847D01*
X96078166Y80687847D01*
X95863880Y80759276D01*
X94435309Y82187847D02*
X95292452Y82187847D01*
X94863880Y82187847D02*
X94863880Y80687847D01*
X95006737Y80902133D01*
X95149595Y81044990D01*
X95292452Y81116419D01*
D11*
X91048966Y78308876D02*
G75*
G03X91048966Y78308876I-500000J0D01*
G01*
D12*
X96463937Y74638819D02*
X96249651Y74710247D01*
X95892508Y74710247D01*
X95749651Y74638819D01*
X95678222Y74567390D01*
X95606794Y74424533D01*
X95606794Y74281676D01*
X95678222Y74138819D01*
X95749651Y74067390D01*
X95892508Y73995962D01*
X96178222Y73924533D01*
X96321080Y73853105D01*
X96392508Y73781676D01*
X96463937Y73638819D01*
X96463937Y73495962D01*
X96392508Y73353105D01*
X96321080Y73281676D01*
X96178222Y73210247D01*
X95821080Y73210247D01*
X95606794Y73281676D01*
X96606794Y76688819D02*
X95463937Y76688819D01*
X96035366Y77260247D02*
X96035366Y76117390D01*
X96606794Y79238819D02*
X95463937Y79238819D01*
X63379308Y59073847D02*
X63379308Y57573847D01*
X62879308Y58645276D01*
X62379308Y57573847D01*
X62379308Y59073847D01*
X60879308Y59073847D02*
X61736451Y59073847D01*
X61307879Y59073847D02*
X61307879Y57573847D01*
X61450736Y57788133D01*
X61593594Y57930990D01*
X61736451Y58002419D01*
X59093594Y59073847D02*
X59093594Y57573847D01*
X58593594Y58645276D01*
X58093594Y57573847D01*
X58093594Y59073847D01*
X57450737Y57716705D02*
X57379308Y57645276D01*
X57236451Y57573847D01*
X56879308Y57573847D01*
X56736451Y57645276D01*
X56665022Y57716705D01*
X56593594Y57859562D01*
X56593594Y58002419D01*
X56665022Y58216705D01*
X57522165Y59073847D01*
X56593594Y59073847D01*
X71107708Y52264933D02*
X70893422Y52336362D01*
X70821994Y52407790D01*
X70750565Y52550647D01*
X70750565Y52764933D01*
X70821994Y52907790D01*
X70893422Y52979219D01*
X71036280Y53050647D01*
X71607708Y53050647D01*
X71607708Y51550647D01*
X71107708Y51550647D01*
X70964851Y51622076D01*
X70893422Y51693505D01*
X70821994Y51836362D01*
X70821994Y51979219D01*
X70893422Y52122076D01*
X70964851Y52193505D01*
X71107708Y52264933D01*
X71607708Y52264933D01*
X70179137Y52622076D02*
X69464851Y52622076D01*
X70321994Y53050647D02*
X69821994Y51550647D01*
X69321994Y53050647D01*
X69036280Y51550647D02*
X68179137Y51550647D01*
X68607708Y53050647D02*
X68607708Y51550647D01*
X72571994Y55204219D02*
X71429137Y55204219D01*
X72000566Y55775647D02*
X72000566Y54632790D01*
X72571994Y57754219D02*
X71429137Y57754219D01*
X77095937Y63266533D02*
X77595937Y63266533D01*
X77595937Y64052247D02*
X77595937Y62552247D01*
X76881651Y62552247D01*
X76310223Y64052247D02*
X76310223Y62552247D01*
X75595937Y64052247D02*
X75595937Y62552247D01*
X74738794Y64052247D01*
X74738794Y62552247D01*
X74024508Y64052247D02*
X74024508Y62552247D01*
X73381651Y63980819D02*
X73167365Y64052247D01*
X72810222Y64052247D01*
X72667365Y63980819D01*
X72595936Y63909390D01*
X72524508Y63766533D01*
X72524508Y63623676D01*
X72595936Y63480819D01*
X72667365Y63409390D01*
X72810222Y63337962D01*
X73095936Y63266533D01*
X73238794Y63195105D01*
X73310222Y63123676D01*
X73381651Y62980819D01*
X73381651Y62837962D01*
X73310222Y62695105D01*
X73238794Y62623676D01*
X73095936Y62552247D01*
X72738794Y62552247D01*
X72524508Y62623676D01*
X72095937Y62552247D02*
X71238794Y62552247D01*
X71667365Y64052247D02*
X71667365Y62552247D01*
X70667366Y62552247D02*
X70810223Y62837962D01*
X69167365Y64052247D02*
X69667365Y63337962D01*
X70024508Y64052247D02*
X70024508Y62552247D01*
X69453080Y62552247D01*
X69310222Y62623676D01*
X69238794Y62695105D01*
X69167365Y62837962D01*
X69167365Y63052247D01*
X69238794Y63195105D01*
X69310222Y63266533D01*
X69453080Y63337962D01*
X70024508Y63337962D01*
X67667365Y63909390D02*
X67738794Y63980819D01*
X67953080Y64052247D01*
X68095937Y64052247D01*
X68310222Y63980819D01*
X68453080Y63837962D01*
X68524508Y63695105D01*
X68595937Y63409390D01*
X68595937Y63195105D01*
X68524508Y62909390D01*
X68453080Y62766533D01*
X68310222Y62623676D01*
X68095937Y62552247D01*
X67953080Y62552247D01*
X67738794Y62623676D01*
X67667365Y62695105D01*
X72071994Y66107619D02*
X70929137Y66107619D01*
X71500566Y66679047D02*
X71500566Y65536190D01*
X69071994Y66107619D02*
X67929137Y66107619D01*
X39107708Y52264933D02*
X38893422Y52336362D01*
X38821994Y52407790D01*
X38750565Y52550647D01*
X38750565Y52764933D01*
X38821994Y52907790D01*
X38893422Y52979219D01*
X39036280Y53050647D01*
X39607708Y53050647D01*
X39607708Y51550647D01*
X39107708Y51550647D01*
X38964851Y51622076D01*
X38893422Y51693505D01*
X38821994Y51836362D01*
X38821994Y51979219D01*
X38893422Y52122076D01*
X38964851Y52193505D01*
X39107708Y52264933D01*
X39607708Y52264933D01*
X38179137Y52622076D02*
X37464851Y52622076D01*
X38321994Y53050647D02*
X37821994Y51550647D01*
X37321994Y53050647D01*
X37036280Y51550647D02*
X36179137Y51550647D01*
X36607708Y53050647D02*
X36607708Y51550647D01*
X40071994Y66107619D02*
X38929137Y66107619D01*
X39500566Y66679047D02*
X39500566Y65536190D01*
X37071994Y66107619D02*
X35929137Y66107619D01*
X45095937Y63266533D02*
X45595937Y63266533D01*
X45595937Y64052247D02*
X45595937Y62552247D01*
X44881651Y62552247D01*
X44310223Y64052247D02*
X44310223Y62552247D01*
X43595937Y64052247D02*
X43595937Y62552247D01*
X42738794Y64052247D01*
X42738794Y62552247D01*
X42024508Y64052247D02*
X42024508Y62552247D01*
X41381651Y63980819D02*
X41167365Y64052247D01*
X40810222Y64052247D01*
X40667365Y63980819D01*
X40595936Y63909390D01*
X40524508Y63766533D01*
X40524508Y63623676D01*
X40595936Y63480819D01*
X40667365Y63409390D01*
X40810222Y63337962D01*
X41095936Y63266533D01*
X41238794Y63195105D01*
X41310222Y63123676D01*
X41381651Y62980819D01*
X41381651Y62837962D01*
X41310222Y62695105D01*
X41238794Y62623676D01*
X41095936Y62552247D01*
X40738794Y62552247D01*
X40524508Y62623676D01*
X40095937Y62552247D02*
X39238794Y62552247D01*
X39667365Y64052247D02*
X39667365Y62552247D01*
X38667366Y62552247D02*
X38810223Y62837962D01*
X37167365Y64052247D02*
X37667365Y63337962D01*
X38024508Y64052247D02*
X38024508Y62552247D01*
X37453080Y62552247D01*
X37310222Y62623676D01*
X37238794Y62695105D01*
X37167365Y62837962D01*
X37167365Y63052247D01*
X37238794Y63195105D01*
X37310222Y63266533D01*
X37453080Y63337962D01*
X38024508Y63337962D01*
X35667365Y63909390D02*
X35738794Y63980819D01*
X35953080Y64052247D01*
X36095937Y64052247D01*
X36310222Y63980819D01*
X36453080Y63837962D01*
X36524508Y63695105D01*
X36595937Y63409390D01*
X36595937Y63195105D01*
X36524508Y62909390D01*
X36453080Y62766533D01*
X36310222Y62623676D01*
X36095937Y62552247D01*
X35953080Y62552247D01*
X35738794Y62623676D01*
X35667365Y62695105D01*
X40571994Y55204219D02*
X39429137Y55204219D01*
X40000566Y55775647D02*
X40000566Y54632790D01*
X40571994Y57754219D02*
X39429137Y57754219D01*
X90678571Y1535715D02*
X89178571Y1535715D01*
X90607143Y2178572D02*
X90678571Y2392858D01*
X90678571Y2750001D01*
X90607143Y2892858D01*
X90535714Y2964287D01*
X90392857Y3035715D01*
X90250000Y3035715D01*
X90107143Y2964287D01*
X90035714Y2892858D01*
X89964286Y2750001D01*
X89892857Y2464287D01*
X89821429Y2321429D01*
X89750000Y2250001D01*
X89607143Y2178572D01*
X89464286Y2178572D01*
X89321429Y2250001D01*
X89250000Y2321429D01*
X89178571Y2464287D01*
X89178571Y2821429D01*
X89250000Y3035715D01*
X90678571Y3678572D02*
X89178571Y3678572D01*
X89178571Y4250000D01*
X89250000Y4392858D01*
X89321429Y4464286D01*
X89464286Y4535715D01*
X89678571Y4535715D01*
X89821429Y4464286D01*
X89892857Y4392858D01*
X89964286Y4250000D01*
X89964286Y3678572D01*
X91428572Y30696429D02*
X90571429Y30696429D01*
X91000001Y30696429D02*
X91000001Y32196429D01*
X90857144Y31982143D01*
X90714286Y31839286D01*
X90571429Y31767857D01*
X90571429Y29503571D02*
X90642858Y29575000D01*
X90785715Y29646429D01*
X91142858Y29646429D01*
X91285715Y29575000D01*
X91357144Y29503571D01*
X91428572Y29360714D01*
X91428572Y29217857D01*
X91357144Y29003571D01*
X90500001Y28146429D01*
X91428572Y28146429D01*
X90500001Y27096429D02*
X91428572Y27096429D01*
X90928572Y26525000D01*
X91142858Y26525000D01*
X91285715Y26453571D01*
X91357144Y26382143D01*
X91428572Y26239286D01*
X91428572Y25882143D01*
X91357144Y25739286D01*
X91285715Y25667857D01*
X91142858Y25596429D01*
X90714286Y25596429D01*
X90571429Y25667857D01*
X90500001Y25739286D01*
X91285715Y24046429D02*
X91285715Y23046429D01*
X90928572Y24617857D02*
X90571429Y23546429D01*
X91500001Y23546429D01*
X91357144Y21996429D02*
X90642858Y21996429D01*
X90571429Y21282143D01*
X90642858Y21353571D01*
X90785715Y21425000D01*
X91142858Y21425000D01*
X91285715Y21353571D01*
X91357144Y21282143D01*
X91428572Y21139286D01*
X91428572Y20782143D01*
X91357144Y20639286D01*
X91285715Y20567857D01*
X91142858Y20496429D01*
X90785715Y20496429D01*
X90642858Y20567857D01*
X90571429Y20639286D01*
X91285715Y19446429D02*
X91000001Y19446429D01*
X90857144Y19375000D01*
X90785715Y19303571D01*
X90642858Y19089286D01*
X90571429Y18803571D01*
X90571429Y18232143D01*
X90642858Y18089286D01*
X90714286Y18017857D01*
X90857144Y17946429D01*
X91142858Y17946429D01*
X91285715Y18017857D01*
X91357144Y18089286D01*
X91428572Y18232143D01*
X91428572Y18589286D01*
X91357144Y18732143D01*
X91285715Y18803571D01*
X91142858Y18875000D01*
X90857144Y18875000D01*
X90714286Y18803571D01*
X90642858Y18732143D01*
X90571429Y18589286D01*
X67333429Y6667257D02*
X67547715Y6595829D01*
X67904858Y6595829D01*
X68047715Y6667257D01*
X68119144Y6738686D01*
X68190572Y6881543D01*
X68190572Y7024400D01*
X68119144Y7167257D01*
X68047715Y7238686D01*
X67904858Y7310114D01*
X67619144Y7381543D01*
X67476286Y7452971D01*
X67404858Y7524400D01*
X67333429Y7667257D01*
X67333429Y7810114D01*
X67404858Y7952971D01*
X67476286Y8024400D01*
X67619144Y8095829D01*
X67976286Y8095829D01*
X68190572Y8024400D01*
X67190572Y4617257D02*
X68333429Y4617257D01*
X67762000Y4045829D02*
X67762000Y5188686D01*
X67190572Y2067257D02*
X68333429Y2067257D01*
X67536629Y25361657D02*
X67750915Y25290229D01*
X68108058Y25290229D01*
X68250915Y25361657D01*
X68322344Y25433086D01*
X68393772Y25575943D01*
X68393772Y25718800D01*
X68322344Y25861657D01*
X68250915Y25933086D01*
X68108058Y26004514D01*
X67822344Y26075943D01*
X67679486Y26147371D01*
X67608058Y26218800D01*
X67536629Y26361657D01*
X67536629Y26504514D01*
X67608058Y26647371D01*
X67679486Y26718800D01*
X67822344Y26790229D01*
X68179486Y26790229D01*
X68393772Y26718800D01*
X67393772Y23311657D02*
X68536629Y23311657D01*
X67965200Y22740229D02*
X67965200Y23883086D01*
X67393772Y20761657D02*
X68536629Y20761657D01*
X67279543Y17884057D02*
X67493829Y17812629D01*
X67850972Y17812629D01*
X67993829Y17884057D01*
X68065258Y17955486D01*
X68136686Y18098343D01*
X68136686Y18241200D01*
X68065258Y18384057D01*
X67993829Y18455486D01*
X67850972Y18526914D01*
X67565258Y18598343D01*
X67422400Y18669771D01*
X67350972Y18741200D01*
X67279543Y18884057D01*
X67279543Y19026914D01*
X67350972Y19169771D01*
X67422400Y19241200D01*
X67565258Y19312629D01*
X67922400Y19312629D01*
X68136686Y19241200D01*
X69565257Y17812629D02*
X68708114Y17812629D01*
X69136686Y17812629D02*
X69136686Y19312629D01*
X68993829Y19098343D01*
X68850971Y18955486D01*
X68708114Y18884057D01*
X68701943Y9705257D02*
X68916229Y9633829D01*
X69273372Y9633829D01*
X69416229Y9705257D01*
X69487658Y9776686D01*
X69559086Y9919543D01*
X69559086Y10062400D01*
X69487658Y10205257D01*
X69416229Y10276686D01*
X69273372Y10348114D01*
X68987658Y10419543D01*
X68844800Y10490971D01*
X68773372Y10562400D01*
X68701943Y10705257D01*
X68701943Y10848114D01*
X68773372Y10990971D01*
X68844800Y11062400D01*
X68987658Y11133829D01*
X69344800Y11133829D01*
X69559086Y11062400D01*
X70130514Y10990971D02*
X70201943Y11062400D01*
X70344800Y11133829D01*
X70701943Y11133829D01*
X70844800Y11062400D01*
X70916229Y10990971D01*
X70987657Y10848114D01*
X70987657Y10705257D01*
X70916229Y10490971D01*
X70059086Y9633829D01*
X70987657Y9633829D01*
X92892858Y47735543D02*
X93107144Y47664114D01*
X93178572Y47592686D01*
X93250001Y47449829D01*
X93250001Y47235543D01*
X93178572Y47092686D01*
X93107144Y47021257D01*
X92964286Y46949829D01*
X92392858Y46949829D01*
X92392858Y48449829D01*
X92892858Y48449829D01*
X93035715Y48378400D01*
X93107144Y48306971D01*
X93178572Y48164114D01*
X93178572Y48021257D01*
X93107144Y47878400D01*
X93035715Y47806971D01*
X92892858Y47735543D01*
X92392858Y47735543D01*
X93821429Y47378400D02*
X94535715Y47378400D01*
X93678572Y46949829D02*
X94178572Y48449829D01*
X94678572Y46949829D01*
X94964286Y48449829D02*
X95821429Y48449829D01*
X95392858Y46949829D02*
X95392858Y48449829D01*
X91928572Y33892857D02*
X93071429Y33892857D01*
X92500000Y33321429D02*
X92500000Y34464286D01*
X94928572Y33892857D02*
X96071429Y33892857D01*
X86904629Y36733943D02*
X86404629Y36733943D01*
X86404629Y35948229D02*
X86404629Y37448229D01*
X87118915Y37448229D01*
X87690343Y35948229D02*
X87690343Y37448229D01*
X88404629Y35948229D02*
X88404629Y37448229D01*
X89261772Y35948229D01*
X89261772Y37448229D01*
X89976058Y35948229D02*
X89976058Y37448229D01*
X90618915Y36019657D02*
X90833201Y35948229D01*
X91190344Y35948229D01*
X91333201Y36019657D01*
X91404630Y36091086D01*
X91476058Y36233943D01*
X91476058Y36376800D01*
X91404630Y36519657D01*
X91333201Y36591086D01*
X91190344Y36662514D01*
X90904630Y36733943D01*
X90761772Y36805371D01*
X90690344Y36876800D01*
X90618915Y37019657D01*
X90618915Y37162514D01*
X90690344Y37305371D01*
X90761772Y37376800D01*
X90904630Y37448229D01*
X91261772Y37448229D01*
X91476058Y37376800D01*
X91904629Y37448229D02*
X92761772Y37448229D01*
X92333201Y35948229D02*
X92333201Y37448229D01*
X93333200Y37448229D02*
X93190343Y37162514D01*
X94833201Y35948229D02*
X94333201Y36662514D01*
X93976058Y35948229D02*
X93976058Y37448229D01*
X94547486Y37448229D01*
X94690344Y37376800D01*
X94761772Y37305371D01*
X94833201Y37162514D01*
X94833201Y36948229D01*
X94761772Y36805371D01*
X94690344Y36733943D01*
X94547486Y36662514D01*
X93976058Y36662514D01*
X96333201Y36091086D02*
X96261772Y36019657D01*
X96047486Y35948229D01*
X95904629Y35948229D01*
X95690344Y36019657D01*
X95547486Y36162514D01*
X95476058Y36305371D01*
X95404629Y36591086D01*
X95404629Y36805371D01*
X95476058Y37091086D01*
X95547486Y37233943D01*
X95690344Y37376800D01*
X95904629Y37448229D01*
X96047486Y37448229D01*
X96261772Y37376800D01*
X96333201Y37305371D01*
X91428572Y44796257D02*
X92571429Y44796257D01*
X92000000Y44224829D02*
X92000000Y45367686D01*
X91428572Y42246257D02*
X92571429Y42246257D01*
X68621258Y40926629D02*
X68621258Y42426629D01*
X69121258Y41355200D01*
X69621258Y42426629D01*
X69621258Y40926629D01*
X71121258Y40926629D02*
X70264115Y40926629D01*
X70692687Y40926629D02*
X70692687Y42426629D01*
X70549830Y42212343D01*
X70406972Y42069486D01*
X70264115Y41998057D01*
X72906972Y40926629D02*
X72906972Y42426629D01*
X73406972Y41355200D01*
X73906972Y42426629D01*
X73906972Y40926629D01*
X74549829Y42283771D02*
X74621258Y42355200D01*
X74764115Y42426629D01*
X75121258Y42426629D01*
X75264115Y42355200D01*
X75335544Y42283771D01*
X75406972Y42140914D01*
X75406972Y41998057D01*
X75335544Y41783771D01*
X74478401Y40926629D01*
X75406972Y40926629D01*
D11*
X73951600Y21691600D02*
G75*
G03X73951600Y21691600I-500000J0D01*
G01*
D12*
X58678571Y1535715D02*
X57178571Y1535715D01*
X58607143Y2178572D02*
X58678571Y2392858D01*
X58678571Y2750001D01*
X58607143Y2892858D01*
X58535714Y2964287D01*
X58392857Y3035715D01*
X58250000Y3035715D01*
X58107143Y2964287D01*
X58035714Y2892858D01*
X57964286Y2750001D01*
X57892857Y2464287D01*
X57821429Y2321429D01*
X57750000Y2250001D01*
X57607143Y2178572D01*
X57464286Y2178572D01*
X57321429Y2250001D01*
X57250000Y2321429D01*
X57178571Y2464287D01*
X57178571Y2821429D01*
X57250000Y3035715D01*
X58678571Y3678572D02*
X57178571Y3678572D01*
X57178571Y4250000D01*
X57250000Y4392858D01*
X57321429Y4464286D01*
X57464286Y4535715D01*
X57678571Y4535715D01*
X57821429Y4464286D01*
X57892857Y4392858D01*
X57964286Y4250000D01*
X57964286Y3678572D01*
X59428572Y30696429D02*
X58571429Y30696429D01*
X59000001Y30696429D02*
X59000001Y32196429D01*
X58857144Y31982143D01*
X58714286Y31839286D01*
X58571429Y31767857D01*
X58571429Y29503571D02*
X58642858Y29575000D01*
X58785715Y29646429D01*
X59142858Y29646429D01*
X59285715Y29575000D01*
X59357144Y29503571D01*
X59428572Y29360714D01*
X59428572Y29217857D01*
X59357144Y29003571D01*
X58500001Y28146429D01*
X59428572Y28146429D01*
X58500001Y27096429D02*
X59428572Y27096429D01*
X58928572Y26525000D01*
X59142858Y26525000D01*
X59285715Y26453571D01*
X59357144Y26382143D01*
X59428572Y26239286D01*
X59428572Y25882143D01*
X59357144Y25739286D01*
X59285715Y25667857D01*
X59142858Y25596429D01*
X58714286Y25596429D01*
X58571429Y25667857D01*
X58500001Y25739286D01*
X59285715Y24046429D02*
X59285715Y23046429D01*
X58928572Y24617857D02*
X58571429Y23546429D01*
X59500001Y23546429D01*
X59357144Y21996429D02*
X58642858Y21996429D01*
X58571429Y21282143D01*
X58642858Y21353571D01*
X58785715Y21425000D01*
X59142858Y21425000D01*
X59285715Y21353571D01*
X59357144Y21282143D01*
X59428572Y21139286D01*
X59428572Y20782143D01*
X59357144Y20639286D01*
X59285715Y20567857D01*
X59142858Y20496429D01*
X58785715Y20496429D01*
X58642858Y20567857D01*
X58571429Y20639286D01*
X59285715Y19446429D02*
X59000001Y19446429D01*
X58857144Y19375000D01*
X58785715Y19303571D01*
X58642858Y19089286D01*
X58571429Y18803571D01*
X58571429Y18232143D01*
X58642858Y18089286D01*
X58714286Y18017857D01*
X58857144Y17946429D01*
X59142858Y17946429D01*
X59285715Y18017857D01*
X59357144Y18089286D01*
X59428572Y18232143D01*
X59428572Y18589286D01*
X59357144Y18732143D01*
X59285715Y18803571D01*
X59142858Y18875000D01*
X58857144Y18875000D01*
X58714286Y18803571D01*
X58642858Y18732143D01*
X58571429Y18589286D01*
X35333429Y6667257D02*
X35547715Y6595829D01*
X35904858Y6595829D01*
X36047715Y6667257D01*
X36119144Y6738686D01*
X36190572Y6881543D01*
X36190572Y7024400D01*
X36119144Y7167257D01*
X36047715Y7238686D01*
X35904858Y7310114D01*
X35619144Y7381543D01*
X35476286Y7452971D01*
X35404858Y7524400D01*
X35333429Y7667257D01*
X35333429Y7810114D01*
X35404858Y7952971D01*
X35476286Y8024400D01*
X35619144Y8095829D01*
X35976286Y8095829D01*
X36190572Y8024400D01*
X35190572Y4617257D02*
X36333429Y4617257D01*
X35762000Y4045829D02*
X35762000Y5188686D01*
X35190572Y2067257D02*
X36333429Y2067257D01*
X35536629Y25361657D02*
X35750915Y25290229D01*
X36108058Y25290229D01*
X36250915Y25361657D01*
X36322344Y25433086D01*
X36393772Y25575943D01*
X36393772Y25718800D01*
X36322344Y25861657D01*
X36250915Y25933086D01*
X36108058Y26004514D01*
X35822344Y26075943D01*
X35679486Y26147371D01*
X35608058Y26218800D01*
X35536629Y26361657D01*
X35536629Y26504514D01*
X35608058Y26647371D01*
X35679486Y26718800D01*
X35822344Y26790229D01*
X36179486Y26790229D01*
X36393772Y26718800D01*
X35393772Y23311657D02*
X36536629Y23311657D01*
X35965200Y22740229D02*
X35965200Y23883086D01*
X35393772Y20761657D02*
X36536629Y20761657D01*
X35279543Y17884057D02*
X35493829Y17812629D01*
X35850972Y17812629D01*
X35993829Y17884057D01*
X36065258Y17955486D01*
X36136686Y18098343D01*
X36136686Y18241200D01*
X36065258Y18384057D01*
X35993829Y18455486D01*
X35850972Y18526914D01*
X35565258Y18598343D01*
X35422400Y18669771D01*
X35350972Y18741200D01*
X35279543Y18884057D01*
X35279543Y19026914D01*
X35350972Y19169771D01*
X35422400Y19241200D01*
X35565258Y19312629D01*
X35922400Y19312629D01*
X36136686Y19241200D01*
X37565257Y17812629D02*
X36708114Y17812629D01*
X37136686Y17812629D02*
X37136686Y19312629D01*
X36993829Y19098343D01*
X36850971Y18955486D01*
X36708114Y18884057D01*
X36701943Y9705257D02*
X36916229Y9633829D01*
X37273372Y9633829D01*
X37416229Y9705257D01*
X37487658Y9776686D01*
X37559086Y9919543D01*
X37559086Y10062400D01*
X37487658Y10205257D01*
X37416229Y10276686D01*
X37273372Y10348114D01*
X36987658Y10419543D01*
X36844800Y10490971D01*
X36773372Y10562400D01*
X36701943Y10705257D01*
X36701943Y10848114D01*
X36773372Y10990971D01*
X36844800Y11062400D01*
X36987658Y11133829D01*
X37344800Y11133829D01*
X37559086Y11062400D01*
X38130514Y10990971D02*
X38201943Y11062400D01*
X38344800Y11133829D01*
X38701943Y11133829D01*
X38844800Y11062400D01*
X38916229Y10990971D01*
X38987657Y10848114D01*
X38987657Y10705257D01*
X38916229Y10490971D01*
X38059086Y9633829D01*
X38987657Y9633829D01*
X60892858Y47735543D02*
X61107144Y47664114D01*
X61178572Y47592686D01*
X61250001Y47449829D01*
X61250001Y47235543D01*
X61178572Y47092686D01*
X61107144Y47021257D01*
X60964286Y46949829D01*
X60392858Y46949829D01*
X60392858Y48449829D01*
X60892858Y48449829D01*
X61035715Y48378400D01*
X61107144Y48306971D01*
X61178572Y48164114D01*
X61178572Y48021257D01*
X61107144Y47878400D01*
X61035715Y47806971D01*
X60892858Y47735543D01*
X60392858Y47735543D01*
X61821429Y47378400D02*
X62535715Y47378400D01*
X61678572Y46949829D02*
X62178572Y48449829D01*
X62678572Y46949829D01*
X62964286Y48449829D02*
X63821429Y48449829D01*
X63392858Y46949829D02*
X63392858Y48449829D01*
X59928572Y33892857D02*
X61071429Y33892857D01*
X60500000Y33321429D02*
X60500000Y34464286D01*
X62928572Y33892857D02*
X64071429Y33892857D01*
X54904629Y36733943D02*
X54404629Y36733943D01*
X54404629Y35948229D02*
X54404629Y37448229D01*
X55118915Y37448229D01*
X55690343Y35948229D02*
X55690343Y37448229D01*
X56404629Y35948229D02*
X56404629Y37448229D01*
X57261772Y35948229D01*
X57261772Y37448229D01*
X57976058Y35948229D02*
X57976058Y37448229D01*
X58618915Y36019657D02*
X58833201Y35948229D01*
X59190344Y35948229D01*
X59333201Y36019657D01*
X59404630Y36091086D01*
X59476058Y36233943D01*
X59476058Y36376800D01*
X59404630Y36519657D01*
X59333201Y36591086D01*
X59190344Y36662514D01*
X58904630Y36733943D01*
X58761772Y36805371D01*
X58690344Y36876800D01*
X58618915Y37019657D01*
X58618915Y37162514D01*
X58690344Y37305371D01*
X58761772Y37376800D01*
X58904630Y37448229D01*
X59261772Y37448229D01*
X59476058Y37376800D01*
X59904629Y37448229D02*
X60761772Y37448229D01*
X60333201Y35948229D02*
X60333201Y37448229D01*
X61333200Y37448229D02*
X61190343Y37162514D01*
X62833201Y35948229D02*
X62333201Y36662514D01*
X61976058Y35948229D02*
X61976058Y37448229D01*
X62547486Y37448229D01*
X62690344Y37376800D01*
X62761772Y37305371D01*
X62833201Y37162514D01*
X62833201Y36948229D01*
X62761772Y36805371D01*
X62690344Y36733943D01*
X62547486Y36662514D01*
X61976058Y36662514D01*
X64333201Y36091086D02*
X64261772Y36019657D01*
X64047486Y35948229D01*
X63904629Y35948229D01*
X63690344Y36019657D01*
X63547486Y36162514D01*
X63476058Y36305371D01*
X63404629Y36591086D01*
X63404629Y36805371D01*
X63476058Y37091086D01*
X63547486Y37233943D01*
X63690344Y37376800D01*
X63904629Y37448229D01*
X64047486Y37448229D01*
X64261772Y37376800D01*
X64333201Y37305371D01*
X59428572Y44796257D02*
X60571429Y44796257D01*
X60000000Y44224829D02*
X60000000Y45367686D01*
X59428572Y42246257D02*
X60571429Y42246257D01*
X36621258Y40926629D02*
X36621258Y42426629D01*
X37121258Y41355200D01*
X37621258Y42426629D01*
X37621258Y40926629D01*
X39121258Y40926629D02*
X38264115Y40926629D01*
X38692687Y40926629D02*
X38692687Y42426629D01*
X38549830Y42212343D01*
X38406972Y42069486D01*
X38264115Y41998057D01*
X40906972Y40926629D02*
X40906972Y42426629D01*
X41406972Y41355200D01*
X41906972Y42426629D01*
X41906972Y40926629D01*
X42549829Y42283771D02*
X42621258Y42355200D01*
X42764115Y42426629D01*
X43121258Y42426629D01*
X43264115Y42355200D01*
X43335544Y42283771D01*
X43406972Y42140914D01*
X43406972Y41998057D01*
X43335544Y41783771D01*
X42478401Y40926629D01*
X43406972Y40926629D01*
D11*
X41951600Y21691600D02*
G75*
G03X41951600Y21691600I-500000J0D01*
G01*
D12*
X22904629Y36733943D02*
X22404629Y36733943D01*
X22404629Y35948229D02*
X22404629Y37448229D01*
X23118915Y37448229D01*
X23690343Y35948229D02*
X23690343Y37448229D01*
X24404629Y35948229D02*
X24404629Y37448229D01*
X25261772Y35948229D01*
X25261772Y37448229D01*
X25976058Y35948229D02*
X25976058Y37448229D01*
X26618915Y36019657D02*
X26833201Y35948229D01*
X27190344Y35948229D01*
X27333201Y36019657D01*
X27404630Y36091086D01*
X27476058Y36233943D01*
X27476058Y36376800D01*
X27404630Y36519657D01*
X27333201Y36591086D01*
X27190344Y36662514D01*
X26904630Y36733943D01*
X26761772Y36805371D01*
X26690344Y36876800D01*
X26618915Y37019657D01*
X26618915Y37162514D01*
X26690344Y37305371D01*
X26761772Y37376800D01*
X26904630Y37448229D01*
X27261772Y37448229D01*
X27476058Y37376800D01*
X27904629Y37448229D02*
X28761772Y37448229D01*
X28333201Y35948229D02*
X28333201Y37448229D01*
X29333200Y37448229D02*
X29190343Y37162514D01*
X30833201Y35948229D02*
X30333201Y36662514D01*
X29976058Y35948229D02*
X29976058Y37448229D01*
X30547486Y37448229D01*
X30690344Y37376800D01*
X30761772Y37305371D01*
X30833201Y37162514D01*
X30833201Y36948229D01*
X30761772Y36805371D01*
X30690344Y36733943D01*
X30547486Y36662514D01*
X29976058Y36662514D01*
X32333201Y36091086D02*
X32261772Y36019657D01*
X32047486Y35948229D01*
X31904629Y35948229D01*
X31690344Y36019657D01*
X31547486Y36162514D01*
X31476058Y36305371D01*
X31404629Y36591086D01*
X31404629Y36805371D01*
X31476058Y37091086D01*
X31547486Y37233943D01*
X31690344Y37376800D01*
X31904629Y37448229D01*
X32047486Y37448229D01*
X32261772Y37376800D01*
X32333201Y37305371D01*
X28892858Y47735543D02*
X29107144Y47664114D01*
X29178572Y47592686D01*
X29250001Y47449829D01*
X29250001Y47235543D01*
X29178572Y47092686D01*
X29107144Y47021257D01*
X28964286Y46949829D01*
X28392858Y46949829D01*
X28392858Y48449829D01*
X28892858Y48449829D01*
X29035715Y48378400D01*
X29107144Y48306971D01*
X29178572Y48164114D01*
X29178572Y48021257D01*
X29107144Y47878400D01*
X29035715Y47806971D01*
X28892858Y47735543D01*
X28392858Y47735543D01*
X29821429Y47378400D02*
X30535715Y47378400D01*
X29678572Y46949829D02*
X30178572Y48449829D01*
X30678572Y46949829D01*
X30964286Y48449829D02*
X31821429Y48449829D01*
X31392858Y46949829D02*
X31392858Y48449829D01*
X27428572Y30696429D02*
X26571429Y30696429D01*
X27000001Y30696429D02*
X27000001Y32196429D01*
X26857144Y31982143D01*
X26714286Y31839286D01*
X26571429Y31767857D01*
X26571429Y29503571D02*
X26642858Y29575000D01*
X26785715Y29646429D01*
X27142858Y29646429D01*
X27285715Y29575000D01*
X27357144Y29503571D01*
X27428572Y29360714D01*
X27428572Y29217857D01*
X27357144Y29003571D01*
X26500001Y28146429D01*
X27428572Y28146429D01*
X26500001Y27096429D02*
X27428572Y27096429D01*
X26928572Y26525000D01*
X27142858Y26525000D01*
X27285715Y26453571D01*
X27357144Y26382143D01*
X27428572Y26239286D01*
X27428572Y25882143D01*
X27357144Y25739286D01*
X27285715Y25667857D01*
X27142858Y25596429D01*
X26714286Y25596429D01*
X26571429Y25667857D01*
X26500001Y25739286D01*
X27285715Y24046429D02*
X27285715Y23046429D01*
X26928572Y24617857D02*
X26571429Y23546429D01*
X27500001Y23546429D01*
X27357144Y21996429D02*
X26642858Y21996429D01*
X26571429Y21282143D01*
X26642858Y21353571D01*
X26785715Y21425000D01*
X27142858Y21425000D01*
X27285715Y21353571D01*
X27357144Y21282143D01*
X27428572Y21139286D01*
X27428572Y20782143D01*
X27357144Y20639286D01*
X27285715Y20567857D01*
X27142858Y20496429D01*
X26785715Y20496429D01*
X26642858Y20567857D01*
X26571429Y20639286D01*
X27285715Y19446429D02*
X27000001Y19446429D01*
X26857144Y19375000D01*
X26785715Y19303571D01*
X26642858Y19089286D01*
X26571429Y18803571D01*
X26571429Y18232143D01*
X26642858Y18089286D01*
X26714286Y18017857D01*
X26857144Y17946429D01*
X27142858Y17946429D01*
X27285715Y18017857D01*
X27357144Y18089286D01*
X27428572Y18232143D01*
X27428572Y18589286D01*
X27357144Y18732143D01*
X27285715Y18803571D01*
X27142858Y18875000D01*
X26857144Y18875000D01*
X26714286Y18803571D01*
X26642858Y18732143D01*
X26571429Y18589286D01*
X27928572Y33892857D02*
X29071429Y33892857D01*
X28500000Y33321429D02*
X28500000Y34464286D01*
X30928572Y33892857D02*
X32071429Y33892857D01*
D11*
X9951600Y21691600D02*
G75*
G03X9951600Y21691600I-500000J0D01*
G01*
D12*
X3536629Y25361657D02*
X3750915Y25290229D01*
X4108058Y25290229D01*
X4250915Y25361657D01*
X4322344Y25433086D01*
X4393772Y25575943D01*
X4393772Y25718800D01*
X4322344Y25861657D01*
X4250915Y25933086D01*
X4108058Y26004514D01*
X3822344Y26075943D01*
X3679486Y26147371D01*
X3608058Y26218800D01*
X3536629Y26361657D01*
X3536629Y26504514D01*
X3608058Y26647371D01*
X3679486Y26718800D01*
X3822344Y26790229D01*
X4179486Y26790229D01*
X4393772Y26718800D01*
X3393772Y23311657D02*
X4536629Y23311657D01*
X3965200Y22740229D02*
X3965200Y23883086D01*
X3393772Y20761657D02*
X4536629Y20761657D01*
X3333429Y6667257D02*
X3547715Y6595829D01*
X3904858Y6595829D01*
X4047715Y6667257D01*
X4119144Y6738686D01*
X4190572Y6881543D01*
X4190572Y7024400D01*
X4119144Y7167257D01*
X4047715Y7238686D01*
X3904858Y7310114D01*
X3619144Y7381543D01*
X3476286Y7452971D01*
X3404858Y7524400D01*
X3333429Y7667257D01*
X3333429Y7810114D01*
X3404858Y7952971D01*
X3476286Y8024400D01*
X3619144Y8095829D01*
X3976286Y8095829D01*
X4190572Y8024400D01*
X3190572Y4617257D02*
X4333429Y4617257D01*
X3762000Y4045829D02*
X3762000Y5188686D01*
X3190572Y2067257D02*
X4333429Y2067257D01*
X4701943Y9705257D02*
X4916229Y9633829D01*
X5273372Y9633829D01*
X5416229Y9705257D01*
X5487658Y9776686D01*
X5559086Y9919543D01*
X5559086Y10062400D01*
X5487658Y10205257D01*
X5416229Y10276686D01*
X5273372Y10348114D01*
X4987658Y10419543D01*
X4844800Y10490971D01*
X4773372Y10562400D01*
X4701943Y10705257D01*
X4701943Y10848114D01*
X4773372Y10990971D01*
X4844800Y11062400D01*
X4987658Y11133829D01*
X5344800Y11133829D01*
X5559086Y11062400D01*
X6130514Y10990971D02*
X6201943Y11062400D01*
X6344800Y11133829D01*
X6701943Y11133829D01*
X6844800Y11062400D01*
X6916229Y10990971D01*
X6987657Y10848114D01*
X6987657Y10705257D01*
X6916229Y10490971D01*
X6059086Y9633829D01*
X6987657Y9633829D01*
X3279543Y17884057D02*
X3493829Y17812629D01*
X3850972Y17812629D01*
X3993829Y17884057D01*
X4065258Y17955486D01*
X4136686Y18098343D01*
X4136686Y18241200D01*
X4065258Y18384057D01*
X3993829Y18455486D01*
X3850972Y18526914D01*
X3565258Y18598343D01*
X3422400Y18669771D01*
X3350972Y18741200D01*
X3279543Y18884057D01*
X3279543Y19026914D01*
X3350972Y19169771D01*
X3422400Y19241200D01*
X3565258Y19312629D01*
X3922400Y19312629D01*
X4136686Y19241200D01*
X5565257Y17812629D02*
X4708114Y17812629D01*
X5136686Y17812629D02*
X5136686Y19312629D01*
X4993829Y19098343D01*
X4850971Y18955486D01*
X4708114Y18884057D01*
X26678571Y1535715D02*
X25178571Y1535715D01*
X26607143Y2178572D02*
X26678571Y2392858D01*
X26678571Y2750001D01*
X26607143Y2892858D01*
X26535714Y2964287D01*
X26392857Y3035715D01*
X26250000Y3035715D01*
X26107143Y2964287D01*
X26035714Y2892858D01*
X25964286Y2750001D01*
X25892857Y2464287D01*
X25821429Y2321429D01*
X25750000Y2250001D01*
X25607143Y2178572D01*
X25464286Y2178572D01*
X25321429Y2250001D01*
X25250000Y2321429D01*
X25178571Y2464287D01*
X25178571Y2821429D01*
X25250000Y3035715D01*
X26678571Y3678572D02*
X25178571Y3678572D01*
X25178571Y4250000D01*
X25250000Y4392858D01*
X25321429Y4464286D01*
X25464286Y4535715D01*
X25678571Y4535715D01*
X25821429Y4464286D01*
X25892857Y4392858D01*
X25964286Y4250000D01*
X25964286Y3678572D01*
X4621258Y40926629D02*
X4621258Y42426629D01*
X5121258Y41355200D01*
X5621258Y42426629D01*
X5621258Y40926629D01*
X7121258Y40926629D02*
X6264115Y40926629D01*
X6692687Y40926629D02*
X6692687Y42426629D01*
X6549830Y42212343D01*
X6406972Y42069486D01*
X6264115Y41998057D01*
X8906972Y40926629D02*
X8906972Y42426629D01*
X9406972Y41355200D01*
X9906972Y42426629D01*
X9906972Y40926629D01*
X10549829Y42283771D02*
X10621258Y42355200D01*
X10764115Y42426629D01*
X11121258Y42426629D01*
X11264115Y42355200D01*
X11335544Y42283771D01*
X11406972Y42140914D01*
X11406972Y41998057D01*
X11335544Y41783771D01*
X10478401Y40926629D01*
X11406972Y40926629D01*
X27428572Y44796257D02*
X28571429Y44796257D01*
X28000000Y44224829D02*
X28000000Y45367686D01*
X27428572Y42246257D02*
X28571429Y42246257D01*
D13*
X29715566Y83044476D02*
X29715566Y83544476D01*
X28665566Y83544476D02*
X28665566Y83044476D01*
X28919566Y85576476D02*
X28919566Y85076476D01*
X29969566Y85076476D02*
X29969566Y85576476D01*
X31443566Y84002476D02*
X31443566Y84502476D01*
X30493566Y84502476D02*
X30493566Y84002476D01*
X31443566Y86246476D02*
X31443566Y86746476D01*
X30493566Y86746476D02*
X30493566Y86246476D01*
X24864566Y74484276D02*
X23864566Y74484276D01*
X23864566Y75834276D02*
X24864566Y75834276D01*
X31272566Y75108476D02*
X31272566Y80188476D01*
X31272566Y80188476D02*
X28732566Y80188476D01*
X28732566Y80188476D02*
X28732566Y75108476D01*
X28452566Y72288476D02*
X28452566Y73838476D01*
X28732566Y75108476D02*
X31272566Y75108476D01*
X31552566Y73838476D02*
X31552566Y72288476D01*
X31552566Y72288476D02*
X28452566Y72288476D01*
X24864566Y73061876D02*
X23864566Y73061876D01*
X23864566Y74411876D02*
X24864566Y74411876D01*
X26029166Y74684754D02*
X26029166Y74184754D01*
X27079166Y74184754D02*
X27079166Y74684754D01*
X29752566Y81983476D02*
X29252566Y81983476D01*
X29252566Y80933476D02*
X29752566Y80933476D01*
D14*
X26948566Y98806476D02*
X26948566Y93472476D01*
X26948566Y93472476D02*
X16280566Y93472476D01*
X16280566Y93472476D02*
X16280566Y98806476D01*
X16280566Y98806476D02*
X16280566Y98806476D01*
X26440566Y96266476D02*
X24154566Y96266476D01*
X24154566Y96266476D02*
X24154566Y98552476D01*
X24154566Y98552476D02*
X24154566Y98552476D01*
X27524566Y99136476D02*
X27524566Y69936476D01*
X27524566Y69936476D02*
X12074566Y69936476D01*
X12074566Y69936476D02*
X12074566Y99136476D01*
X12074566Y99136476D02*
X27524566Y99136476D01*
X27524566Y99136476D02*
X27524566Y99136476D01*
X16280566Y98806476D02*
X26948566Y98806476D01*
X26948566Y98806476D02*
X26948566Y98806476D01*
D13*
X19978766Y90656476D02*
X19978766Y90156476D01*
X21028766Y90156476D02*
X21028766Y90656476D01*
X31222566Y93686476D02*
X31222566Y98766476D01*
X31222566Y98766476D02*
X28682566Y98766476D01*
X28682566Y98766476D02*
X28682566Y93686476D01*
X28402566Y90866476D02*
X28402566Y92416476D01*
X28682566Y93686476D02*
X31222566Y93686476D01*
X31502566Y92416476D02*
X31502566Y90866476D01*
X31502566Y90866476D02*
X28402566Y90866476D01*
X21401166Y90649276D02*
X21401166Y90149276D01*
X22451166Y90149276D02*
X22451166Y90649276D01*
X11012566Y85315476D02*
X11512566Y85315476D01*
X11512566Y86265476D02*
X11012566Y86265476D01*
X12368566Y80857876D02*
X11868566Y80857876D01*
X11868566Y79807876D02*
X12368566Y79807876D01*
X12434566Y83697476D02*
X11934566Y83697476D01*
X11934566Y82647476D02*
X12434566Y82647476D01*
X12434566Y78197476D02*
X11934566Y78197476D01*
X11934566Y77147476D02*
X12434566Y77147476D01*
X25969566Y79121476D02*
X25969566Y79446476D01*
X18719566Y79121476D02*
X18719566Y79446476D01*
X18719566Y86371476D02*
X18719566Y86046476D01*
X25969566Y86371476D02*
X25969566Y86046476D01*
X25969566Y79121476D02*
X25644566Y79121476D01*
X25969566Y86371476D02*
X25644566Y86371476D01*
X18719566Y86371476D02*
X19044566Y86371476D01*
X18719566Y79121476D02*
X19044566Y79121476D01*
X25969566Y79446476D02*
X27394566Y79446476D01*
X3282566Y96444476D02*
X3282566Y91364476D01*
X3002566Y99264476D02*
X4552566Y99264476D01*
X5822566Y98984476D02*
X5822566Y96444476D01*
X5822566Y96444476D02*
X3282566Y96444476D01*
X3282566Y91364476D02*
X8362566Y91364476D01*
X8362566Y91364476D02*
X8362566Y96444476D01*
X3002566Y99264476D02*
X3002566Y97714476D01*
X8362566Y98984476D02*
X5822566Y98984476D01*
X8362566Y96444476D02*
X8362566Y98984476D01*
X8579566Y85170476D02*
X8579566Y85670476D01*
X7529566Y85670476D02*
X7529566Y85170476D01*
X3284566Y86640476D02*
X3284566Y89180476D01*
X3004566Y83820476D02*
X3004566Y85370476D01*
X3284566Y86640476D02*
X5824566Y86640476D01*
X6104566Y85370476D02*
X6104566Y83820476D01*
X6104566Y83820476D02*
X3004566Y83820476D01*
X5824566Y86640476D02*
X5824566Y89180476D01*
X5824566Y89180476D02*
X3284566Y89180476D01*
X8579566Y87820476D02*
X8579566Y88320476D01*
X7529566Y88320476D02*
X7529566Y87820476D01*
X40579566Y87820476D02*
X40579566Y88320476D01*
X39529566Y88320476D02*
X39529566Y87820476D01*
X40579566Y85170476D02*
X40579566Y85670476D01*
X39529566Y85670476D02*
X39529566Y85170476D01*
X35284566Y86640476D02*
X35284566Y89180476D01*
X35004566Y83820476D02*
X35004566Y85370476D01*
X35284566Y86640476D02*
X37824566Y86640476D01*
X38104566Y85370476D02*
X38104566Y83820476D01*
X38104566Y83820476D02*
X35004566Y83820476D01*
X37824566Y86640476D02*
X37824566Y89180476D01*
X37824566Y89180476D02*
X35284566Y89180476D01*
X35282566Y96444476D02*
X35282566Y91364476D01*
X35002566Y99264476D02*
X36552566Y99264476D01*
X37822566Y98984476D02*
X37822566Y96444476D01*
X37822566Y96444476D02*
X35282566Y96444476D01*
X35282566Y91364476D02*
X40362566Y91364476D01*
X40362566Y91364476D02*
X40362566Y96444476D01*
X35002566Y99264476D02*
X35002566Y97714476D01*
X40362566Y98984476D02*
X37822566Y98984476D01*
X40362566Y96444476D02*
X40362566Y98984476D01*
X43012566Y85315476D02*
X43512566Y85315476D01*
X43512566Y86265476D02*
X43012566Y86265476D01*
X75012566Y85315476D02*
X75512566Y85315476D01*
X75512566Y86265476D02*
X75012566Y86265476D01*
X67284566Y86640476D02*
X67284566Y89180476D01*
X67004566Y83820476D02*
X67004566Y85370476D01*
X67284566Y86640476D02*
X69824566Y86640476D01*
X70104566Y85370476D02*
X70104566Y83820476D01*
X70104566Y83820476D02*
X67004566Y83820476D01*
X69824566Y86640476D02*
X69824566Y89180476D01*
X69824566Y89180476D02*
X67284566Y89180476D01*
X72579566Y87820476D02*
X72579566Y88320476D01*
X71529566Y88320476D02*
X71529566Y87820476D01*
X72579566Y85170476D02*
X72579566Y85670476D01*
X71529566Y85670476D02*
X71529566Y85170476D01*
X76434566Y83697476D02*
X75934566Y83697476D01*
X75934566Y82647476D02*
X76434566Y82647476D01*
X67164566Y82562476D02*
X67164566Y67322476D01*
X72244566Y69862476D02*
X72244566Y82562476D01*
X67164566Y82562476D02*
X72244566Y82562476D01*
X67164566Y67322476D02*
X69704566Y67322476D01*
X70974566Y67042476D02*
X72524566Y67042476D01*
X69704566Y67322476D02*
X69704566Y69862476D01*
X69704566Y69862476D02*
X72244566Y69862476D01*
X72524566Y67042476D02*
X72524566Y68592476D01*
X93752566Y81983476D02*
X93252566Y81983476D01*
X93252566Y80933476D02*
X93752566Y80933476D01*
X92919566Y85576476D02*
X92919566Y85076476D01*
X93969566Y85076476D02*
X93969566Y85576476D01*
X95443566Y86246476D02*
X95443566Y86746476D01*
X94493566Y86746476D02*
X94493566Y86246476D01*
X95443566Y84002476D02*
X95443566Y84502476D01*
X94493566Y84502476D02*
X94493566Y84002476D01*
X93715566Y83044476D02*
X93715566Y83544476D01*
X92665566Y83544476D02*
X92665566Y83044476D01*
X83978766Y90656476D02*
X83978766Y90156476D01*
X85028766Y90156476D02*
X85028766Y90656476D01*
X85401166Y90649276D02*
X85401166Y90149276D01*
X86451166Y90149276D02*
X86451166Y90649276D01*
D14*
X90948566Y98806476D02*
X90948566Y93472476D01*
X90948566Y93472476D02*
X80280566Y93472476D01*
X80280566Y93472476D02*
X80280566Y98806476D01*
X80280566Y98806476D02*
X80280566Y98806476D01*
X90440566Y96266476D02*
X88154566Y96266476D01*
X88154566Y96266476D02*
X88154566Y98552476D01*
X88154566Y98552476D02*
X88154566Y98552476D01*
X91524566Y99136476D02*
X91524566Y69936476D01*
X91524566Y69936476D02*
X76074566Y69936476D01*
X76074566Y69936476D02*
X76074566Y99136476D01*
X76074566Y99136476D02*
X91524566Y99136476D01*
X91524566Y99136476D02*
X91524566Y99136476D01*
X80280566Y98806476D02*
X90948566Y98806476D01*
X90948566Y98806476D02*
X90948566Y98806476D01*
D13*
X89969566Y79121476D02*
X89969566Y79446476D01*
X82719566Y79121476D02*
X82719566Y79446476D01*
X82719566Y86371476D02*
X82719566Y86046476D01*
X89969566Y86371476D02*
X89969566Y86046476D01*
X89969566Y79121476D02*
X89644566Y79121476D01*
X89969566Y86371476D02*
X89644566Y86371476D01*
X82719566Y86371476D02*
X83044566Y86371476D01*
X82719566Y79121476D02*
X83044566Y79121476D01*
X89969566Y79446476D02*
X91394566Y79446476D01*
X95222566Y93686476D02*
X95222566Y98766476D01*
X95222566Y98766476D02*
X92682566Y98766476D01*
X92682566Y98766476D02*
X92682566Y93686476D01*
X92402566Y90866476D02*
X92402566Y92416476D01*
X92682566Y93686476D02*
X95222566Y93686476D01*
X95502566Y92416476D02*
X95502566Y90866476D01*
X95502566Y90866476D02*
X92402566Y90866476D01*
X67282566Y96444476D02*
X67282566Y91364476D01*
X67002566Y99264476D02*
X68552566Y99264476D01*
X69822566Y98984476D02*
X69822566Y96444476D01*
X69822566Y96444476D02*
X67282566Y96444476D01*
X67282566Y91364476D02*
X72362566Y91364476D01*
X72362566Y91364476D02*
X72362566Y96444476D01*
X67002566Y99264476D02*
X67002566Y97714476D01*
X72362566Y98984476D02*
X69822566Y98984476D01*
X72362566Y96444476D02*
X72362566Y98984476D01*
X90029166Y74684754D02*
X90029166Y74184754D01*
X91079166Y74184754D02*
X91079166Y74684754D01*
X88864566Y74484276D02*
X87864566Y74484276D01*
X87864566Y75834276D02*
X88864566Y75834276D01*
X88864566Y73061876D02*
X87864566Y73061876D01*
X87864566Y74411876D02*
X88864566Y74411876D01*
X95272566Y75108476D02*
X95272566Y80188476D01*
X95272566Y80188476D02*
X92732566Y80188476D01*
X92732566Y80188476D02*
X92732566Y75108476D01*
X92452566Y72288476D02*
X92452566Y73838476D01*
X92732566Y75108476D02*
X95272566Y75108476D01*
X95552566Y73838476D02*
X95552566Y72288476D01*
X95552566Y72288476D02*
X92452566Y72288476D01*
X95204166Y70684754D02*
X95204166Y71384754D01*
X96404166Y71384754D02*
X96404166Y70684754D01*
X76368566Y80857876D02*
X75868566Y80857876D01*
X75868566Y79807876D02*
X76368566Y79807876D01*
X76434566Y78197476D02*
X75934566Y78197476D01*
X75934566Y77147476D02*
X76434566Y77147476D01*
X76234566Y75447476D02*
X75734566Y75447476D01*
X75734566Y74397476D02*
X76234566Y74397476D01*
X76234566Y72447476D02*
X75734566Y72447476D01*
X75734566Y71397476D02*
X76234566Y71397476D01*
X79631541Y56745817D02*
X79631541Y57445817D01*
X80831541Y57445817D02*
X80831541Y56745817D01*
X79736566Y53430476D02*
X80736566Y53430476D01*
X80736566Y55130476D02*
X79736566Y55130476D01*
D14*
X73373541Y55714817D02*
X73373541Y61302817D01*
X78961541Y61302817D02*
X78961541Y55714817D01*
D13*
X80831541Y60263817D02*
X80831541Y59563817D01*
X79631541Y59563817D02*
X79631541Y60263817D01*
X68542566Y56692076D02*
X68542566Y59232076D01*
X68262566Y53872076D02*
X68262566Y55422076D01*
X68542566Y56692076D02*
X71082566Y56692076D01*
X71362566Y55422076D02*
X71362566Y53872076D01*
X71362566Y53872076D02*
X68262566Y53872076D01*
X71082566Y56692076D02*
X71082566Y59232076D01*
X71082566Y59232076D02*
X68542566Y59232076D01*
X79736566Y51398476D02*
X80736566Y51398476D01*
X80736566Y53098476D02*
X79736566Y53098476D01*
X79990566Y64915629D02*
X80990566Y64915629D01*
X80990566Y66615629D02*
X79990566Y66615629D01*
X76184566Y69447476D02*
X75684566Y69447476D01*
X75684566Y68397476D02*
X76184566Y68397476D01*
X79990566Y67146476D02*
X80990566Y67146476D01*
X80990566Y68846476D02*
X79990566Y68846476D01*
X80006566Y62574476D02*
X81006566Y62574476D01*
X81006566Y64274476D02*
X80006566Y64274476D01*
X83034566Y61375476D02*
X83534566Y61375476D01*
X83534566Y62425476D02*
X83034566Y62425476D01*
X85066566Y61375476D02*
X85566566Y61375476D01*
X85566566Y62425476D02*
X85066566Y62425476D01*
X83034566Y54517476D02*
X83534566Y54517476D01*
X83534566Y55567476D02*
X83034566Y55567476D01*
D15*
X85614541Y55837817D02*
X85614541Y57107817D01*
X84344541Y55837817D02*
X85614541Y55837817D01*
D13*
X81449541Y56752817D02*
X81449541Y57252817D01*
X84699541Y60002817D02*
X84699541Y59502817D01*
X81449541Y60002817D02*
X81449541Y59502817D01*
X84699541Y56752817D02*
X84199541Y56752817D01*
X84699541Y60002817D02*
X84199541Y60002817D01*
X81449541Y60002817D02*
X81949541Y60002817D01*
X81449541Y56752817D02*
X81949541Y56752817D01*
X85254166Y72159754D02*
X86254166Y72159754D01*
X86254166Y70809754D02*
X85254166Y70809754D01*
X85254166Y70659754D02*
X86254166Y70659754D01*
X86254166Y69309754D02*
X85254166Y69309754D01*
X95443566Y67492476D02*
X95443566Y67992476D01*
X94493566Y67992476D02*
X94493566Y67492476D01*
X91154166Y65298476D02*
X91154166Y64598476D01*
X89954166Y64598476D02*
X89954166Y65298476D01*
X92669166Y67584754D02*
X91894166Y67584754D01*
X88369166Y71884754D02*
X89144166Y71884754D01*
X88369166Y67584754D02*
X89144166Y67584754D01*
X92669166Y71884754D02*
X92669166Y71109754D01*
X88369166Y71884754D02*
X88369166Y71109754D01*
X88369166Y67584754D02*
X88369166Y68359754D01*
X92669166Y67584754D02*
X92669166Y68359754D01*
X93704166Y69934754D02*
X93704166Y70634754D01*
X94904166Y70634754D02*
X94904166Y69934754D01*
X95628966Y54128076D02*
X95628966Y51588076D01*
X95908966Y56948076D02*
X95908966Y55398076D01*
X95628966Y54128076D02*
X93088966Y54128076D01*
X92808966Y55398076D02*
X92808966Y56948076D01*
X92808966Y56948076D02*
X95908966Y56948076D01*
X93088966Y54128076D02*
X93088966Y51588076D01*
X93088966Y51588076D02*
X95628966Y51588076D01*
X87090566Y59581476D02*
X86590566Y59581476D01*
X86590566Y58631476D02*
X87090566Y58631476D01*
X90802966Y54128076D02*
X90802966Y51588076D01*
X91082966Y56948076D02*
X91082966Y55398076D01*
X90802966Y54128076D02*
X88262966Y54128076D01*
X87982966Y55398076D02*
X87982966Y56948076D01*
X87982966Y56948076D02*
X91082966Y56948076D01*
X88262966Y54128076D02*
X88262966Y51588076D01*
X88262966Y51588076D02*
X90802966Y51588076D01*
X87286566Y58361476D02*
X86786566Y58361476D01*
X86786566Y57311476D02*
X87286566Y57311476D01*
X16831541Y60263817D02*
X16831541Y59563817D01*
X15631541Y59563817D02*
X15631541Y60263817D01*
X15631541Y56745817D02*
X15631541Y57445817D01*
X16831541Y57445817D02*
X16831541Y56745817D01*
D14*
X9373541Y55714817D02*
X9373541Y61302817D01*
X14961541Y61302817D02*
X14961541Y55714817D01*
D13*
X15736566Y51398476D02*
X16736566Y51398476D01*
X16736566Y53098476D02*
X15736566Y53098476D01*
X15736566Y53430476D02*
X16736566Y53430476D01*
X16736566Y55130476D02*
X15736566Y55130476D01*
X21254166Y70659754D02*
X22254166Y70659754D01*
X22254166Y69309754D02*
X21254166Y69309754D01*
X15990566Y67146476D02*
X16990566Y67146476D01*
X16990566Y68846476D02*
X15990566Y68846476D01*
X12184566Y69447476D02*
X11684566Y69447476D01*
X11684566Y68397476D02*
X12184566Y68397476D01*
X21254166Y72159754D02*
X22254166Y72159754D01*
X22254166Y70809754D02*
X21254166Y70809754D01*
X15990566Y64915629D02*
X16990566Y64915629D01*
X16990566Y66615629D02*
X15990566Y66615629D01*
X16006566Y62574476D02*
X17006566Y62574476D01*
X17006566Y64274476D02*
X16006566Y64274476D01*
X23286566Y58361476D02*
X22786566Y58361476D01*
X22786566Y57311476D02*
X23286566Y57311476D01*
X26802966Y54128076D02*
X26802966Y51588076D01*
X27082966Y56948076D02*
X27082966Y55398076D01*
X26802966Y54128076D02*
X24262966Y54128076D01*
X23982966Y55398076D02*
X23982966Y56948076D01*
X23982966Y56948076D02*
X27082966Y56948076D01*
X24262966Y54128076D02*
X24262966Y51588076D01*
X24262966Y51588076D02*
X26802966Y51588076D01*
X31628966Y54128076D02*
X31628966Y51588076D01*
X31908966Y56948076D02*
X31908966Y55398076D01*
X31628966Y54128076D02*
X29088966Y54128076D01*
X28808966Y55398076D02*
X28808966Y56948076D01*
X28808966Y56948076D02*
X31908966Y56948076D01*
X29088966Y54128076D02*
X29088966Y51588076D01*
X29088966Y51588076D02*
X31628966Y51588076D01*
X19034566Y61375476D02*
X19534566Y61375476D01*
X19534566Y62425476D02*
X19034566Y62425476D01*
X21066566Y61375476D02*
X21566566Y61375476D01*
X21566566Y62425476D02*
X21066566Y62425476D01*
D15*
X21614541Y55837817D02*
X21614541Y57107817D01*
X20344541Y55837817D02*
X21614541Y55837817D01*
D13*
X17449541Y56752817D02*
X17449541Y57252817D01*
X20699541Y60002817D02*
X20699541Y59502817D01*
X17449541Y60002817D02*
X17449541Y59502817D01*
X20699541Y56752817D02*
X20199541Y56752817D01*
X20699541Y60002817D02*
X20199541Y60002817D01*
X17449541Y60002817D02*
X17949541Y60002817D01*
X17449541Y56752817D02*
X17949541Y56752817D01*
X23090566Y59581476D02*
X22590566Y59581476D01*
X22590566Y58631476D02*
X23090566Y58631476D01*
X19034566Y54517476D02*
X19534566Y54517476D01*
X19534566Y55567476D02*
X19034566Y55567476D01*
X12234566Y75447476D02*
X11734566Y75447476D01*
X11734566Y74397476D02*
X12234566Y74397476D01*
X4542566Y56692076D02*
X4542566Y59232076D01*
X4262566Y53872076D02*
X4262566Y55422076D01*
X4542566Y56692076D02*
X7082566Y56692076D01*
X7362566Y55422076D02*
X7362566Y53872076D01*
X7362566Y53872076D02*
X4262566Y53872076D01*
X7082566Y56692076D02*
X7082566Y59232076D01*
X7082566Y59232076D02*
X4542566Y59232076D01*
X12234566Y72447476D02*
X11734566Y72447476D01*
X11734566Y71397476D02*
X12234566Y71397476D01*
X3164566Y82562476D02*
X3164566Y67322476D01*
X8244566Y69862476D02*
X8244566Y82562476D01*
X3164566Y82562476D02*
X8244566Y82562476D01*
X3164566Y67322476D02*
X5704566Y67322476D01*
X6974566Y67042476D02*
X8524566Y67042476D01*
X5704566Y67322476D02*
X5704566Y69862476D01*
X5704566Y69862476D02*
X8244566Y69862476D01*
X8524566Y67042476D02*
X8524566Y68592476D01*
X28669166Y67584754D02*
X27894166Y67584754D01*
X24369166Y71884754D02*
X25144166Y71884754D01*
X24369166Y67584754D02*
X25144166Y67584754D01*
X28669166Y71884754D02*
X28669166Y71109754D01*
X24369166Y71884754D02*
X24369166Y71109754D01*
X24369166Y67584754D02*
X24369166Y68359754D01*
X28669166Y67584754D02*
X28669166Y68359754D01*
X29704166Y69934754D02*
X29704166Y70634754D01*
X30904166Y70634754D02*
X30904166Y69934754D01*
X31443566Y67492476D02*
X31443566Y67992476D01*
X30493566Y67992476D02*
X30493566Y67492476D01*
X31204166Y70684754D02*
X31204166Y71384754D01*
X32404166Y71384754D02*
X32404166Y70684754D01*
X27154166Y65298476D02*
X27154166Y64598476D01*
X25954166Y64598476D02*
X25954166Y65298476D01*
X36542566Y56692076D02*
X36542566Y59232076D01*
X36262566Y53872076D02*
X36262566Y55422076D01*
X36542566Y56692076D02*
X39082566Y56692076D01*
X39362566Y55422076D02*
X39362566Y53872076D01*
X39362566Y53872076D02*
X36262566Y53872076D01*
X39082566Y56692076D02*
X39082566Y59232076D01*
X39082566Y59232076D02*
X36542566Y59232076D01*
X44368566Y80857876D02*
X43868566Y80857876D01*
X43868566Y79807876D02*
X44368566Y79807876D01*
X44234566Y75447476D02*
X43734566Y75447476D01*
X43734566Y74397476D02*
X44234566Y74397476D01*
X35164566Y82562476D02*
X35164566Y67322476D01*
X40244566Y69862476D02*
X40244566Y82562476D01*
X35164566Y82562476D02*
X40244566Y82562476D01*
X35164566Y67322476D02*
X37704566Y67322476D01*
X38974566Y67042476D02*
X40524566Y67042476D01*
X37704566Y67322476D02*
X37704566Y69862476D01*
X37704566Y69862476D02*
X40244566Y69862476D01*
X40524566Y67042476D02*
X40524566Y68592476D01*
X44434566Y78197476D02*
X43934566Y78197476D01*
X43934566Y77147476D02*
X44434566Y77147476D01*
X44434566Y83697476D02*
X43934566Y83697476D01*
X43934566Y82647476D02*
X44434566Y82647476D01*
X61715566Y83044476D02*
X61715566Y83544476D01*
X60665566Y83544476D02*
X60665566Y83044476D01*
X61752566Y81983476D02*
X61252566Y81983476D01*
X61252566Y80933476D02*
X61752566Y80933476D01*
X63272566Y75108476D02*
X63272566Y80188476D01*
X63272566Y80188476D02*
X60732566Y80188476D01*
X60732566Y80188476D02*
X60732566Y75108476D01*
X60452566Y72288476D02*
X60452566Y73838476D01*
X60732566Y75108476D02*
X63272566Y75108476D01*
X63552566Y73838476D02*
X63552566Y72288476D01*
X63552566Y72288476D02*
X60452566Y72288476D01*
X60919566Y85576476D02*
X60919566Y85076476D01*
X61969566Y85076476D02*
X61969566Y85576476D01*
X63443566Y84002476D02*
X63443566Y84502476D01*
X62493566Y84502476D02*
X62493566Y84002476D01*
X63443566Y86246476D02*
X63443566Y86746476D01*
X62493566Y86746476D02*
X62493566Y86246476D01*
X63222566Y93686476D02*
X63222566Y98766476D01*
X63222566Y98766476D02*
X60682566Y98766476D01*
X60682566Y98766476D02*
X60682566Y93686476D01*
X60402566Y90866476D02*
X60402566Y92416476D01*
X60682566Y93686476D02*
X63222566Y93686476D01*
X63502566Y92416476D02*
X63502566Y90866476D01*
X63502566Y90866476D02*
X60402566Y90866476D01*
X53401166Y90649276D02*
X53401166Y90149276D01*
X54451166Y90149276D02*
X54451166Y90649276D01*
X51978766Y90656476D02*
X51978766Y90156476D01*
X53028766Y90156476D02*
X53028766Y90656476D01*
D14*
X58948566Y98806476D02*
X58948566Y93472476D01*
X58948566Y93472476D02*
X48280566Y93472476D01*
X48280566Y93472476D02*
X48280566Y98806476D01*
X48280566Y98806476D02*
X48280566Y98806476D01*
X58440566Y96266476D02*
X56154566Y96266476D01*
X56154566Y96266476D02*
X56154566Y98552476D01*
X56154566Y98552476D02*
X56154566Y98552476D01*
X59524566Y99136476D02*
X59524566Y69936476D01*
X59524566Y69936476D02*
X44074566Y69936476D01*
X44074566Y69936476D02*
X44074566Y99136476D01*
X44074566Y99136476D02*
X59524566Y99136476D01*
X59524566Y99136476D02*
X59524566Y99136476D01*
X48280566Y98806476D02*
X58948566Y98806476D01*
X58948566Y98806476D02*
X58948566Y98806476D01*
D13*
X58029166Y74684754D02*
X58029166Y74184754D01*
X59079166Y74184754D02*
X59079166Y74684754D01*
X56864566Y74484276D02*
X55864566Y74484276D01*
X55864566Y75834276D02*
X56864566Y75834276D01*
X57969566Y79121476D02*
X57969566Y79446476D01*
X50719566Y79121476D02*
X50719566Y79446476D01*
X50719566Y86371476D02*
X50719566Y86046476D01*
X57969566Y86371476D02*
X57969566Y86046476D01*
X57969566Y79121476D02*
X57644566Y79121476D01*
X57969566Y86371476D02*
X57644566Y86371476D01*
X50719566Y86371476D02*
X51044566Y86371476D01*
X50719566Y79121476D02*
X51044566Y79121476D01*
X57969566Y79446476D02*
X59394566Y79446476D01*
X53254166Y72159754D02*
X54254166Y72159754D01*
X54254166Y70809754D02*
X53254166Y70809754D01*
X56864566Y73061876D02*
X55864566Y73061876D01*
X55864566Y74411876D02*
X56864566Y74411876D01*
X48006566Y62574476D02*
X49006566Y62574476D01*
X49006566Y64274476D02*
X48006566Y64274476D01*
X44184566Y69447476D02*
X43684566Y69447476D01*
X43684566Y68397476D02*
X44184566Y68397476D01*
X44234566Y72447476D02*
X43734566Y72447476D01*
X43734566Y71397476D02*
X44234566Y71397476D01*
X47990566Y64915629D02*
X48990566Y64915629D01*
X48990566Y66615629D02*
X47990566Y66615629D01*
X47990566Y67146476D02*
X48990566Y67146476D01*
X48990566Y68846476D02*
X47990566Y68846476D01*
X51034566Y61375476D02*
X51534566Y61375476D01*
X51534566Y62425476D02*
X51034566Y62425476D01*
X48831541Y60263817D02*
X48831541Y59563817D01*
X47631541Y59563817D02*
X47631541Y60263817D01*
X47736566Y53430476D02*
X48736566Y53430476D01*
X48736566Y55130476D02*
X47736566Y55130476D01*
X47736566Y51398476D02*
X48736566Y51398476D01*
X48736566Y53098476D02*
X47736566Y53098476D01*
D15*
X53614541Y55837817D02*
X53614541Y57107817D01*
X52344541Y55837817D02*
X53614541Y55837817D01*
D13*
X49449541Y56752817D02*
X49449541Y57252817D01*
X52699541Y60002817D02*
X52699541Y59502817D01*
X49449541Y60002817D02*
X49449541Y59502817D01*
X52699541Y56752817D02*
X52199541Y56752817D01*
X52699541Y60002817D02*
X52199541Y60002817D01*
X49449541Y60002817D02*
X49949541Y60002817D01*
X49449541Y56752817D02*
X49949541Y56752817D01*
X47631541Y56745817D02*
X47631541Y57445817D01*
X48831541Y57445817D02*
X48831541Y56745817D01*
D14*
X41373541Y55714817D02*
X41373541Y61302817D01*
X46961541Y61302817D02*
X46961541Y55714817D01*
D13*
X51034566Y54517476D02*
X51534566Y54517476D01*
X51534566Y55567476D02*
X51034566Y55567476D01*
X59154166Y65298476D02*
X59154166Y64598476D01*
X57954166Y64598476D02*
X57954166Y65298476D01*
X53254166Y70659754D02*
X54254166Y70659754D01*
X54254166Y69309754D02*
X53254166Y69309754D01*
X63443566Y67492476D02*
X63443566Y67992476D01*
X62493566Y67992476D02*
X62493566Y67492476D01*
X63204166Y70684754D02*
X63204166Y71384754D01*
X64404166Y71384754D02*
X64404166Y70684754D01*
X60669166Y67584754D02*
X59894166Y67584754D01*
X56369166Y71884754D02*
X57144166Y71884754D01*
X56369166Y67584754D02*
X57144166Y67584754D01*
X60669166Y71884754D02*
X60669166Y71109754D01*
X56369166Y71884754D02*
X56369166Y71109754D01*
X56369166Y67584754D02*
X56369166Y68359754D01*
X60669166Y67584754D02*
X60669166Y68359754D01*
X61704166Y69934754D02*
X61704166Y70634754D01*
X62904166Y70634754D02*
X62904166Y69934754D01*
X58802966Y54128076D02*
X58802966Y51588076D01*
X59082966Y56948076D02*
X59082966Y55398076D01*
X58802966Y54128076D02*
X56262966Y54128076D01*
X55982966Y55398076D02*
X55982966Y56948076D01*
X55982966Y56948076D02*
X59082966Y56948076D01*
X56262966Y54128076D02*
X56262966Y51588076D01*
X56262966Y51588076D02*
X58802966Y51588076D01*
X55090566Y59581476D02*
X54590566Y59581476D01*
X54590566Y58631476D02*
X55090566Y58631476D01*
X55286566Y58361476D02*
X54786566Y58361476D01*
X54786566Y57311476D02*
X55286566Y57311476D01*
X63628966Y54128076D02*
X63628966Y51588076D01*
X63908966Y56948076D02*
X63908966Y55398076D01*
X63628966Y54128076D02*
X61088966Y54128076D01*
X60808966Y55398076D02*
X60808966Y56948076D01*
X60808966Y56948076D02*
X63908966Y56948076D01*
X61088966Y54128076D02*
X61088966Y51588076D01*
X61088966Y51588076D02*
X63628966Y51588076D01*
X53066566Y61375476D02*
X53566566Y61375476D01*
X53566566Y62425476D02*
X53066566Y62425476D01*
X70248000Y18017000D02*
X70748000Y18017000D01*
X70748000Y19067000D02*
X70248000Y19067000D01*
X68557000Y15998000D02*
X68557000Y15498000D01*
X69507000Y15498000D02*
X69507000Y15998000D01*
X70285000Y16956000D02*
X70285000Y16456000D01*
X71335000Y16456000D02*
X71335000Y16956000D01*
X68557000Y13754000D02*
X68557000Y13254000D01*
X69507000Y13254000D02*
X69507000Y13754000D01*
X71081000Y14424000D02*
X71081000Y14924000D01*
X70031000Y14924000D02*
X70031000Y14424000D01*
X87766000Y24553000D02*
X88266000Y24553000D01*
X88266000Y25603000D02*
X87766000Y25603000D01*
X78746400Y29340722D02*
X77746400Y29340722D01*
X77746400Y30690722D02*
X78746400Y30690722D01*
X78746400Y27840722D02*
X77746400Y27840722D01*
X77746400Y29190722D02*
X78746400Y29190722D01*
X87766000Y27553000D02*
X88266000Y27553000D01*
X88266000Y28603000D02*
X87766000Y28603000D01*
X75136000Y26938600D02*
X76136000Y26938600D01*
X76136000Y25588600D02*
X75136000Y25588600D01*
D14*
X73052000Y1194000D02*
X73052000Y6528000D01*
X73052000Y6528000D02*
X83720000Y6528000D01*
X83720000Y6528000D02*
X83720000Y1194000D01*
X83720000Y1194000D02*
X83720000Y1194000D01*
X73560000Y3734000D02*
X75846000Y3734000D01*
X75846000Y3734000D02*
X75846000Y1448000D01*
X75846000Y1448000D02*
X75846000Y1448000D01*
X72476000Y864000D02*
X72476000Y30064000D01*
X72476000Y30064000D02*
X87926000Y30064000D01*
X87926000Y30064000D02*
X87926000Y864000D01*
X87926000Y864000D02*
X72476000Y864000D01*
X72476000Y864000D02*
X72476000Y864000D01*
X83720000Y1194000D02*
X73052000Y1194000D01*
X73052000Y1194000D02*
X73052000Y1194000D01*
D13*
X96836000Y17438000D02*
X96836000Y32678000D01*
X91756000Y30138000D02*
X91756000Y17438000D01*
X96836000Y17438000D02*
X91756000Y17438000D01*
X96836000Y32678000D02*
X94296000Y32678000D01*
X93026000Y32958000D02*
X91476000Y32958000D01*
X94296000Y32678000D02*
X94296000Y30138000D01*
X94296000Y30138000D02*
X91756000Y30138000D01*
X91476000Y32958000D02*
X91476000Y31408000D01*
X91421000Y12180000D02*
X91421000Y11680000D01*
X92471000Y11680000D02*
X92471000Y12180000D01*
X91421000Y14830000D02*
X91421000Y14330000D01*
X92471000Y14330000D02*
X92471000Y14830000D01*
X96716000Y13360000D02*
X96716000Y10820000D01*
X96996000Y16180000D02*
X96996000Y14630000D01*
X96716000Y13360000D02*
X94176000Y13360000D01*
X93896000Y14630000D02*
X93896000Y16180000D01*
X93896000Y16180000D02*
X96996000Y16180000D01*
X94176000Y13360000D02*
X94176000Y10820000D01*
X94176000Y10820000D02*
X96716000Y10820000D01*
X78599400Y9351200D02*
X78599400Y9851200D01*
X77549400Y9851200D02*
X77549400Y9351200D01*
X80021800Y9344000D02*
X80021800Y9844000D01*
X78971800Y9844000D02*
X78971800Y9344000D01*
X68778000Y6314000D02*
X68778000Y1234000D01*
X68778000Y1234000D02*
X71318000Y1234000D01*
X71318000Y1234000D02*
X71318000Y6314000D01*
X71598000Y9134000D02*
X71598000Y7584000D01*
X71318000Y6314000D02*
X68778000Y6314000D01*
X68498000Y7584000D02*
X68498000Y9134000D01*
X68498000Y9134000D02*
X71598000Y9134000D01*
X96718000Y3556000D02*
X96718000Y8636000D01*
X96998000Y736000D02*
X95448000Y736000D01*
X94178000Y1016000D02*
X94178000Y3556000D01*
X94178000Y3556000D02*
X96718000Y3556000D01*
X96718000Y8636000D02*
X91638000Y8636000D01*
X91638000Y8636000D02*
X91638000Y3556000D01*
X96998000Y736000D02*
X96998000Y2286000D01*
X91638000Y1016000D02*
X94178000Y1016000D01*
X91638000Y3556000D02*
X91638000Y1016000D01*
X88988000Y14685000D02*
X88488000Y14685000D01*
X88488000Y13735000D02*
X88988000Y13735000D01*
X87632000Y19142600D02*
X88132000Y19142600D01*
X88132000Y20192600D02*
X87632000Y20192600D01*
X87566000Y16303000D02*
X88066000Y16303000D01*
X88066000Y17353000D02*
X87566000Y17353000D01*
X87566000Y21803000D02*
X88066000Y21803000D01*
X88066000Y22853000D02*
X87566000Y22853000D01*
X74031000Y20879000D02*
X74031000Y20554000D01*
X81281000Y20879000D02*
X81281000Y20554000D01*
X81281000Y13629000D02*
X81281000Y13954000D01*
X74031000Y13629000D02*
X74031000Y13954000D01*
X74031000Y20879000D02*
X74356000Y20879000D01*
X74031000Y13629000D02*
X74356000Y13629000D01*
X81281000Y13629000D02*
X80956000Y13629000D01*
X81281000Y20879000D02*
X80956000Y20879000D01*
X74031000Y20554000D02*
X72606000Y20554000D01*
X73971400Y25315722D02*
X73971400Y25815722D01*
X72921400Y25815722D02*
X72921400Y25315722D01*
X75136000Y25516200D02*
X76136000Y25516200D01*
X76136000Y24166200D02*
X75136000Y24166200D01*
X68728000Y24892000D02*
X68728000Y19812000D01*
X68728000Y19812000D02*
X71268000Y19812000D01*
X71268000Y19812000D02*
X71268000Y24892000D01*
X71548000Y27712000D02*
X71548000Y26162000D01*
X71268000Y24892000D02*
X68728000Y24892000D01*
X68448000Y26162000D02*
X68448000Y27712000D01*
X68448000Y27712000D02*
X71548000Y27712000D01*
X71331400Y32415722D02*
X72106400Y32415722D01*
X75631400Y28115722D02*
X74856400Y28115722D01*
X75631400Y32415722D02*
X74856400Y32415722D01*
X71331400Y28115722D02*
X71331400Y28890722D01*
X75631400Y28115722D02*
X75631400Y28890722D01*
X75631400Y32415722D02*
X75631400Y31640722D01*
X71331400Y32415722D02*
X71331400Y31640722D01*
X68796400Y29315722D02*
X68796400Y28615722D01*
X67596400Y28615722D02*
X67596400Y29315722D01*
X72846400Y34702000D02*
X72846400Y35402000D01*
X74046400Y35402000D02*
X74046400Y34702000D01*
X70296400Y30065722D02*
X70296400Y29365722D01*
X69096400Y29365722D02*
X69096400Y30065722D01*
X68557000Y32508000D02*
X68557000Y32008000D01*
X69507000Y32008000D02*
X69507000Y32508000D01*
X80966000Y38625000D02*
X80466000Y38625000D01*
X80466000Y37575000D02*
X80966000Y37575000D01*
X78934000Y38625000D02*
X78434000Y38625000D01*
X78434000Y37575000D02*
X78934000Y37575000D01*
D15*
X78386025Y44162659D02*
X78386025Y42892659D01*
X79656025Y44162659D02*
X78386025Y44162659D01*
D13*
X82551025Y43247659D02*
X82551025Y42747659D01*
X79301025Y39997659D02*
X79301025Y40497659D01*
X82551025Y39997659D02*
X82551025Y40497659D01*
X79301025Y43247659D02*
X79801025Y43247659D01*
X79301025Y39997659D02*
X79801025Y39997659D01*
X82551025Y39997659D02*
X82051025Y39997659D01*
X82551025Y43247659D02*
X82051025Y43247659D01*
X68371600Y45872400D02*
X68371600Y48412400D01*
X68091600Y43052400D02*
X68091600Y44602400D01*
X68371600Y45872400D02*
X70911600Y45872400D01*
X71191600Y44602400D02*
X71191600Y43052400D01*
X71191600Y43052400D02*
X68091600Y43052400D01*
X70911600Y45872400D02*
X70911600Y48412400D01*
X70911600Y48412400D02*
X68371600Y48412400D01*
X73197600Y45872400D02*
X73197600Y48412400D01*
X72917600Y43052400D02*
X72917600Y44602400D01*
X73197600Y45872400D02*
X75737600Y45872400D01*
X76017600Y44602400D02*
X76017600Y43052400D01*
X76017600Y43052400D02*
X72917600Y43052400D01*
X75737600Y45872400D02*
X75737600Y48412400D01*
X75737600Y48412400D02*
X73197600Y48412400D01*
X80966000Y45483000D02*
X80466000Y45483000D01*
X80466000Y44433000D02*
X80966000Y44433000D01*
X76714000Y41639000D02*
X77214000Y41639000D01*
X77214000Y42689000D02*
X76714000Y42689000D01*
X76910000Y40419000D02*
X77410000Y40419000D01*
X77410000Y41369000D02*
X76910000Y41369000D01*
X95458000Y43308400D02*
X95458000Y40768400D01*
X95738000Y46128400D02*
X95738000Y44578400D01*
X95458000Y43308400D02*
X92918000Y43308400D01*
X92638000Y44578400D02*
X92638000Y46128400D01*
X92638000Y46128400D02*
X95738000Y46128400D01*
X92918000Y43308400D02*
X92918000Y40768400D01*
X92918000Y40768400D02*
X95458000Y40768400D01*
X84264000Y46570000D02*
X83264000Y46570000D01*
X83264000Y44870000D02*
X84264000Y44870000D01*
X84369025Y43254659D02*
X84369025Y42554659D01*
X83169025Y42554659D02*
X83169025Y43254659D01*
D14*
X90627025Y44285659D02*
X90627025Y38697659D01*
X85039025Y38697659D02*
X85039025Y44285659D01*
D13*
X84264000Y48602000D02*
X83264000Y48602000D01*
X83264000Y46902000D02*
X84264000Y46902000D01*
X83169025Y39736659D02*
X83169025Y40436659D01*
X84369025Y40436659D02*
X84369025Y39736659D01*
X83994000Y37426000D02*
X82994000Y37426000D01*
X82994000Y35726000D02*
X83994000Y35726000D01*
X87816000Y30553000D02*
X88316000Y30553000D01*
X88316000Y31603000D02*
X87816000Y31603000D01*
X84010000Y35084847D02*
X83010000Y35084847D01*
X83010000Y33384847D02*
X84010000Y33384847D01*
X84010000Y32854000D02*
X83010000Y32854000D01*
X83010000Y31154000D02*
X84010000Y31154000D01*
X38248000Y18017000D02*
X38748000Y18017000D01*
X38748000Y19067000D02*
X38248000Y19067000D01*
X36557000Y15998000D02*
X36557000Y15498000D01*
X37507000Y15498000D02*
X37507000Y15998000D01*
X38285000Y16956000D02*
X38285000Y16456000D01*
X39335000Y16456000D02*
X39335000Y16956000D01*
X36557000Y13754000D02*
X36557000Y13254000D01*
X37507000Y13254000D02*
X37507000Y13754000D01*
X39081000Y14424000D02*
X39081000Y14924000D01*
X38031000Y14924000D02*
X38031000Y14424000D01*
X55766000Y24553000D02*
X56266000Y24553000D01*
X56266000Y25603000D02*
X55766000Y25603000D01*
X46746400Y29340722D02*
X45746400Y29340722D01*
X45746400Y30690722D02*
X46746400Y30690722D01*
X46746400Y27840722D02*
X45746400Y27840722D01*
X45746400Y29190722D02*
X46746400Y29190722D01*
X55766000Y27553000D02*
X56266000Y27553000D01*
X56266000Y28603000D02*
X55766000Y28603000D01*
X43136000Y26938600D02*
X44136000Y26938600D01*
X44136000Y25588600D02*
X43136000Y25588600D01*
D14*
X41052000Y1194000D02*
X41052000Y6528000D01*
X41052000Y6528000D02*
X51720000Y6528000D01*
X51720000Y6528000D02*
X51720000Y1194000D01*
X51720000Y1194000D02*
X51720000Y1194000D01*
X41560000Y3734000D02*
X43846000Y3734000D01*
X43846000Y3734000D02*
X43846000Y1448000D01*
X43846000Y1448000D02*
X43846000Y1448000D01*
X40476000Y864000D02*
X40476000Y30064000D01*
X40476000Y30064000D02*
X55926000Y30064000D01*
X55926000Y30064000D02*
X55926000Y864000D01*
X55926000Y864000D02*
X40476000Y864000D01*
X40476000Y864000D02*
X40476000Y864000D01*
X51720000Y1194000D02*
X41052000Y1194000D01*
X41052000Y1194000D02*
X41052000Y1194000D01*
D13*
X64836000Y17438000D02*
X64836000Y32678000D01*
X59756000Y30138000D02*
X59756000Y17438000D01*
X64836000Y17438000D02*
X59756000Y17438000D01*
X64836000Y32678000D02*
X62296000Y32678000D01*
X61026000Y32958000D02*
X59476000Y32958000D01*
X62296000Y32678000D02*
X62296000Y30138000D01*
X62296000Y30138000D02*
X59756000Y30138000D01*
X59476000Y32958000D02*
X59476000Y31408000D01*
X59421000Y12180000D02*
X59421000Y11680000D01*
X60471000Y11680000D02*
X60471000Y12180000D01*
X59421000Y14830000D02*
X59421000Y14330000D01*
X60471000Y14330000D02*
X60471000Y14830000D01*
X64716000Y13360000D02*
X64716000Y10820000D01*
X64996000Y16180000D02*
X64996000Y14630000D01*
X64716000Y13360000D02*
X62176000Y13360000D01*
X61896000Y14630000D02*
X61896000Y16180000D01*
X61896000Y16180000D02*
X64996000Y16180000D01*
X62176000Y13360000D02*
X62176000Y10820000D01*
X62176000Y10820000D02*
X64716000Y10820000D01*
X46599400Y9351200D02*
X46599400Y9851200D01*
X45549400Y9851200D02*
X45549400Y9351200D01*
X48021800Y9344000D02*
X48021800Y9844000D01*
X46971800Y9844000D02*
X46971800Y9344000D01*
X36778000Y6314000D02*
X36778000Y1234000D01*
X36778000Y1234000D02*
X39318000Y1234000D01*
X39318000Y1234000D02*
X39318000Y6314000D01*
X39598000Y9134000D02*
X39598000Y7584000D01*
X39318000Y6314000D02*
X36778000Y6314000D01*
X36498000Y7584000D02*
X36498000Y9134000D01*
X36498000Y9134000D02*
X39598000Y9134000D01*
X64718000Y3556000D02*
X64718000Y8636000D01*
X64998000Y736000D02*
X63448000Y736000D01*
X62178000Y1016000D02*
X62178000Y3556000D01*
X62178000Y3556000D02*
X64718000Y3556000D01*
X64718000Y8636000D02*
X59638000Y8636000D01*
X59638000Y8636000D02*
X59638000Y3556000D01*
X64998000Y736000D02*
X64998000Y2286000D01*
X59638000Y1016000D02*
X62178000Y1016000D01*
X59638000Y3556000D02*
X59638000Y1016000D01*
X56988000Y14685000D02*
X56488000Y14685000D01*
X56488000Y13735000D02*
X56988000Y13735000D01*
X55632000Y19142600D02*
X56132000Y19142600D01*
X56132000Y20192600D02*
X55632000Y20192600D01*
X55566000Y16303000D02*
X56066000Y16303000D01*
X56066000Y17353000D02*
X55566000Y17353000D01*
X55566000Y21803000D02*
X56066000Y21803000D01*
X56066000Y22853000D02*
X55566000Y22853000D01*
X42031000Y20879000D02*
X42031000Y20554000D01*
X49281000Y20879000D02*
X49281000Y20554000D01*
X49281000Y13629000D02*
X49281000Y13954000D01*
X42031000Y13629000D02*
X42031000Y13954000D01*
X42031000Y20879000D02*
X42356000Y20879000D01*
X42031000Y13629000D02*
X42356000Y13629000D01*
X49281000Y13629000D02*
X48956000Y13629000D01*
X49281000Y20879000D02*
X48956000Y20879000D01*
X42031000Y20554000D02*
X40606000Y20554000D01*
X41971400Y25315722D02*
X41971400Y25815722D01*
X40921400Y25815722D02*
X40921400Y25315722D01*
X43136000Y25516200D02*
X44136000Y25516200D01*
X44136000Y24166200D02*
X43136000Y24166200D01*
X36728000Y24892000D02*
X36728000Y19812000D01*
X36728000Y19812000D02*
X39268000Y19812000D01*
X39268000Y19812000D02*
X39268000Y24892000D01*
X39548000Y27712000D02*
X39548000Y26162000D01*
X39268000Y24892000D02*
X36728000Y24892000D01*
X36448000Y26162000D02*
X36448000Y27712000D01*
X36448000Y27712000D02*
X39548000Y27712000D01*
X39331400Y32415722D02*
X40106400Y32415722D01*
X43631400Y28115722D02*
X42856400Y28115722D01*
X43631400Y32415722D02*
X42856400Y32415722D01*
X39331400Y28115722D02*
X39331400Y28890722D01*
X43631400Y28115722D02*
X43631400Y28890722D01*
X43631400Y32415722D02*
X43631400Y31640722D01*
X39331400Y32415722D02*
X39331400Y31640722D01*
X36796400Y29315722D02*
X36796400Y28615722D01*
X35596400Y28615722D02*
X35596400Y29315722D01*
X40846400Y34702000D02*
X40846400Y35402000D01*
X42046400Y35402000D02*
X42046400Y34702000D01*
X38296400Y30065722D02*
X38296400Y29365722D01*
X37096400Y29365722D02*
X37096400Y30065722D01*
X36557000Y32508000D02*
X36557000Y32008000D01*
X37507000Y32008000D02*
X37507000Y32508000D01*
X48966000Y38625000D02*
X48466000Y38625000D01*
X48466000Y37575000D02*
X48966000Y37575000D01*
X46934000Y38625000D02*
X46434000Y38625000D01*
X46434000Y37575000D02*
X46934000Y37575000D01*
D15*
X46386025Y44162659D02*
X46386025Y42892659D01*
X47656025Y44162659D02*
X46386025Y44162659D01*
D13*
X50551025Y43247659D02*
X50551025Y42747659D01*
X47301025Y39997659D02*
X47301025Y40497659D01*
X50551025Y39997659D02*
X50551025Y40497659D01*
X47301025Y43247659D02*
X47801025Y43247659D01*
X47301025Y39997659D02*
X47801025Y39997659D01*
X50551025Y39997659D02*
X50051025Y39997659D01*
X50551025Y43247659D02*
X50051025Y43247659D01*
X36371600Y45872400D02*
X36371600Y48412400D01*
X36091600Y43052400D02*
X36091600Y44602400D01*
X36371600Y45872400D02*
X38911600Y45872400D01*
X39191600Y44602400D02*
X39191600Y43052400D01*
X39191600Y43052400D02*
X36091600Y43052400D01*
X38911600Y45872400D02*
X38911600Y48412400D01*
X38911600Y48412400D02*
X36371600Y48412400D01*
X41197600Y45872400D02*
X41197600Y48412400D01*
X40917600Y43052400D02*
X40917600Y44602400D01*
X41197600Y45872400D02*
X43737600Y45872400D01*
X44017600Y44602400D02*
X44017600Y43052400D01*
X44017600Y43052400D02*
X40917600Y43052400D01*
X43737600Y45872400D02*
X43737600Y48412400D01*
X43737600Y48412400D02*
X41197600Y48412400D01*
X48966000Y45483000D02*
X48466000Y45483000D01*
X48466000Y44433000D02*
X48966000Y44433000D01*
X44714000Y41639000D02*
X45214000Y41639000D01*
X45214000Y42689000D02*
X44714000Y42689000D01*
X44910000Y40419000D02*
X45410000Y40419000D01*
X45410000Y41369000D02*
X44910000Y41369000D01*
X63458000Y43308400D02*
X63458000Y40768400D01*
X63738000Y46128400D02*
X63738000Y44578400D01*
X63458000Y43308400D02*
X60918000Y43308400D01*
X60638000Y44578400D02*
X60638000Y46128400D01*
X60638000Y46128400D02*
X63738000Y46128400D01*
X60918000Y43308400D02*
X60918000Y40768400D01*
X60918000Y40768400D02*
X63458000Y40768400D01*
X52264000Y46570000D02*
X51264000Y46570000D01*
X51264000Y44870000D02*
X52264000Y44870000D01*
X52369025Y43254659D02*
X52369025Y42554659D01*
X51169025Y42554659D02*
X51169025Y43254659D01*
D14*
X58627025Y44285659D02*
X58627025Y38697659D01*
X53039025Y38697659D02*
X53039025Y44285659D01*
D13*
X52264000Y48602000D02*
X51264000Y48602000D01*
X51264000Y46902000D02*
X52264000Y46902000D01*
X51169025Y39736659D02*
X51169025Y40436659D01*
X52369025Y40436659D02*
X52369025Y39736659D01*
X51994000Y37426000D02*
X50994000Y37426000D01*
X50994000Y35726000D02*
X51994000Y35726000D01*
X55816000Y30553000D02*
X56316000Y30553000D01*
X56316000Y31603000D02*
X55816000Y31603000D01*
X52010000Y35084847D02*
X51010000Y35084847D01*
X51010000Y33384847D02*
X52010000Y33384847D01*
X52010000Y32854000D02*
X51010000Y32854000D01*
X51010000Y31154000D02*
X52010000Y31154000D01*
X10031000Y20879000D02*
X10031000Y20554000D01*
X17281000Y20879000D02*
X17281000Y20554000D01*
X17281000Y13629000D02*
X17281000Y13954000D01*
X10031000Y13629000D02*
X10031000Y13954000D01*
X10031000Y20879000D02*
X10356000Y20879000D01*
X10031000Y13629000D02*
X10356000Y13629000D01*
X17281000Y13629000D02*
X16956000Y13629000D01*
X17281000Y20879000D02*
X16956000Y20879000D01*
X10031000Y20554000D02*
X8606000Y20554000D01*
X32718000Y3556000D02*
X32718000Y8636000D01*
X32998000Y736000D02*
X31448000Y736000D01*
X30178000Y1016000D02*
X30178000Y3556000D01*
X30178000Y3556000D02*
X32718000Y3556000D01*
X32718000Y8636000D02*
X27638000Y8636000D01*
X27638000Y8636000D02*
X27638000Y3556000D01*
X32998000Y736000D02*
X32998000Y2286000D01*
X27638000Y1016000D02*
X30178000Y1016000D01*
X27638000Y3556000D02*
X27638000Y1016000D01*
X4371600Y45872400D02*
X4371600Y48412400D01*
X4091600Y43052400D02*
X4091600Y44602400D01*
X4371600Y45872400D02*
X6911600Y45872400D01*
X7191600Y44602400D02*
X7191600Y43052400D01*
X7191600Y43052400D02*
X4091600Y43052400D01*
X6911600Y45872400D02*
X6911600Y48412400D01*
X6911600Y48412400D02*
X4371600Y48412400D01*
X9197600Y45872400D02*
X9197600Y48412400D01*
X8917600Y43052400D02*
X8917600Y44602400D01*
X9197600Y45872400D02*
X11737600Y45872400D01*
X12017600Y44602400D02*
X12017600Y43052400D01*
X12017600Y43052400D02*
X8917600Y43052400D01*
X11737600Y45872400D02*
X11737600Y48412400D01*
X11737600Y48412400D02*
X9197600Y48412400D01*
X32836000Y17438000D02*
X32836000Y32678000D01*
X27756000Y30138000D02*
X27756000Y17438000D01*
X32836000Y17438000D02*
X27756000Y17438000D01*
X32836000Y32678000D02*
X30296000Y32678000D01*
X29026000Y32958000D02*
X27476000Y32958000D01*
X30296000Y32678000D02*
X30296000Y30138000D01*
X30296000Y30138000D02*
X27756000Y30138000D01*
X27476000Y32958000D02*
X27476000Y31408000D01*
X4728000Y24892000D02*
X4728000Y19812000D01*
X4728000Y19812000D02*
X7268000Y19812000D01*
X7268000Y19812000D02*
X7268000Y24892000D01*
X7548000Y27712000D02*
X7548000Y26162000D01*
X7268000Y24892000D02*
X4728000Y24892000D01*
X4448000Y26162000D02*
X4448000Y27712000D01*
X4448000Y27712000D02*
X7548000Y27712000D01*
X4778000Y6314000D02*
X4778000Y1234000D01*
X4778000Y1234000D02*
X7318000Y1234000D01*
X7318000Y1234000D02*
X7318000Y6314000D01*
X7598000Y9134000D02*
X7598000Y7584000D01*
X7318000Y6314000D02*
X4778000Y6314000D01*
X4498000Y7584000D02*
X4498000Y9134000D01*
X4498000Y9134000D02*
X7598000Y9134000D01*
X31458000Y43308400D02*
X31458000Y40768400D01*
X31738000Y46128400D02*
X31738000Y44578400D01*
X31458000Y43308400D02*
X28918000Y43308400D01*
X28638000Y44578400D02*
X28638000Y46128400D01*
X28638000Y46128400D02*
X31738000Y46128400D01*
X28918000Y43308400D02*
X28918000Y40768400D01*
X28918000Y40768400D02*
X31458000Y40768400D01*
X32716000Y13360000D02*
X32716000Y10820000D01*
X32996000Y16180000D02*
X32996000Y14630000D01*
X32716000Y13360000D02*
X30176000Y13360000D01*
X29896000Y14630000D02*
X29896000Y16180000D01*
X29896000Y16180000D02*
X32996000Y16180000D01*
X30176000Y13360000D02*
X30176000Y10820000D01*
X30176000Y10820000D02*
X32716000Y10820000D01*
X7331400Y32415722D02*
X8106400Y32415722D01*
X11631400Y28115722D02*
X10856400Y28115722D01*
X11631400Y32415722D02*
X10856400Y32415722D01*
X7331400Y28115722D02*
X7331400Y28890722D01*
X11631400Y28115722D02*
X11631400Y28890722D01*
X11631400Y32415722D02*
X11631400Y31640722D01*
X7331400Y32415722D02*
X7331400Y31640722D01*
D14*
X9052000Y1194000D02*
X9052000Y6528000D01*
X9052000Y6528000D02*
X19720000Y6528000D01*
X19720000Y6528000D02*
X19720000Y1194000D01*
X19720000Y1194000D02*
X19720000Y1194000D01*
X9560000Y3734000D02*
X11846000Y3734000D01*
X11846000Y3734000D02*
X11846000Y1448000D01*
X11846000Y1448000D02*
X11846000Y1448000D01*
X8476000Y864000D02*
X8476000Y30064000D01*
X8476000Y30064000D02*
X23926000Y30064000D01*
X23926000Y30064000D02*
X23926000Y864000D01*
X23926000Y864000D02*
X8476000Y864000D01*
X8476000Y864000D02*
X8476000Y864000D01*
X19720000Y1194000D02*
X9052000Y1194000D01*
X9052000Y1194000D02*
X9052000Y1194000D01*
D13*
X4557000Y32508000D02*
X4557000Y32008000D01*
X5507000Y32008000D02*
X5507000Y32508000D01*
X24988000Y14685000D02*
X24488000Y14685000D01*
X24488000Y13735000D02*
X24988000Y13735000D01*
X4557000Y13754000D02*
X4557000Y13254000D01*
X5507000Y13254000D02*
X5507000Y13754000D01*
X4557000Y15998000D02*
X4557000Y15498000D01*
X5507000Y15498000D02*
X5507000Y15998000D01*
X9971400Y25315722D02*
X9971400Y25815722D01*
X8921400Y25815722D02*
X8921400Y25315722D01*
X23632000Y19142600D02*
X24132000Y19142600D01*
X24132000Y20192600D02*
X23632000Y20192600D01*
X23566000Y16303000D02*
X24066000Y16303000D01*
X24066000Y17353000D02*
X23566000Y17353000D01*
X23816000Y30553000D02*
X24316000Y30553000D01*
X24316000Y31603000D02*
X23816000Y31603000D01*
X23766000Y27553000D02*
X24266000Y27553000D01*
X24266000Y28603000D02*
X23766000Y28603000D01*
X23766000Y24553000D02*
X24266000Y24553000D01*
X24266000Y25603000D02*
X23766000Y25603000D01*
X23566000Y21803000D02*
X24066000Y21803000D01*
X24066000Y22853000D02*
X23566000Y22853000D01*
X6248000Y18017000D02*
X6748000Y18017000D01*
X6748000Y19067000D02*
X6248000Y19067000D01*
X6285000Y16956000D02*
X6285000Y16456000D01*
X7335000Y16456000D02*
X7335000Y16956000D01*
X7081000Y14424000D02*
X7081000Y14924000D01*
X6031000Y14924000D02*
X6031000Y14424000D01*
X14599400Y9351200D02*
X14599400Y9851200D01*
X13549400Y9851200D02*
X13549400Y9351200D01*
X16021800Y9344000D02*
X16021800Y9844000D01*
X14971800Y9844000D02*
X14971800Y9344000D01*
X27421000Y14830000D02*
X27421000Y14330000D01*
X28471000Y14330000D02*
X28471000Y14830000D01*
X27421000Y12180000D02*
X27421000Y11680000D01*
X28471000Y11680000D02*
X28471000Y12180000D01*
X8846400Y34702000D02*
X8846400Y35402000D01*
X10046400Y35402000D02*
X10046400Y34702000D01*
X20369025Y43254659D02*
X20369025Y42554659D01*
X19169025Y42554659D02*
X19169025Y43254659D01*
X20264000Y46570000D02*
X19264000Y46570000D01*
X19264000Y44870000D02*
X20264000Y44870000D01*
X20264000Y48602000D02*
X19264000Y48602000D01*
X19264000Y46902000D02*
X20264000Y46902000D01*
X12910000Y40419000D02*
X13410000Y40419000D01*
X13410000Y41369000D02*
X12910000Y41369000D01*
X19169025Y39736659D02*
X19169025Y40436659D01*
X20369025Y40436659D02*
X20369025Y39736659D01*
X20010000Y35084847D02*
X19010000Y35084847D01*
X19010000Y33384847D02*
X20010000Y33384847D01*
X20010000Y32854000D02*
X19010000Y32854000D01*
X19010000Y31154000D02*
X20010000Y31154000D01*
X19994000Y37426000D02*
X18994000Y37426000D01*
X18994000Y35726000D02*
X19994000Y35726000D01*
D14*
X26627025Y44285659D02*
X26627025Y38697659D01*
X21039025Y38697659D02*
X21039025Y44285659D01*
D13*
X16966000Y45483000D02*
X16466000Y45483000D01*
X16466000Y44433000D02*
X16966000Y44433000D01*
X16966000Y38625000D02*
X16466000Y38625000D01*
X16466000Y37575000D02*
X16966000Y37575000D01*
X14934000Y38625000D02*
X14434000Y38625000D01*
X14434000Y37575000D02*
X14934000Y37575000D01*
X12714000Y41639000D02*
X13214000Y41639000D01*
X13214000Y42689000D02*
X12714000Y42689000D01*
D15*
X14386025Y44162659D02*
X14386025Y42892659D01*
X15656025Y44162659D02*
X14386025Y44162659D01*
D13*
X18551025Y43247659D02*
X18551025Y42747659D01*
X15301025Y39997659D02*
X15301025Y40497659D01*
X18551025Y39997659D02*
X18551025Y40497659D01*
X15301025Y43247659D02*
X15801025Y43247659D01*
X15301025Y39997659D02*
X15801025Y39997659D01*
X18551025Y39997659D02*
X18051025Y39997659D01*
X18551025Y43247659D02*
X18051025Y43247659D01*
X14746400Y27840722D02*
X13746400Y27840722D01*
X13746400Y29190722D02*
X14746400Y29190722D01*
X14746400Y29340722D02*
X13746400Y29340722D01*
X13746400Y30690722D02*
X14746400Y30690722D01*
X11136000Y26938600D02*
X12136000Y26938600D01*
X12136000Y25588600D02*
X11136000Y25588600D01*
X11136000Y25516200D02*
X12136000Y25516200D01*
X12136000Y24166200D02*
X11136000Y24166200D01*
X4796400Y29315722D02*
X4796400Y28615722D01*
X3596400Y28615722D02*
X3596400Y29315722D01*
X6296400Y30065722D02*
X6296400Y29365722D01*
X5096400Y29365722D02*
X5096400Y30065722D01*
M02*
