G04 #@! TF.FileFunction,Soldermask,Bot*
%FSLAX46Y46*%
G04 Gerber Fmt 4.6, Leading zero omitted, Abs format (unit mm)*
G04 Created by KiCad (PCBNEW 4.0.6) date 12/25/17 20:13:07*
%MOMM*%
%LPD*%
G01*
G04 APERTURE LIST*
%ADD10C,0.100000*%
%ADD11R,1.111200X0.857200*%
%ADD12R,1.600000X1.800000*%
%ADD13R,1.000000X0.800000*%
%ADD14R,0.800000X1.000000*%
%ADD15R,2.432000X2.127200*%
%ADD16O,2.432000X2.127200*%
%ADD17R,1.924000X1.924000*%
%ADD18C,1.924000*%
%ADD19R,2.127200X2.127200*%
%ADD20O,2.127200X2.127200*%
%ADD21R,2.432000X2.432000*%
%ADD22O,2.432000X2.432000*%
G04 APERTURE END LIST*
D10*
D11*
X75668566Y79012076D03*
X75668566Y80332876D03*
X77700566Y79672476D03*
X75652566Y81762076D03*
X75652566Y83082876D03*
X77684566Y82422476D03*
X75668566Y76262076D03*
X75668566Y77582876D03*
X77700566Y76922476D03*
D12*
X92898566Y84930476D03*
X92898566Y87130476D03*
X94498566Y84930476D03*
X94498566Y87130476D03*
D13*
X72058566Y58172076D03*
X72058566Y57272076D03*
D11*
X75652566Y67762076D03*
X75652566Y69082876D03*
X77684566Y68422476D03*
D14*
X73834566Y68672476D03*
X72934566Y68672476D03*
D13*
X72058566Y56072076D03*
X72058566Y55172076D03*
X87804166Y66934754D03*
X87804166Y66034754D03*
X86304166Y66884754D03*
X86304166Y65984754D03*
X54304166Y66884754D03*
X54304166Y65984754D03*
X55804166Y66934754D03*
X55804166Y66034754D03*
D11*
X75668566Y70512076D03*
X75668566Y71832876D03*
X77700566Y71172476D03*
D14*
X73834566Y73672476D03*
X72934566Y73672476D03*
X73884566Y71172476D03*
X72984566Y71172476D03*
X73834566Y76172476D03*
X72934566Y76172476D03*
D11*
X75684566Y73422476D03*
X75684566Y74743276D03*
X77716566Y74082876D03*
D12*
X60898566Y84930476D03*
X60898566Y87130476D03*
X62498566Y84930476D03*
X62498566Y87130476D03*
D14*
X67790566Y90602476D03*
X68690566Y90602476D03*
X73834566Y78672476D03*
X72934566Y78672476D03*
X73584566Y81172476D03*
X72684566Y81172476D03*
D11*
X11652566Y81762076D03*
X11652566Y83082876D03*
X13684566Y82422476D03*
D14*
X3790566Y90602476D03*
X4690566Y90602476D03*
D11*
X11668566Y79012076D03*
X11668566Y80332876D03*
X13700566Y79672476D03*
D14*
X9834566Y78672476D03*
X8934566Y78672476D03*
D11*
X11668566Y76262076D03*
X11668566Y77582876D03*
X13700566Y76922476D03*
D14*
X9834566Y76172476D03*
X8934566Y76172476D03*
X9584566Y81172476D03*
X8684566Y81172476D03*
X9884566Y71172476D03*
X8984566Y71172476D03*
D11*
X11652566Y67762076D03*
X11652566Y69082876D03*
X13684566Y68422476D03*
D14*
X9834566Y68672476D03*
X8934566Y68672476D03*
X9834566Y73672476D03*
X8934566Y73672476D03*
D11*
X11684566Y73422476D03*
X11684566Y74743276D03*
X13716566Y74082876D03*
X11668566Y70512076D03*
X11668566Y71832876D03*
X13700566Y71172476D03*
D13*
X8058566Y56072076D03*
X8058566Y55172076D03*
X8058566Y58172076D03*
X8058566Y57272076D03*
D11*
X43652566Y67762076D03*
X43652566Y69082876D03*
X45684566Y68422476D03*
X43668566Y70512076D03*
X43668566Y71832876D03*
X45700566Y71172476D03*
D14*
X41884566Y71172476D03*
X40984566Y71172476D03*
D11*
X43668566Y76262076D03*
X43668566Y77582876D03*
X45700566Y76922476D03*
D14*
X41834566Y73672476D03*
X40934566Y73672476D03*
X41834566Y76172476D03*
X40934566Y76172476D03*
D11*
X43684566Y73422476D03*
X43684566Y74743276D03*
X45716566Y74082876D03*
D12*
X28898566Y84930476D03*
X28898566Y87130476D03*
X30498566Y84930476D03*
X30498566Y87130476D03*
D14*
X35790566Y90602476D03*
X36690566Y90602476D03*
D11*
X43668566Y79012076D03*
X43668566Y80332876D03*
X45700566Y79672476D03*
D14*
X41584566Y81172476D03*
X40684566Y81172476D03*
X41834566Y78672476D03*
X40934566Y78672476D03*
D11*
X43652566Y81762076D03*
X43652566Y83082876D03*
X45684566Y82422476D03*
D13*
X22304166Y66884754D03*
X22304166Y65984754D03*
X23804166Y66934754D03*
X23804166Y66034754D03*
X40058566Y58172076D03*
X40058566Y57272076D03*
D14*
X41834566Y68672476D03*
X40934566Y68672476D03*
D13*
X40058566Y56072076D03*
X40058566Y55172076D03*
D15*
X30002566Y73838476D03*
D16*
X30002566Y76378476D03*
X30002566Y78918476D03*
D17*
X25424566Y97536476D03*
D18*
X25424566Y94996476D03*
X22884566Y97536476D03*
X22884566Y94996476D03*
X20344566Y97536476D03*
X20344566Y94996476D03*
X17804566Y97536476D03*
X17804566Y94996476D03*
D15*
X29952566Y92416476D03*
D16*
X29952566Y94956476D03*
X29952566Y97496476D03*
D19*
X4552566Y97714476D03*
D20*
X7092566Y97714476D03*
X4552566Y95174476D03*
X7092566Y95174476D03*
X4552566Y92634476D03*
X7092566Y92634476D03*
D21*
X4554566Y85370476D03*
D22*
X4554566Y87910476D03*
D21*
X36554566Y85370476D03*
D22*
X36554566Y87910476D03*
D19*
X36552566Y97714476D03*
D20*
X39092566Y97714476D03*
X36552566Y95174476D03*
X39092566Y95174476D03*
X36552566Y92634476D03*
X39092566Y92634476D03*
D21*
X68554566Y85370476D03*
D22*
X68554566Y87910476D03*
D19*
X70974566Y68592476D03*
D20*
X68434566Y68592476D03*
X70974566Y71132476D03*
X68434566Y71132476D03*
X70974566Y73672476D03*
X68434566Y73672476D03*
X70974566Y76212476D03*
X68434566Y76212476D03*
X70974566Y78752476D03*
X68434566Y78752476D03*
X70974566Y81292476D03*
X68434566Y81292476D03*
D17*
X89424566Y97536476D03*
D18*
X89424566Y94996476D03*
X86884566Y97536476D03*
X86884566Y94996476D03*
X84344566Y97536476D03*
X84344566Y94996476D03*
X81804566Y97536476D03*
X81804566Y94996476D03*
D15*
X93952566Y92416476D03*
D16*
X93952566Y94956476D03*
X93952566Y97496476D03*
D19*
X68552566Y97714476D03*
D20*
X71092566Y97714476D03*
X68552566Y95174476D03*
X71092566Y95174476D03*
X68552566Y92634476D03*
X71092566Y92634476D03*
D15*
X94002566Y73838476D03*
D16*
X94002566Y76378476D03*
X94002566Y78918476D03*
D21*
X69812566Y55422076D03*
D22*
X69812566Y57962076D03*
D21*
X94358966Y55398076D03*
D22*
X94358966Y52858076D03*
D21*
X89532966Y55398076D03*
D22*
X89532966Y52858076D03*
D21*
X25532966Y55398076D03*
D22*
X25532966Y52858076D03*
D21*
X30358966Y55398076D03*
D22*
X30358966Y52858076D03*
D21*
X5812566Y55422076D03*
D22*
X5812566Y57962076D03*
D19*
X6974566Y68592476D03*
D20*
X4434566Y68592476D03*
X6974566Y71132476D03*
X4434566Y71132476D03*
X6974566Y73672476D03*
X4434566Y73672476D03*
X6974566Y76212476D03*
X4434566Y76212476D03*
X6974566Y78752476D03*
X4434566Y78752476D03*
X6974566Y81292476D03*
X4434566Y81292476D03*
D21*
X37812566Y55422076D03*
D22*
X37812566Y57962076D03*
D19*
X38974566Y68592476D03*
D20*
X36434566Y68592476D03*
X38974566Y71132476D03*
X36434566Y71132476D03*
X38974566Y73672476D03*
X36434566Y73672476D03*
X38974566Y76212476D03*
X36434566Y76212476D03*
X38974566Y78752476D03*
X36434566Y78752476D03*
X38974566Y81292476D03*
X36434566Y81292476D03*
D15*
X62002566Y73838476D03*
D16*
X62002566Y76378476D03*
X62002566Y78918476D03*
D15*
X61952566Y92416476D03*
D16*
X61952566Y94956476D03*
X61952566Y97496476D03*
D17*
X57424566Y97536476D03*
D18*
X57424566Y94996476D03*
X54884566Y97536476D03*
X54884566Y94996476D03*
X52344566Y97536476D03*
X52344566Y94996476D03*
X49804566Y97536476D03*
X49804566Y94996476D03*
D21*
X57532966Y55398076D03*
D22*
X57532966Y52858076D03*
D21*
X62358966Y55398076D03*
D22*
X62358966Y52858076D03*
D11*
X88348000Y18238400D03*
X88348000Y16917600D03*
X86316000Y17578000D03*
D12*
X71102000Y15070000D03*
X71102000Y12870000D03*
X69502000Y15070000D03*
X69502000Y12870000D03*
D14*
X90416000Y18828000D03*
X91316000Y18828000D03*
X96210000Y9398000D03*
X95310000Y9398000D03*
D11*
X88332000Y20988400D03*
X88332000Y19667600D03*
X86300000Y20328000D03*
D14*
X90166000Y21328000D03*
X91066000Y21328000D03*
X90116000Y28828000D03*
X91016000Y28828000D03*
X90166000Y26328000D03*
X91066000Y26328000D03*
D11*
X88316000Y26578000D03*
X88316000Y25257200D03*
X86284000Y25917600D03*
X88332000Y23738400D03*
X88332000Y22417600D03*
X86300000Y23078000D03*
X88332000Y29488400D03*
X88332000Y28167600D03*
X86300000Y28828000D03*
D14*
X90166000Y23828000D03*
X91066000Y23828000D03*
D13*
X77696400Y33115722D03*
X77696400Y34015722D03*
X76196400Y33065722D03*
X76196400Y33965722D03*
X91942000Y43928400D03*
X91942000Y44828400D03*
D11*
X88348000Y32238400D03*
X88348000Y30917600D03*
X86316000Y31578000D03*
D13*
X91942000Y41828400D03*
X91942000Y42728400D03*
D14*
X90166000Y31328000D03*
X91066000Y31328000D03*
D17*
X74576000Y2464000D03*
D18*
X74576000Y5004000D03*
X77116000Y2464000D03*
X77116000Y5004000D03*
X79656000Y2464000D03*
X79656000Y5004000D03*
X82196000Y2464000D03*
X82196000Y5004000D03*
D19*
X93026000Y31408000D03*
D20*
X95566000Y31408000D03*
X93026000Y28868000D03*
X95566000Y28868000D03*
X93026000Y26328000D03*
X95566000Y26328000D03*
X93026000Y23788000D03*
X95566000Y23788000D03*
X93026000Y21248000D03*
X95566000Y21248000D03*
X93026000Y18708000D03*
X95566000Y18708000D03*
D21*
X95446000Y14630000D03*
D22*
X95446000Y12090000D03*
D15*
X70048000Y7584000D03*
D16*
X70048000Y5044000D03*
X70048000Y2504000D03*
D19*
X95448000Y2286000D03*
D20*
X92908000Y2286000D03*
X95448000Y4826000D03*
X92908000Y4826000D03*
X95448000Y7366000D03*
X92908000Y7366000D03*
D15*
X69998000Y26162000D03*
D16*
X69998000Y23622000D03*
X69998000Y21082000D03*
D21*
X69641600Y44602400D03*
D22*
X69641600Y47142400D03*
D21*
X74467600Y44602400D03*
D22*
X74467600Y47142400D03*
D21*
X94188000Y44578400D03*
D22*
X94188000Y42038400D03*
D11*
X56348000Y18238400D03*
X56348000Y16917600D03*
X54316000Y17578000D03*
D12*
X39102000Y15070000D03*
X39102000Y12870000D03*
X37502000Y15070000D03*
X37502000Y12870000D03*
D14*
X58416000Y18828000D03*
X59316000Y18828000D03*
X64210000Y9398000D03*
X63310000Y9398000D03*
D11*
X56332000Y20988400D03*
X56332000Y19667600D03*
X54300000Y20328000D03*
D14*
X58166000Y21328000D03*
X59066000Y21328000D03*
X58116000Y28828000D03*
X59016000Y28828000D03*
X58166000Y26328000D03*
X59066000Y26328000D03*
D11*
X56316000Y26578000D03*
X56316000Y25257200D03*
X54284000Y25917600D03*
X56332000Y23738400D03*
X56332000Y22417600D03*
X54300000Y23078000D03*
X56332000Y29488400D03*
X56332000Y28167600D03*
X54300000Y28828000D03*
D14*
X58166000Y23828000D03*
X59066000Y23828000D03*
D13*
X45696400Y33115722D03*
X45696400Y34015722D03*
X44196400Y33065722D03*
X44196400Y33965722D03*
X59942000Y43928400D03*
X59942000Y44828400D03*
D11*
X56348000Y32238400D03*
X56348000Y30917600D03*
X54316000Y31578000D03*
D13*
X59942000Y41828400D03*
X59942000Y42728400D03*
D14*
X58166000Y31328000D03*
X59066000Y31328000D03*
D17*
X42576000Y2464000D03*
D18*
X42576000Y5004000D03*
X45116000Y2464000D03*
X45116000Y5004000D03*
X47656000Y2464000D03*
X47656000Y5004000D03*
X50196000Y2464000D03*
X50196000Y5004000D03*
D19*
X61026000Y31408000D03*
D20*
X63566000Y31408000D03*
X61026000Y28868000D03*
X63566000Y28868000D03*
X61026000Y26328000D03*
X63566000Y26328000D03*
X61026000Y23788000D03*
X63566000Y23788000D03*
X61026000Y21248000D03*
X63566000Y21248000D03*
X61026000Y18708000D03*
X63566000Y18708000D03*
D21*
X63446000Y14630000D03*
D22*
X63446000Y12090000D03*
D15*
X38048000Y7584000D03*
D16*
X38048000Y5044000D03*
X38048000Y2504000D03*
D19*
X63448000Y2286000D03*
D20*
X60908000Y2286000D03*
X63448000Y4826000D03*
X60908000Y4826000D03*
X63448000Y7366000D03*
X60908000Y7366000D03*
D15*
X37998000Y26162000D03*
D16*
X37998000Y23622000D03*
X37998000Y21082000D03*
D21*
X37641600Y44602400D03*
D22*
X37641600Y47142400D03*
D21*
X42467600Y44602400D03*
D22*
X42467600Y47142400D03*
D21*
X62188000Y44578400D03*
D22*
X62188000Y42038400D03*
D19*
X31448000Y2286000D03*
D20*
X28908000Y2286000D03*
X31448000Y4826000D03*
X28908000Y4826000D03*
X31448000Y7366000D03*
X28908000Y7366000D03*
D21*
X5641600Y44602400D03*
D22*
X5641600Y47142400D03*
D21*
X10467600Y44602400D03*
D22*
X10467600Y47142400D03*
D19*
X29026000Y31408000D03*
D20*
X31566000Y31408000D03*
X29026000Y28868000D03*
X31566000Y28868000D03*
X29026000Y26328000D03*
X31566000Y26328000D03*
X29026000Y23788000D03*
X31566000Y23788000D03*
X29026000Y21248000D03*
X31566000Y21248000D03*
X29026000Y18708000D03*
X31566000Y18708000D03*
D15*
X5998000Y26162000D03*
D16*
X5998000Y23622000D03*
X5998000Y21082000D03*
D15*
X6048000Y7584000D03*
D16*
X6048000Y5044000D03*
X6048000Y2504000D03*
D21*
X30188000Y44578400D03*
D22*
X30188000Y42038400D03*
D21*
X31446000Y14630000D03*
D22*
X31446000Y12090000D03*
D11*
X24332000Y20988400D03*
X24332000Y19667600D03*
X22300000Y20328000D03*
X24348000Y18238400D03*
X24348000Y16917600D03*
X22316000Y17578000D03*
X24348000Y32238400D03*
X24348000Y30917600D03*
X22316000Y31578000D03*
X24332000Y29488400D03*
X24332000Y28167600D03*
X22300000Y28828000D03*
X24316000Y26578000D03*
X24316000Y25257200D03*
X22284000Y25917600D03*
X24332000Y23738400D03*
X24332000Y22417600D03*
X22300000Y23078000D03*
D17*
X10576000Y2464000D03*
D18*
X10576000Y5004000D03*
X13116000Y2464000D03*
X13116000Y5004000D03*
X15656000Y2464000D03*
X15656000Y5004000D03*
X18196000Y2464000D03*
X18196000Y5004000D03*
D12*
X7102000Y15070000D03*
X7102000Y12870000D03*
X5502000Y15070000D03*
X5502000Y12870000D03*
D13*
X13696400Y33115722D03*
X13696400Y34015722D03*
X12196400Y33065722D03*
X12196400Y33965722D03*
D14*
X26166000Y21328000D03*
X27066000Y21328000D03*
X26416000Y18828000D03*
X27316000Y18828000D03*
X26166000Y31328000D03*
X27066000Y31328000D03*
X26116000Y28828000D03*
X27016000Y28828000D03*
X26166000Y26328000D03*
X27066000Y26328000D03*
X26166000Y23828000D03*
X27066000Y23828000D03*
X32210000Y9398000D03*
X31310000Y9398000D03*
D13*
X27942000Y43928400D03*
X27942000Y44828400D03*
X27942000Y41828400D03*
X27942000Y42728400D03*
M02*
