G04 #@! TF.FileFunction,Legend,Bot*
%FSLAX46Y46*%
G04 Gerber Fmt 4.6, Leading zero omitted, Abs format (unit mm)*
G04 Created by KiCad (PCBNEW 4.0.6) date 12/25/17 20:13:07*
%MOMM*%
%LPD*%
G01*
G04 APERTURE LIST*
%ADD10C,0.100000*%
%ADD11C,0.150000*%
G04 APERTURE END LIST*
D10*
D11*
X77234566Y78572476D02*
X76134566Y78572476D01*
X76134566Y78572476D02*
X76134566Y80772476D01*
X76134566Y80772476D02*
X77234566Y80772476D01*
X77234566Y80772476D02*
X77234566Y78622476D01*
X77234566Y78622476D02*
X77234566Y78572476D01*
X77218566Y81322476D02*
X76118566Y81322476D01*
X76118566Y81322476D02*
X76118566Y83522476D01*
X76118566Y83522476D02*
X77218566Y83522476D01*
X77218566Y83522476D02*
X77218566Y81372476D01*
X77218566Y81372476D02*
X77218566Y81322476D01*
X77234566Y75822476D02*
X76134566Y75822476D01*
X76134566Y75822476D02*
X76134566Y78022476D01*
X76134566Y78022476D02*
X77234566Y78022476D01*
X77234566Y78022476D02*
X77234566Y75872476D01*
X77234566Y75872476D02*
X77234566Y75822476D01*
X94998566Y84430476D02*
X94998566Y87630476D01*
X94998566Y87630476D02*
X92398566Y87630476D01*
X92398566Y87630476D02*
X92398566Y84430476D01*
X92398566Y84430476D02*
X94998566Y84430476D01*
X71533566Y57472076D02*
X71533566Y57972076D01*
X72583566Y57972076D02*
X72583566Y57472076D01*
X77218566Y67322476D02*
X76118566Y67322476D01*
X76118566Y67322476D02*
X76118566Y69522476D01*
X76118566Y69522476D02*
X77218566Y69522476D01*
X77218566Y69522476D02*
X77218566Y67372476D01*
X77218566Y67372476D02*
X77218566Y67322476D01*
X73134566Y69197476D02*
X73634566Y69197476D01*
X73634566Y68147476D02*
X73134566Y68147476D01*
X71533566Y55372076D02*
X71533566Y55872076D01*
X72583566Y55872076D02*
X72583566Y55372076D01*
X87279166Y66234754D02*
X87279166Y66734754D01*
X88329166Y66734754D02*
X88329166Y66234754D01*
X85779166Y66184754D02*
X85779166Y66684754D01*
X86829166Y66684754D02*
X86829166Y66184754D01*
X53779166Y66184754D02*
X53779166Y66684754D01*
X54829166Y66684754D02*
X54829166Y66184754D01*
X55279166Y66234754D02*
X55279166Y66734754D01*
X56329166Y66734754D02*
X56329166Y66234754D01*
X77234566Y70072476D02*
X76134566Y70072476D01*
X76134566Y70072476D02*
X76134566Y72272476D01*
X76134566Y72272476D02*
X77234566Y72272476D01*
X77234566Y72272476D02*
X77234566Y70122476D01*
X77234566Y70122476D02*
X77234566Y70072476D01*
X73134566Y74197476D02*
X73634566Y74197476D01*
X73634566Y73147476D02*
X73134566Y73147476D01*
X73184566Y71697476D02*
X73684566Y71697476D01*
X73684566Y70647476D02*
X73184566Y70647476D01*
X73134566Y76697476D02*
X73634566Y76697476D01*
X73634566Y75647476D02*
X73134566Y75647476D01*
X77250566Y72982876D02*
X76150566Y72982876D01*
X76150566Y72982876D02*
X76150566Y75182876D01*
X76150566Y75182876D02*
X77250566Y75182876D01*
X77250566Y75182876D02*
X77250566Y73032876D01*
X77250566Y73032876D02*
X77250566Y72982876D01*
X62998566Y84430476D02*
X62998566Y87630476D01*
X62998566Y87630476D02*
X60398566Y87630476D01*
X60398566Y87630476D02*
X60398566Y84430476D01*
X60398566Y84430476D02*
X62998566Y84430476D01*
X68490566Y90077476D02*
X67990566Y90077476D01*
X67990566Y91127476D02*
X68490566Y91127476D01*
X73134566Y79197476D02*
X73634566Y79197476D01*
X73634566Y78147476D02*
X73134566Y78147476D01*
X72884566Y81697476D02*
X73384566Y81697476D01*
X73384566Y80647476D02*
X72884566Y80647476D01*
X13218566Y81322476D02*
X12118566Y81322476D01*
X12118566Y81322476D02*
X12118566Y83522476D01*
X12118566Y83522476D02*
X13218566Y83522476D01*
X13218566Y83522476D02*
X13218566Y81372476D01*
X13218566Y81372476D02*
X13218566Y81322476D01*
X4490566Y90077476D02*
X3990566Y90077476D01*
X3990566Y91127476D02*
X4490566Y91127476D01*
X13234566Y78572476D02*
X12134566Y78572476D01*
X12134566Y78572476D02*
X12134566Y80772476D01*
X12134566Y80772476D02*
X13234566Y80772476D01*
X13234566Y80772476D02*
X13234566Y78622476D01*
X13234566Y78622476D02*
X13234566Y78572476D01*
X9134566Y79197476D02*
X9634566Y79197476D01*
X9634566Y78147476D02*
X9134566Y78147476D01*
X13234566Y75822476D02*
X12134566Y75822476D01*
X12134566Y75822476D02*
X12134566Y78022476D01*
X12134566Y78022476D02*
X13234566Y78022476D01*
X13234566Y78022476D02*
X13234566Y75872476D01*
X13234566Y75872476D02*
X13234566Y75822476D01*
X9134566Y76697476D02*
X9634566Y76697476D01*
X9634566Y75647476D02*
X9134566Y75647476D01*
X8884566Y81697476D02*
X9384566Y81697476D01*
X9384566Y80647476D02*
X8884566Y80647476D01*
X9184566Y71697476D02*
X9684566Y71697476D01*
X9684566Y70647476D02*
X9184566Y70647476D01*
X13218566Y67322476D02*
X12118566Y67322476D01*
X12118566Y67322476D02*
X12118566Y69522476D01*
X12118566Y69522476D02*
X13218566Y69522476D01*
X13218566Y69522476D02*
X13218566Y67372476D01*
X13218566Y67372476D02*
X13218566Y67322476D01*
X9134566Y69197476D02*
X9634566Y69197476D01*
X9634566Y68147476D02*
X9134566Y68147476D01*
X9134566Y74197476D02*
X9634566Y74197476D01*
X9634566Y73147476D02*
X9134566Y73147476D01*
X13250566Y72982876D02*
X12150566Y72982876D01*
X12150566Y72982876D02*
X12150566Y75182876D01*
X12150566Y75182876D02*
X13250566Y75182876D01*
X13250566Y75182876D02*
X13250566Y73032876D01*
X13250566Y73032876D02*
X13250566Y72982876D01*
X13234566Y70072476D02*
X12134566Y70072476D01*
X12134566Y70072476D02*
X12134566Y72272476D01*
X12134566Y72272476D02*
X13234566Y72272476D01*
X13234566Y72272476D02*
X13234566Y70122476D01*
X13234566Y70122476D02*
X13234566Y70072476D01*
X7533566Y55372076D02*
X7533566Y55872076D01*
X8583566Y55872076D02*
X8583566Y55372076D01*
X7533566Y57472076D02*
X7533566Y57972076D01*
X8583566Y57972076D02*
X8583566Y57472076D01*
X45218566Y67322476D02*
X44118566Y67322476D01*
X44118566Y67322476D02*
X44118566Y69522476D01*
X44118566Y69522476D02*
X45218566Y69522476D01*
X45218566Y69522476D02*
X45218566Y67372476D01*
X45218566Y67372476D02*
X45218566Y67322476D01*
X45234566Y70072476D02*
X44134566Y70072476D01*
X44134566Y70072476D02*
X44134566Y72272476D01*
X44134566Y72272476D02*
X45234566Y72272476D01*
X45234566Y72272476D02*
X45234566Y70122476D01*
X45234566Y70122476D02*
X45234566Y70072476D01*
X41184566Y71697476D02*
X41684566Y71697476D01*
X41684566Y70647476D02*
X41184566Y70647476D01*
X45234566Y75822476D02*
X44134566Y75822476D01*
X44134566Y75822476D02*
X44134566Y78022476D01*
X44134566Y78022476D02*
X45234566Y78022476D01*
X45234566Y78022476D02*
X45234566Y75872476D01*
X45234566Y75872476D02*
X45234566Y75822476D01*
X41134566Y74197476D02*
X41634566Y74197476D01*
X41634566Y73147476D02*
X41134566Y73147476D01*
X41134566Y76697476D02*
X41634566Y76697476D01*
X41634566Y75647476D02*
X41134566Y75647476D01*
X45250566Y72982876D02*
X44150566Y72982876D01*
X44150566Y72982876D02*
X44150566Y75182876D01*
X44150566Y75182876D02*
X45250566Y75182876D01*
X45250566Y75182876D02*
X45250566Y73032876D01*
X45250566Y73032876D02*
X45250566Y72982876D01*
X30998566Y84430476D02*
X30998566Y87630476D01*
X30998566Y87630476D02*
X28398566Y87630476D01*
X28398566Y87630476D02*
X28398566Y84430476D01*
X28398566Y84430476D02*
X30998566Y84430476D01*
X36490566Y90077476D02*
X35990566Y90077476D01*
X35990566Y91127476D02*
X36490566Y91127476D01*
X45234566Y78572476D02*
X44134566Y78572476D01*
X44134566Y78572476D02*
X44134566Y80772476D01*
X44134566Y80772476D02*
X45234566Y80772476D01*
X45234566Y80772476D02*
X45234566Y78622476D01*
X45234566Y78622476D02*
X45234566Y78572476D01*
X40884566Y81697476D02*
X41384566Y81697476D01*
X41384566Y80647476D02*
X40884566Y80647476D01*
X41134566Y79197476D02*
X41634566Y79197476D01*
X41634566Y78147476D02*
X41134566Y78147476D01*
X45218566Y81322476D02*
X44118566Y81322476D01*
X44118566Y81322476D02*
X44118566Y83522476D01*
X44118566Y83522476D02*
X45218566Y83522476D01*
X45218566Y83522476D02*
X45218566Y81372476D01*
X45218566Y81372476D02*
X45218566Y81322476D01*
X21779166Y66184754D02*
X21779166Y66684754D01*
X22829166Y66684754D02*
X22829166Y66184754D01*
X23279166Y66234754D02*
X23279166Y66734754D01*
X24329166Y66734754D02*
X24329166Y66234754D01*
X39533566Y57472076D02*
X39533566Y57972076D01*
X40583566Y57972076D02*
X40583566Y57472076D01*
X41134566Y69197476D02*
X41634566Y69197476D01*
X41634566Y68147476D02*
X41134566Y68147476D01*
X39533566Y55372076D02*
X39533566Y55872076D01*
X40583566Y55872076D02*
X40583566Y55372076D01*
X86782000Y18678000D02*
X87882000Y18678000D01*
X87882000Y18678000D02*
X87882000Y16478000D01*
X87882000Y16478000D02*
X86782000Y16478000D01*
X86782000Y16478000D02*
X86782000Y18628000D01*
X86782000Y18628000D02*
X86782000Y18678000D01*
X69002000Y15570000D02*
X69002000Y12370000D01*
X69002000Y12370000D02*
X71602000Y12370000D01*
X71602000Y12370000D02*
X71602000Y15570000D01*
X71602000Y15570000D02*
X69002000Y15570000D01*
X91116000Y18303000D02*
X90616000Y18303000D01*
X90616000Y19353000D02*
X91116000Y19353000D01*
X95510000Y9923000D02*
X96010000Y9923000D01*
X96010000Y8873000D02*
X95510000Y8873000D01*
X86766000Y21428000D02*
X87866000Y21428000D01*
X87866000Y21428000D02*
X87866000Y19228000D01*
X87866000Y19228000D02*
X86766000Y19228000D01*
X86766000Y19228000D02*
X86766000Y21378000D01*
X86766000Y21378000D02*
X86766000Y21428000D01*
X90866000Y20803000D02*
X90366000Y20803000D01*
X90366000Y21853000D02*
X90866000Y21853000D01*
X90816000Y28303000D02*
X90316000Y28303000D01*
X90316000Y29353000D02*
X90816000Y29353000D01*
X90866000Y25803000D02*
X90366000Y25803000D01*
X90366000Y26853000D02*
X90866000Y26853000D01*
X86750000Y27017600D02*
X87850000Y27017600D01*
X87850000Y27017600D02*
X87850000Y24817600D01*
X87850000Y24817600D02*
X86750000Y24817600D01*
X86750000Y24817600D02*
X86750000Y26967600D01*
X86750000Y26967600D02*
X86750000Y27017600D01*
X86766000Y24178000D02*
X87866000Y24178000D01*
X87866000Y24178000D02*
X87866000Y21978000D01*
X87866000Y21978000D02*
X86766000Y21978000D01*
X86766000Y21978000D02*
X86766000Y24128000D01*
X86766000Y24128000D02*
X86766000Y24178000D01*
X86766000Y29928000D02*
X87866000Y29928000D01*
X87866000Y29928000D02*
X87866000Y27728000D01*
X87866000Y27728000D02*
X86766000Y27728000D01*
X86766000Y27728000D02*
X86766000Y29878000D01*
X86766000Y29878000D02*
X86766000Y29928000D01*
X90866000Y23303000D02*
X90366000Y23303000D01*
X90366000Y24353000D02*
X90866000Y24353000D01*
X78221400Y33815722D02*
X78221400Y33315722D01*
X77171400Y33315722D02*
X77171400Y33815722D01*
X76721400Y33765722D02*
X76721400Y33265722D01*
X75671400Y33265722D02*
X75671400Y33765722D01*
X92467000Y44628400D02*
X92467000Y44128400D01*
X91417000Y44128400D02*
X91417000Y44628400D01*
X86782000Y32678000D02*
X87882000Y32678000D01*
X87882000Y32678000D02*
X87882000Y30478000D01*
X87882000Y30478000D02*
X86782000Y30478000D01*
X86782000Y30478000D02*
X86782000Y32628000D01*
X86782000Y32628000D02*
X86782000Y32678000D01*
X92467000Y42528400D02*
X92467000Y42028400D01*
X91417000Y42028400D02*
X91417000Y42528400D01*
X90866000Y30803000D02*
X90366000Y30803000D01*
X90366000Y31853000D02*
X90866000Y31853000D01*
X54782000Y18678000D02*
X55882000Y18678000D01*
X55882000Y18678000D02*
X55882000Y16478000D01*
X55882000Y16478000D02*
X54782000Y16478000D01*
X54782000Y16478000D02*
X54782000Y18628000D01*
X54782000Y18628000D02*
X54782000Y18678000D01*
X37002000Y15570000D02*
X37002000Y12370000D01*
X37002000Y12370000D02*
X39602000Y12370000D01*
X39602000Y12370000D02*
X39602000Y15570000D01*
X39602000Y15570000D02*
X37002000Y15570000D01*
X59116000Y18303000D02*
X58616000Y18303000D01*
X58616000Y19353000D02*
X59116000Y19353000D01*
X63510000Y9923000D02*
X64010000Y9923000D01*
X64010000Y8873000D02*
X63510000Y8873000D01*
X54766000Y21428000D02*
X55866000Y21428000D01*
X55866000Y21428000D02*
X55866000Y19228000D01*
X55866000Y19228000D02*
X54766000Y19228000D01*
X54766000Y19228000D02*
X54766000Y21378000D01*
X54766000Y21378000D02*
X54766000Y21428000D01*
X58866000Y20803000D02*
X58366000Y20803000D01*
X58366000Y21853000D02*
X58866000Y21853000D01*
X58816000Y28303000D02*
X58316000Y28303000D01*
X58316000Y29353000D02*
X58816000Y29353000D01*
X58866000Y25803000D02*
X58366000Y25803000D01*
X58366000Y26853000D02*
X58866000Y26853000D01*
X54750000Y27017600D02*
X55850000Y27017600D01*
X55850000Y27017600D02*
X55850000Y24817600D01*
X55850000Y24817600D02*
X54750000Y24817600D01*
X54750000Y24817600D02*
X54750000Y26967600D01*
X54750000Y26967600D02*
X54750000Y27017600D01*
X54766000Y24178000D02*
X55866000Y24178000D01*
X55866000Y24178000D02*
X55866000Y21978000D01*
X55866000Y21978000D02*
X54766000Y21978000D01*
X54766000Y21978000D02*
X54766000Y24128000D01*
X54766000Y24128000D02*
X54766000Y24178000D01*
X54766000Y29928000D02*
X55866000Y29928000D01*
X55866000Y29928000D02*
X55866000Y27728000D01*
X55866000Y27728000D02*
X54766000Y27728000D01*
X54766000Y27728000D02*
X54766000Y29878000D01*
X54766000Y29878000D02*
X54766000Y29928000D01*
X58866000Y23303000D02*
X58366000Y23303000D01*
X58366000Y24353000D02*
X58866000Y24353000D01*
X46221400Y33815722D02*
X46221400Y33315722D01*
X45171400Y33315722D02*
X45171400Y33815722D01*
X44721400Y33765722D02*
X44721400Y33265722D01*
X43671400Y33265722D02*
X43671400Y33765722D01*
X60467000Y44628400D02*
X60467000Y44128400D01*
X59417000Y44128400D02*
X59417000Y44628400D01*
X54782000Y32678000D02*
X55882000Y32678000D01*
X55882000Y32678000D02*
X55882000Y30478000D01*
X55882000Y30478000D02*
X54782000Y30478000D01*
X54782000Y30478000D02*
X54782000Y32628000D01*
X54782000Y32628000D02*
X54782000Y32678000D01*
X60467000Y42528400D02*
X60467000Y42028400D01*
X59417000Y42028400D02*
X59417000Y42528400D01*
X58866000Y30803000D02*
X58366000Y30803000D01*
X58366000Y31853000D02*
X58866000Y31853000D01*
X22766000Y21428000D02*
X23866000Y21428000D01*
X23866000Y21428000D02*
X23866000Y19228000D01*
X23866000Y19228000D02*
X22766000Y19228000D01*
X22766000Y19228000D02*
X22766000Y21378000D01*
X22766000Y21378000D02*
X22766000Y21428000D01*
X22782000Y18678000D02*
X23882000Y18678000D01*
X23882000Y18678000D02*
X23882000Y16478000D01*
X23882000Y16478000D02*
X22782000Y16478000D01*
X22782000Y16478000D02*
X22782000Y18628000D01*
X22782000Y18628000D02*
X22782000Y18678000D01*
X22782000Y32678000D02*
X23882000Y32678000D01*
X23882000Y32678000D02*
X23882000Y30478000D01*
X23882000Y30478000D02*
X22782000Y30478000D01*
X22782000Y30478000D02*
X22782000Y32628000D01*
X22782000Y32628000D02*
X22782000Y32678000D01*
X22766000Y29928000D02*
X23866000Y29928000D01*
X23866000Y29928000D02*
X23866000Y27728000D01*
X23866000Y27728000D02*
X22766000Y27728000D01*
X22766000Y27728000D02*
X22766000Y29878000D01*
X22766000Y29878000D02*
X22766000Y29928000D01*
X22750000Y27017600D02*
X23850000Y27017600D01*
X23850000Y27017600D02*
X23850000Y24817600D01*
X23850000Y24817600D02*
X22750000Y24817600D01*
X22750000Y24817600D02*
X22750000Y26967600D01*
X22750000Y26967600D02*
X22750000Y27017600D01*
X22766000Y24178000D02*
X23866000Y24178000D01*
X23866000Y24178000D02*
X23866000Y21978000D01*
X23866000Y21978000D02*
X22766000Y21978000D01*
X22766000Y21978000D02*
X22766000Y24128000D01*
X22766000Y24128000D02*
X22766000Y24178000D01*
X5002000Y15570000D02*
X5002000Y12370000D01*
X5002000Y12370000D02*
X7602000Y12370000D01*
X7602000Y12370000D02*
X7602000Y15570000D01*
X7602000Y15570000D02*
X5002000Y15570000D01*
X14221400Y33815722D02*
X14221400Y33315722D01*
X13171400Y33315722D02*
X13171400Y33815722D01*
X12721400Y33765722D02*
X12721400Y33265722D01*
X11671400Y33265722D02*
X11671400Y33765722D01*
X26866000Y20803000D02*
X26366000Y20803000D01*
X26366000Y21853000D02*
X26866000Y21853000D01*
X27116000Y18303000D02*
X26616000Y18303000D01*
X26616000Y19353000D02*
X27116000Y19353000D01*
X26866000Y30803000D02*
X26366000Y30803000D01*
X26366000Y31853000D02*
X26866000Y31853000D01*
X26816000Y28303000D02*
X26316000Y28303000D01*
X26316000Y29353000D02*
X26816000Y29353000D01*
X26866000Y25803000D02*
X26366000Y25803000D01*
X26366000Y26853000D02*
X26866000Y26853000D01*
X26866000Y23303000D02*
X26366000Y23303000D01*
X26366000Y24353000D02*
X26866000Y24353000D01*
X31510000Y9923000D02*
X32010000Y9923000D01*
X32010000Y8873000D02*
X31510000Y8873000D01*
X28467000Y44628400D02*
X28467000Y44128400D01*
X27417000Y44128400D02*
X27417000Y44628400D01*
X28467000Y42528400D02*
X28467000Y42028400D01*
X27417000Y42028400D02*
X27417000Y42528400D01*
M02*
