G04 #@! TF.FileFunction,Profile,NP*
%FSLAX46Y46*%
G04 Gerber Fmt 4.6, Leading zero omitted, Abs format (unit mm)*
G04 Created by KiCad (PCBNEW 4.0.6) date 12/25/17 19:58:59*
%MOMM*%
%LPD*%
G01*
G04 APERTURE LIST*
%ADD10C,0.100000*%
%ADD11C,0.150000*%
G04 APERTURE END LIST*
D10*
D11*
X2000000Y40000000D02*
X2000000Y10000000D01*
X2000000Y57000000D02*
X2000000Y43000000D01*
X2000000Y90000000D02*
X2000000Y60000000D01*
X2000000Y100000000D02*
X2000000Y93000000D01*
X0Y100000000D02*
X2000000Y100000000D01*
X0Y0D02*
X0Y100000000D01*
X2000000Y0D02*
X0Y0D01*
X2000000Y7000000D02*
X2000000Y0D01*
X98000000Y0D02*
X98000000Y7000000D01*
X100000000Y0D02*
X98000000Y0D01*
X100000000Y100000000D02*
X100000000Y0D01*
X98000000Y100000000D02*
X100000000Y100000000D01*
X98000000Y93000000D02*
X98000000Y100000000D01*
X98000000Y60000000D02*
X98000000Y90000000D01*
X98000000Y57000000D02*
X98000000Y43000000D01*
X98000000Y40000000D02*
X98000000Y10000000D01*
X26000566Y51000476D02*
X26000566Y50000476D01*
X33000566Y51000476D02*
X26000566Y51000476D01*
X33000566Y57000476D02*
X34000566Y57000476D01*
X34000566Y57000476D02*
X35000566Y57000476D01*
X33000566Y51000476D02*
X33000566Y57000476D01*
X34000566Y93000476D02*
X33000566Y93000476D01*
X35000566Y100000476D02*
X65000566Y100000476D01*
X35000566Y93000476D02*
X35000566Y100000476D01*
X35000566Y90000476D02*
X34000566Y90000476D01*
X34000566Y93000476D02*
X35000566Y93000476D01*
X33000566Y90000476D02*
X34000566Y90000476D01*
X45000566Y51000476D02*
X45000566Y50000476D01*
X42000566Y51000476D02*
X42000566Y50000476D01*
X35000566Y51000476D02*
X42000566Y51000476D01*
X35000566Y57000476D02*
X35000566Y51000476D01*
X33000566Y90000476D02*
X33000566Y60000476D01*
X34000566Y60000476D02*
X35000566Y60000476D01*
X3000566Y60000476D02*
X3000566Y90000476D01*
X35000566Y60000476D02*
X35000566Y90000476D01*
X34000566Y60000476D02*
X33000566Y60000476D01*
X3000566Y93000476D02*
X3000566Y100000476D01*
X2000566Y93000476D02*
X3000566Y93000476D01*
X3000566Y100000476D02*
X33000566Y100000476D01*
X3000566Y90000476D02*
X2000566Y90000476D01*
X33000566Y93000476D02*
X33000566Y100000476D01*
X65000566Y51000476D02*
X58000566Y51000476D01*
X55000566Y51000476D02*
X45000566Y51000476D01*
X58000566Y51000476D02*
X58000566Y50000476D01*
X55000566Y50000476D02*
X55000566Y51000476D01*
X2000566Y60000476D02*
X3000566Y60000476D01*
X13000566Y51000476D02*
X13000566Y50000476D01*
X23000566Y51000476D02*
X13000566Y51000476D01*
X2000566Y57000476D02*
X3000566Y57000476D01*
X23000566Y50000476D02*
X23000566Y51000476D01*
X3000566Y57000476D02*
X3000566Y51000476D01*
X3000566Y51000476D02*
X10000566Y51000476D01*
X10000566Y51000476D02*
X10000566Y50000476D01*
X66000566Y93000476D02*
X67000566Y93000476D01*
X67000566Y93000476D02*
X67000566Y100000476D01*
X65000566Y93000476D02*
X65000566Y100000476D01*
X65000566Y90000476D02*
X66000566Y90000476D01*
X66000566Y93000476D02*
X65000566Y93000476D01*
X67000566Y57000476D02*
X67000566Y51000476D01*
X66000566Y57000476D02*
X67000566Y57000476D01*
X65000566Y57000476D02*
X66000566Y57000476D01*
X67000566Y51000476D02*
X74000566Y51000476D01*
X74000566Y51000476D02*
X74000566Y50000476D01*
X65000566Y51000476D02*
X65000566Y57000476D01*
X97000566Y90000476D02*
X98000566Y90000476D01*
X98000566Y93000476D02*
X97000566Y93000476D01*
X97000566Y93000476D02*
X97000566Y100000476D01*
X67000566Y100000476D02*
X97000566Y100000476D01*
X66000566Y60000476D02*
X65000566Y60000476D01*
X65000566Y90000476D02*
X65000566Y60000476D01*
X67000566Y90000476D02*
X66000566Y90000476D01*
X66000566Y60000476D02*
X67000566Y60000476D01*
X67000566Y60000476D02*
X67000566Y90000476D01*
X97000566Y90000476D02*
X97000566Y60000476D01*
X97000566Y51000476D02*
X90000566Y51000476D01*
X97000566Y57000476D02*
X98000566Y57000476D01*
X98000566Y60000476D02*
X97000566Y60000476D01*
X97000566Y51000476D02*
X97000566Y57000476D01*
X77000566Y51000476D02*
X77000566Y50000476D01*
X87000566Y50000476D02*
X87000566Y51000476D01*
X87000566Y51000476D02*
X77000566Y51000476D01*
X90000566Y51000476D02*
X90000566Y50000476D01*
X97000000Y7000000D02*
X97000000Y0D01*
X97000000Y10000000D02*
X98000000Y10000000D01*
X98000000Y40000000D02*
X97000000Y40000000D01*
X98000000Y7000000D02*
X97000000Y7000000D01*
X90000000Y49000000D02*
X90000000Y50000000D01*
X97000000Y49000000D02*
X90000000Y49000000D01*
X97000000Y43000000D02*
X97000000Y49000000D01*
X98000000Y43000000D02*
X97000000Y43000000D01*
X67000000Y49000000D02*
X67000000Y43000000D01*
X67000000Y43000000D02*
X66000000Y43000000D01*
X67000000Y49000000D02*
X74000000Y49000000D01*
X66000000Y40000000D02*
X67000000Y40000000D01*
X74000000Y49000000D02*
X74000000Y50000000D01*
X77000000Y49000000D02*
X87000000Y49000000D01*
X87000000Y49000000D02*
X87000000Y50000000D01*
X77000000Y50000000D02*
X77000000Y49000000D01*
X67000000Y7000000D02*
X67000000Y0D01*
X97000000Y0D02*
X67000000Y0D01*
X97000000Y40000000D02*
X97000000Y10000000D01*
X67000000Y10000000D02*
X66000000Y10000000D01*
X66000000Y7000000D02*
X67000000Y7000000D01*
X67000000Y10000000D02*
X67000000Y40000000D01*
X65000000Y7000000D02*
X65000000Y0D01*
X65000000Y10000000D02*
X66000000Y10000000D01*
X66000000Y40000000D02*
X65000000Y40000000D01*
X66000000Y7000000D02*
X65000000Y7000000D01*
X58000000Y49000000D02*
X58000000Y50000000D01*
X65000000Y49000000D02*
X58000000Y49000000D01*
X65000000Y43000000D02*
X65000000Y49000000D01*
X66000000Y43000000D02*
X65000000Y43000000D01*
X35000000Y49000000D02*
X35000000Y43000000D01*
X35000000Y43000000D02*
X34000000Y43000000D01*
X35000000Y49000000D02*
X42000000Y49000000D01*
X34000000Y40000000D02*
X35000000Y40000000D01*
X42000000Y49000000D02*
X42000000Y50000000D01*
X45000000Y49000000D02*
X55000000Y49000000D01*
X55000000Y49000000D02*
X55000000Y50000000D01*
X45000000Y50000000D02*
X45000000Y49000000D01*
X35000000Y7000000D02*
X35000000Y0D01*
X65000000Y0D02*
X35000000Y0D01*
X65000000Y40000000D02*
X65000000Y10000000D01*
X35000000Y10000000D02*
X34000000Y10000000D01*
X34000000Y7000000D02*
X35000000Y7000000D01*
X35000000Y10000000D02*
X35000000Y40000000D01*
X2000000Y40000000D02*
X3000000Y40000000D01*
X3000000Y43000000D02*
X2000000Y43000000D01*
X3000000Y49000000D02*
X3000000Y43000000D01*
X33000000Y43000000D02*
X33000000Y49000000D01*
X34000000Y43000000D02*
X33000000Y43000000D01*
X34000000Y40000000D02*
X33000000Y40000000D01*
X3000000Y7000000D02*
X3000000Y0D01*
X2000000Y7000000D02*
X3000000Y7000000D01*
X3000000Y10000000D02*
X2000000Y10000000D01*
X33000000Y7000000D02*
X33000000Y0D01*
X34000000Y7000000D02*
X33000000Y7000000D01*
X33000000Y10000000D02*
X34000000Y10000000D01*
X23000000Y49000000D02*
X23000000Y50000000D01*
X13000000Y49000000D02*
X23000000Y49000000D01*
X13000000Y50000000D02*
X13000000Y49000000D01*
X10000000Y49000000D02*
X10000000Y50000000D01*
X26000000Y49000000D02*
X26000000Y50000000D01*
X33000000Y49000000D02*
X26000000Y49000000D01*
X33000000Y0D02*
X3000000Y0D01*
X33000000Y40000000D02*
X33000000Y10000000D01*
X3000000Y49000000D02*
X10000000Y49000000D01*
X3000000Y10000000D02*
X3000000Y40000000D01*
M02*
