M48
;DRILL file {KiCad 4.0.6} date 12/25/17 19:59:05
;FORMAT={-:-/ absolute / metric / decimal}
FMAT,2
METRIC,TZ
T1C0.400
T2C0.762
T3C1.016
%
G90
G05
M71
T1
X3.66Y48.057
X4.219Y12.954
X4.372Y41.554
X4.626Y36.779
X4.676Y9.093
X4.727Y10.973
X5.311Y18.364
X5.337Y33.731
X5.732Y12.87
X5.823Y61.342
X6.585Y65.202
X7.242Y15.254
X7.513Y32.904
X7.724Y19.355
X7.891Y16.854
X7.978Y48.209
X8.715Y26.924
X8.856Y30.891
X8.856Y29.641
X9.147Y11.379
X9.299Y8.992
X9.303Y36.547
X9.446Y34.302
X9.452Y21.742
X9.481Y33.528
X9.683Y65.964
X10.106Y30.891
X10.106Y29.641
X10.217Y91.542
X10.395Y86.742
X10.445Y77.648
X10.445Y74.905
X10.547Y83.44
X10.547Y72.264
X10.547Y60.173
X10.598Y69.571
X10.699Y80.646
X10.725Y56.846
X10.801Y81.916
X10.801Y73.381
X10.852Y78.969
X10.852Y76.226
X10.852Y70.587
X11.004Y67.793
X11.005Y32.969
X11.28Y16.104
X11.538Y60.148
X11.563Y53.468
X11.639Y56.854
X11.661Y11.151
X11.687Y8.788
X11.725Y19.3
X12.601Y39.751
X12.703Y45.11
X12.808Y84.125
X12.808Y60.173
X12.808Y56.854
X13.008Y31.953
X13.49Y38.049
X13.646Y56.854
X13.697Y67.641
X13.71Y7.689
X13.747Y60.173
X13.871Y48.057
X13.871Y32.004
X13.973Y16.916
X14.136Y54.812
X14.154Y65.761
X14.154Y63.475
X14.357Y93.295
X14.455Y8.052
X14.763Y78.309
X15.052Y86.663
X15.17Y80.646
X15.294Y35.306
X15.497Y6.858
X15.522Y44.196
X15.751Y17.628
X15.983Y82.881
X16.386Y41.072
X16.538Y38.989
X16.564Y42.215
X16.589Y41.631
X16.592Y78.36
X17.046Y31.979
X17.122Y34.061
X17.198Y41.023
X17.224Y47.981
X17.224Y46.939
X17.275Y45.822
X17.326Y42.248
X17.456Y90.856
X17.681Y29.312
X17.684Y40.998
X17.684Y57.76
X17.757Y42.24
X17.761Y59.03
X17.986Y21.895
X18.015Y78.106
X18.24Y40.97
X18.243Y57.76
X18.316Y42.24
X18.316Y59.003
X18.319Y70.689
X18.545Y9.144
X18.675Y57.753
X18.726Y54.179
X18.777Y53.061
X18.777Y52.02
X18.803Y58.978
X18.878Y65.939
X18.954Y68.022
X19.408Y21.641
X19.412Y58.37
X19.437Y57.786
X19.462Y61.012
X19.615Y58.929
X20.018Y17.12
X20.25Y82.373
X20.478Y55.804
X20.504Y93.142
X20.707Y64.694
X20.831Y19.355
X20.949Y13.337
X21.237Y21.692
X21.545Y91.949
X21.644Y6.706
X21.847Y36.525
X21.847Y34.239
X21.865Y45.189
X22.028Y83.084
X22.129Y67.996
X22.129Y51.944
X22.253Y39.827
X22.291Y92.311
X22.304Y32.36
X22.355Y43.147
X22.51Y61.951
X22.993Y68.047
X23.193Y43.147
X23.193Y39.827
X23.193Y15.875
X23.298Y54.89
X23.399Y60.249
X24.276Y80.701
X24.314Y91.212
X24.339Y88.85
X24.361Y43.147
X24.438Y46.533
X24.463Y39.853
X24.72Y83.897
X24.996Y67.031
X24.996Y32.207
X25.149Y29.413
X25.149Y23.774
X25.149Y21.031
X25.2Y26.619
X25.2Y18.085
X25.276Y43.155
X25.301Y19.355
X25.403Y30.429
X25.454Y39.827
X25.454Y27.737
X25.454Y16.561
X25.555Y25.095
X25.555Y22.352
X25.606Y13.259
X25.784Y8.458
X25.894Y70.36
X25.894Y69.11
X26.317Y34.036
X26.519Y66.472
X26.549Y78.258
X26.554Y65.698
X26.698Y63.453
X26.701Y91.009
X26.854Y88.621
X27.144Y70.36
X27.144Y69.11
X27.286Y73.076
X28.022Y51.791
X28.11Y83.146
X28.276Y80.646
X28.488Y67.097
X28.759Y84.746
X29.416Y34.798
X30.178Y38.659
X30.269Y87.13
X30.664Y66.269
X30.689Y81.636
X31.273Y89.028
X31.324Y90.907
X31.375Y63.221
X31.629Y58.446
X31.781Y87.046
X32.34Y51.944
X35.66Y48.057
X36.219Y12.954
X36.372Y41.554
X36.626Y36.779
X36.676Y9.093
X36.727Y10.973
X37.311Y18.364
X37.337Y33.731
X37.732Y12.87
X37.823Y61.342
X38.585Y65.202
X39.242Y15.254
X39.513Y32.904
X39.724Y19.355
X39.891Y16.854
X39.978Y48.209
X40.715Y26.924
X40.856Y30.891
X40.856Y29.641
X41.147Y11.379
X41.299Y8.992
X41.303Y36.547
X41.446Y34.302
X41.452Y21.742
X41.481Y33.528
X41.683Y65.964
X42.106Y30.891
X42.106Y29.641
X42.217Y91.542
X42.395Y86.742
X42.445Y77.648
X42.445Y74.905
X42.547Y83.44
X42.547Y72.264
X42.547Y60.173
X42.598Y69.571
X42.699Y80.646
X42.725Y56.846
X42.801Y81.916
X42.801Y73.381
X42.852Y78.969
X42.852Y76.226
X42.852Y70.587
X43.004Y67.793
X43.005Y32.969
X43.28Y16.104
X43.538Y60.148
X43.563Y53.468
X43.639Y56.854
X43.661Y11.151
X43.687Y8.788
X43.725Y19.3
X44.601Y39.751
X44.703Y45.11
X44.808Y84.125
X44.808Y60.173
X44.808Y56.854
X45.008Y31.953
X45.49Y38.049
X45.646Y56.854
X45.697Y67.641
X45.71Y7.689
X45.747Y60.173
X45.871Y48.057
X45.871Y32.004
X45.973Y16.916
X46.136Y54.812
X46.154Y65.761
X46.154Y63.475
X46.357Y93.295
X46.455Y8.052
X46.763Y78.309
X47.052Y86.663
X47.17Y80.646
X47.294Y35.306
X47.497Y6.858
X47.522Y44.196
X47.751Y17.628
X47.983Y82.881
X48.386Y41.072
X48.538Y38.989
X48.564Y42.215
X48.589Y41.631
X48.592Y78.36
X49.046Y31.979
X49.122Y34.061
X49.198Y41.023
X49.224Y47.981
X49.224Y46.939
X49.275Y45.822
X49.326Y42.248
X49.456Y90.856
X49.681Y29.312
X49.684Y40.998
X49.684Y57.76
X49.757Y42.24
X49.761Y59.03
X49.986Y21.895
X50.015Y78.106
X50.24Y40.97
X50.243Y57.76
X50.316Y42.24
X50.316Y59.003
X50.319Y70.689
X50.545Y9.144
X50.675Y57.753
X50.726Y54.179
X50.777Y53.061
X50.777Y52.02
X50.803Y58.978
X50.878Y65.939
X50.954Y68.022
X51.408Y21.641
X51.412Y58.37
X51.437Y57.786
X51.462Y61.012
X51.615Y58.929
X52.018Y17.12
X52.25Y82.373
X52.478Y55.804
X52.504Y93.142
X52.707Y64.694
X52.831Y19.355
X52.949Y13.337
X53.237Y21.692
X53.545Y91.949
X53.644Y6.706
X53.847Y36.525
X53.847Y34.239
X53.865Y45.189
X54.028Y83.084
X54.129Y67.996
X54.129Y51.944
X54.253Y39.827
X54.291Y92.311
X54.304Y32.36
X54.355Y43.147
X54.51Y61.951
X54.993Y68.047
X55.193Y43.147
X55.193Y39.827
X55.193Y15.875
X55.298Y54.89
X55.399Y60.249
X56.276Y80.701
X56.314Y91.212
X56.339Y88.85
X56.361Y43.147
X56.438Y46.533
X56.463Y39.853
X56.72Y83.897
X56.996Y67.031
X56.996Y32.207
X57.149Y29.413
X57.149Y23.774
X57.149Y21.031
X57.2Y26.619
X57.2Y18.085
X57.276Y43.155
X57.301Y19.355
X57.403Y30.429
X57.454Y39.827
X57.454Y27.737
X57.454Y16.561
X57.555Y25.095
X57.555Y22.352
X57.606Y13.259
X57.784Y8.458
X57.894Y70.36
X57.894Y69.11
X58.317Y34.036
X58.519Y66.472
X58.549Y78.258
X58.554Y65.698
X58.698Y63.453
X58.701Y91.009
X58.854Y88.621
X59.144Y70.36
X59.144Y69.11
X59.286Y73.076
X60.022Y51.791
X60.11Y83.146
X60.276Y80.646
X60.488Y67.097
X60.759Y84.746
X61.416Y34.798
X62.178Y38.659
X62.269Y87.13
X62.664Y66.269
X62.689Y81.636
X63.273Y89.028
X63.324Y90.907
X63.375Y63.221
X63.629Y58.446
X63.781Y87.046
X64.34Y51.944
X67.66Y48.057
X68.219Y12.954
X68.372Y41.554
X68.626Y36.779
X68.676Y9.093
X68.727Y10.973
X69.311Y18.364
X69.337Y33.731
X69.732Y12.87
X69.823Y61.342
X70.585Y65.202
X71.242Y15.254
X71.513Y32.904
X71.724Y19.355
X71.891Y16.854
X71.978Y48.209
X72.715Y26.924
X72.856Y30.891
X72.856Y29.641
X73.147Y11.379
X73.299Y8.992
X73.303Y36.547
X73.446Y34.302
X73.452Y21.742
X73.481Y33.528
X73.683Y65.964
X74.106Y30.891
X74.106Y29.641
X74.217Y91.542
X74.395Y86.742
X74.445Y77.648
X74.445Y74.905
X74.547Y83.44
X74.547Y72.264
X74.547Y60.173
X74.598Y69.571
X74.699Y80.646
X74.725Y56.846
X74.801Y81.916
X74.801Y73.381
X74.852Y78.969
X74.852Y76.226
X74.852Y70.587
X75.004Y67.793
X75.005Y32.969
X75.28Y16.104
X75.538Y60.148
X75.563Y53.468
X75.639Y56.854
X75.661Y11.151
X75.687Y8.788
X75.725Y19.3
X76.601Y39.751
X76.703Y45.11
X76.808Y84.125
X76.808Y60.173
X76.808Y56.854
X77.008Y31.953
X77.49Y38.049
X77.646Y56.854
X77.697Y67.641
X77.71Y7.689
X77.747Y60.173
X77.871Y48.057
X77.871Y32.004
X77.973Y16.916
X78.136Y54.812
X78.154Y65.761
X78.154Y63.475
X78.357Y93.295
X78.455Y8.052
X78.763Y78.309
X79.052Y86.663
X79.17Y80.646
X79.294Y35.306
X79.497Y6.858
X79.522Y44.196
X79.751Y17.628
X79.983Y82.881
X80.386Y41.072
X80.538Y38.989
X80.564Y42.215
X80.589Y41.631
X80.592Y78.36
X81.046Y31.979
X81.122Y34.061
X81.198Y41.023
X81.224Y47.981
X81.224Y46.939
X81.275Y45.822
X81.326Y42.248
X81.456Y90.856
X81.681Y29.312
X81.684Y40.998
X81.684Y57.76
X81.757Y42.24
X81.761Y59.03
X81.986Y21.895
X82.015Y78.106
X82.24Y40.97
X82.243Y57.76
X82.316Y42.24
X82.316Y59.003
X82.319Y70.689
X82.545Y9.144
X82.675Y57.753
X82.726Y54.179
X82.777Y53.061
X82.777Y52.02
X82.803Y58.978
X82.878Y65.939
X82.954Y68.022
X83.408Y21.641
X83.412Y58.37
X83.437Y57.786
X83.462Y61.012
X83.615Y58.929
X84.018Y17.12
X84.25Y82.373
X84.478Y55.804
X84.504Y93.142
X84.707Y64.694
X84.831Y19.355
X84.949Y13.337
X85.237Y21.692
X85.545Y91.949
X85.644Y6.706
X85.847Y36.525
X85.847Y34.239
X85.865Y45.189
X86.028Y83.084
X86.129Y67.996
X86.129Y51.944
X86.253Y39.827
X86.291Y92.311
X86.304Y32.36
X86.355Y43.147
X86.51Y61.951
X86.993Y68.047
X87.193Y43.147
X87.193Y39.827
X87.193Y15.875
X87.298Y54.89
X87.399Y60.249
X88.276Y80.701
X88.314Y91.212
X88.339Y88.85
X88.361Y43.147
X88.438Y46.533
X88.463Y39.853
X88.72Y83.897
X88.996Y67.031
X88.996Y32.207
X89.149Y29.413
X89.149Y23.774
X89.149Y21.031
X89.2Y26.619
X89.2Y18.085
X89.276Y43.155
X89.301Y19.355
X89.403Y30.429
X89.454Y39.827
X89.454Y27.737
X89.454Y16.561
X89.555Y25.095
X89.555Y22.352
X89.606Y13.259
X89.784Y8.458
X89.894Y70.36
X89.894Y69.11
X90.317Y34.036
X90.519Y66.472
X90.549Y78.258
X90.554Y65.698
X90.698Y63.453
X90.701Y91.009
X90.854Y88.621
X91.144Y70.36
X91.144Y69.11
X91.286Y73.076
X92.022Y51.791
X92.11Y83.146
X92.276Y80.646
X92.488Y67.097
X92.759Y84.746
X93.416Y34.798
X94.178Y38.659
X94.269Y87.13
X94.664Y66.269
X94.689Y81.636
X95.273Y89.028
X95.324Y90.907
X95.375Y63.221
X95.629Y58.446
X95.781Y87.046
X96.34Y51.944
T2
X10.576Y5.004
X10.576Y2.464
X13.116Y5.004
X13.116Y2.464
X15.656Y5.004
X15.656Y2.464
X17.805Y97.536
X17.805Y94.996
X18.196Y5.004
X18.196Y2.464
X20.345Y97.536
X20.345Y94.996
X22.885Y97.536
X22.885Y94.996
X25.425Y97.536
X25.425Y94.996
X42.576Y5.004
X42.576Y2.464
X45.116Y5.004
X45.116Y2.464
X47.656Y5.004
X47.656Y2.464
X49.805Y97.536
X49.805Y94.996
X50.196Y5.004
X50.196Y2.464
X52.345Y97.536
X52.345Y94.996
X54.885Y97.536
X54.885Y94.996
X57.425Y97.536
X57.425Y94.996
X74.576Y5.004
X74.576Y2.464
X77.116Y5.004
X77.116Y2.464
X79.656Y5.004
X79.656Y2.464
X81.805Y97.536
X81.805Y94.996
X82.196Y5.004
X82.196Y2.464
X84.345Y97.536
X84.345Y94.996
X86.885Y97.536
X86.885Y94.996
X89.425Y97.536
X89.425Y94.996
T3
X4.435Y81.292
X4.435Y78.752
X4.435Y76.212
X4.435Y73.672
X4.435Y71.132
X4.435Y68.592
X4.553Y97.714
X4.553Y95.174
X4.553Y92.634
X4.555Y87.91
X4.555Y85.37
X5.642Y47.142
X5.642Y44.602
X5.813Y57.962
X5.813Y55.422
X5.998Y26.162
X5.998Y23.622
X5.998Y21.082
X6.048Y7.584
X6.048Y5.044
X6.048Y2.504
X6.975Y81.292
X6.975Y78.752
X6.975Y76.212
X6.975Y73.672
X6.975Y71.132
X6.975Y68.592
X7.093Y97.714
X7.093Y95.174
X7.093Y92.634
X10.468Y47.142
X10.468Y44.602
X25.533Y55.398
X25.533Y52.858
X28.908Y7.366
X28.908Y4.826
X28.908Y2.286
X29.026Y31.408
X29.026Y28.868
X29.026Y26.328
X29.026Y23.788
X29.026Y21.248
X29.026Y18.708
X29.953Y97.496
X29.953Y94.956
X29.953Y92.416
X30.003Y78.918
X30.003Y76.378
X30.003Y73.838
X30.188Y44.578
X30.188Y42.038
X30.359Y55.398
X30.359Y52.858
X31.446Y14.63
X31.446Y12.09
X31.448Y7.366
X31.448Y4.826
X31.448Y2.286
X31.566Y31.408
X31.566Y28.868
X31.566Y26.328
X31.566Y23.788
X31.566Y21.248
X31.566Y18.708
X36.435Y81.292
X36.435Y78.752
X36.435Y76.212
X36.435Y73.672
X36.435Y71.132
X36.435Y68.592
X36.553Y97.714
X36.553Y95.174
X36.553Y92.634
X36.555Y87.91
X36.555Y85.37
X37.642Y47.142
X37.642Y44.602
X37.813Y57.962
X37.813Y55.422
X37.998Y26.162
X37.998Y23.622
X37.998Y21.082
X38.048Y7.584
X38.048Y5.044
X38.048Y2.504
X38.975Y81.292
X38.975Y78.752
X38.975Y76.212
X38.975Y73.672
X38.975Y71.132
X38.975Y68.592
X39.093Y97.714
X39.093Y95.174
X39.093Y92.634
X42.468Y47.142
X42.468Y44.602
X57.533Y55.398
X57.533Y52.858
X60.908Y7.366
X60.908Y4.826
X60.908Y2.286
X61.026Y31.408
X61.026Y28.868
X61.026Y26.328
X61.026Y23.788
X61.026Y21.248
X61.026Y18.708
X61.953Y97.496
X61.953Y94.956
X61.953Y92.416
X62.003Y78.918
X62.003Y76.378
X62.003Y73.838
X62.188Y44.578
X62.188Y42.038
X62.359Y55.398
X62.359Y52.858
X63.446Y14.63
X63.446Y12.09
X63.448Y7.366
X63.448Y4.826
X63.448Y2.286
X63.566Y31.408
X63.566Y28.868
X63.566Y26.328
X63.566Y23.788
X63.566Y21.248
X63.566Y18.708
X68.435Y81.292
X68.435Y78.752
X68.435Y76.212
X68.435Y73.672
X68.435Y71.132
X68.435Y68.592
X68.553Y97.714
X68.553Y95.174
X68.553Y92.634
X68.555Y87.91
X68.555Y85.37
X69.642Y47.142
X69.642Y44.602
X69.813Y57.962
X69.813Y55.422
X69.998Y26.162
X69.998Y23.622
X69.998Y21.082
X70.048Y7.584
X70.048Y5.044
X70.048Y2.504
X70.975Y81.292
X70.975Y78.752
X70.975Y76.212
X70.975Y73.672
X70.975Y71.132
X70.975Y68.592
X71.093Y97.714
X71.093Y95.174
X71.093Y92.634
X74.468Y47.142
X74.468Y44.602
X89.533Y55.398
X89.533Y52.858
X92.908Y7.366
X92.908Y4.826
X92.908Y2.286
X93.026Y31.408
X93.026Y28.868
X93.026Y26.328
X93.026Y23.788
X93.026Y21.248
X93.026Y18.708
X93.953Y97.496
X93.953Y94.956
X93.953Y92.416
X94.003Y78.918
X94.003Y76.378
X94.003Y73.838
X94.188Y44.578
X94.188Y42.038
X94.359Y55.398
X94.359Y52.858
X95.446Y14.63
X95.446Y12.09
X95.448Y7.366
X95.448Y4.826
X95.448Y2.286
X95.566Y31.408
X95.566Y28.868
X95.566Y26.328
X95.566Y23.788
X95.566Y21.248
X95.566Y18.708
T0
M30
